<svg xmlns="http://www.w3.org/2000/svg" width="8" height="9" viewBox="0 0 8 9"><defs><mask id="sa3yb" width="2" height="2" x="-1" y="-1"><path fill="#fff" d="M1 5h6v3H1z"/><path d="M1.5 5.08l2.523 2.374L6.546 5.08z"/></mask><filter id="sa3ya" width="28" height="25.5" x="-10" y="-6" filterUnits="userSpaceOnUse"><feOffset dy=".5" in="SourceGraphic" result="FeOffset1367Out"/><feGaussianBlur in="FeOffset1367Out" result="FeGaussianBlur1368Out" stdDeviation="0.4 0.4"/></filter><mask id="sa3yd" width="2" height="2" x="-1" y="-1"><path fill="#fff" d="M1 5h6v3H1z"/><path d="M1.5 5.08l2.523 2.374L6.546 5.08z"/></mask><filter id="sa3yc" width="28" height="25.5" x="-10" y="-6.5" filterUnits="userSpaceOnUse"><feOffset dy="-.5" in="SourceGraphic" result="FeOffset1378Out"/><feGaussianBlur in="FeOffset1378Out" result="FeGaussianBlur1379Out" stdDeviation="0.4 0.4"/></filter><filter id="sa3ye" width="200%" height="200%" x="-50%" y="-50%"><feGaussianBlur in="SourceGraphic" result="FeGaussianBlur1384Out" stdDeviation="1 1"/></filter><mask id="sa3yf"><path fill="#fff" d="M1.5 5.08l2.523 2.374L6.546 5.08z"/></mask><mask id="sa3yh" width="2" height="2" x="-1" y="-1"><path fill="#fff" d="M1 0h6v4H1z"/><path d="M1.5.71l2.523 2.374L6.546.71z"/></mask><filter id="sa3yg" width="28" height="26.5" x="-10" y="-11.5" filterUnits="userSpaceOnUse"><feOffset dy="-.5" in="SourceGraphic" result="FeOffset1399Out"/><feGaussianBlur in="FeOffset1399Out" result="FeGaussianBlur1400Out" stdDeviation="0.4 0.4"/></filter><mask id="sa3yj" width="2" height="2" x="-1" y="-1"><path fill="#fff" d="M1 0h6v4H1z"/><path d="M1.5.71l2.523 2.374L6.546.71z"/></mask><filter id="sa3yi" width="28" height="26.5" x="-10" y="-11" filterUnits="userSpaceOnUse"><feOffset dy=".5" in="SourceGraphic" result="FeOffset1410Out"/><feGaussianBlur in="FeOffset1410Out" result="FeGaussianBlur1411Out" stdDeviation="0.4 0.4"/></filter><filter id="sa3yk" width="200%" height="200%" x="-50%" y="-50%"><feGaussianBlur in="SourceGraphic" result="FeGaussianBlur1416Out" stdDeviation="1 1"/></filter><mask id="sa3yl"><path fill="#fff" d="M1.5.71l2.523 2.374L6.546.71z"/></mask></defs><g><g><g filter="url(#sa3ya)"><path fill="none" d="M1.5 5.08l2.523 2.374L6.546 5.08z" mask="url(&quot;#sa3yb&quot;)"/><path fill="#fff" fill-opacity=".24" d="M1.5 5.08l2.523 2.374L6.546 5.08z"/></g><g filter="url(#sa3yc)"><path fill="none" d="M1.5 5.08l2.523 2.374L6.546 5.08z" mask="url(&quot;#sa3yd&quot;)"/><path fill-opacity=".24" d="M1.5 5.08l2.523 2.374L6.546 5.08z"/></g><path fill-opacity=".54" d="M1.5 5.08l2.523 2.374L6.546 5.08z"/><path fill-opacity=".5" d="M-1 11V2H9v9zm2.5-4.92l2.523 2.374L6.546 6.08z" filter="url(#sa3ye)" mask="url(&quot;#sa3yf&quot;)"/></g><g transform="rotate(-180 4 2)"><g filter="url(#sa3yg)"><path fill="none" d="M1.5.71l2.523 2.374L6.546.71z" mask="url(&quot;#sa3yh&quot;)"/><path fill="#fff" fill-opacity=".24" d="M1.5.71l2.523 2.374L6.546.71z"/></g><g filter="url(#sa3yi)"><path fill="none" d="M1.5.71l2.523 2.374L6.546.71z" mask="url(&quot;#sa3yj&quot;)"/><path fill-opacity=".24" d="M1.5.71l2.523 2.374L6.546.71z"/></g><path fill-opacity=".54" d="M1.5.71l2.523 2.374L6.546.71z"/><path fill-opacity=".5" d="M-1 7V-3H9V7zm2.5-5.29l2.523 2.374L6.546 1.71z" filter="url(#sa3yk)" mask="url(&quot;#sa3yl&quot;)"/></g></g></svg>