<svg xmlns="http://www.w3.org/2000/svg" width="14" height="14" viewBox="0 0 14 14"><defs><mask id="p336b" width="2" height="2" x="-1" y="-1"><path fill="#fff" d="M3 2h8v8H3z"/><path d="M7.124 9.916a3.784 3.784 0 1 0 .002-7.567 3.784 3.784 0 0 0-.002 7.567z"/></mask><filter id="p336a" width="34" height="35" x="-10" y="-11" filterUnits="userSpaceOnUse"><feOffset dy="1" in="SourceGraphic" result="FeOffset1135Out"/><feGaussianBlur in="FeOffset1135Out" result="FeGaussianBlur1136Out" stdDeviation="1.2 1.2"/></filter><radialGradient id="p336c" cx="7.13" cy="2.35" r="12.41" gradientUnits="userSpaceOnUse"><stop offset="0" stop-color="#7c7c8c"/><stop offset="1" stop-color="#151517"/></radialGradient><filter id="p336d" width="200%" height="200%" x="-50%" y="-50%"><feGaussianBlur in="SourceGraphic" result="FeGaussianBlur1144Out" stdDeviation="1 1"/></filter><mask id="p336e"><path fill="#fff" d="M7.124 9.916a3.784 3.784 0 1 0 .002-7.567 3.784 3.784 0 0 0-.002 7.567z"/></mask><linearGradient id="p336f" x1="7.12" x2="7.12" y1="2.35" y2="9.92" gradientUnits="userSpaceOnUse"><stop offset="0" stop-opacity=".5"/><stop offset=".51" stop-opacity=".7"/><stop offset="1" stop-opacity=".5"/></linearGradient><filter id="p336g" width="200%" height="200%" x="-50%" y="-50%"><feGaussianBlur in="SourceGraphic" result="FeGaussianBlur1158Out" stdDeviation="0.5 0.5"/></filter><mask id="p336h"><path fill="#fff" d="M6.804 2.35h.63l.002 7.568h-.63z"/></mask></defs><g><g><g filter="url(#p336a)"><path fill="none" d="M7.124 9.916a3.784 3.784 0 1 0 .002-7.567 3.784 3.784 0 0 0-.002 7.567z" mask="url(&quot;#p336b&quot;)"/><path d="M7.124 9.916a3.784 3.784 0 1 0 .002-7.567 3.784 3.784 0 0 0-.002 7.567z"/></g><path fill="url(#p336c)" d="M7.124 9.916a3.784 3.784 0 1 0 .002-7.567 3.784 3.784 0 0 0-.002 7.567z"/><path fill-opacity=".5" d="M1 13V-1h12v14zm6.124-4.084a3.784 3.784 0 1 0 .002-7.567 3.784 3.784 0 0 0-.002 7.567z" filter="url(#p336d)" mask="url(&quot;#p336e&quot;)"/></g><g opacity=".7" transform="rotate(-45 7.5 6)"><path fill="url(#p336f)" d="M6.804 2.35h.63l.002 7.568h-.63z"/><path fill-opacity=".5" d="M2 10V2h11v8zm3.805-.082h.631L6.435 2.35h-.631z" filter="url(#p336g)" mask="url(&quot;#p336h&quot;)"/></g></g></svg>