<svg xmlns="http://www.w3.org/2000/svg" width="18" height="19" viewBox="0 0 18 19"><defs><mask id="42j7b" width="2" height="2" x="-1" y="-1"><path fill="#fff" d="M5 2h8v8H5z"/><path d="M8.874 9.916a3.784 3.784 0 1 0 .002-7.567 3.784 3.784 0 0 0-.002 7.567z"/></mask><filter id="42j7a" width="34" height="35" x="-8" y="-11" filterUnits="userSpaceOnUse"><feOffset dy="1" in="SourceGraphic" result="FeOffset1082Out"/><feGaussianBlur in="FeOffset1082Out" result="FeGaussianBlur1083Out" stdDeviation="1.2 1.2"/></filter><mask id="42j7d" width="2" height="2" x="-1" y="-1"><path fill="#fff" d="M5 2h8v8H5z"/><path d="M8.874 9.916a3.784 3.784 0 1 0 .002-7.567 3.784 3.784 0 0 0-.002 7.567z"/></mask><filter id="42j7c" width="40" height="44" x="-11" y="-14" filterUnits="userSpaceOnUse"><feOffset dy="4" in="SourceGraphic" result="FeOffset1093Out"/><feGaussianBlur in="FeOffset1093Out" result="FeGaussianBlur1094Out" stdDeviation="2.4 2.4"/></filter><radialGradient id="42j7e" cx="8.87" cy="2.35" r="12.41" gradientUnits="userSpaceOnUse"><stop offset="0" stop-color="#7c7c8c"/><stop offset="1" stop-color="#151517"/></radialGradient><filter id="42j7f" width="200%" height="200%" x="-50%" y="-50%"><feGaussianBlur in="SourceGraphic" result="FeGaussianBlur1102Out" stdDeviation="1 1"/></filter><mask id="42j7g"><path fill="#fff" d="M8.874 9.916a3.784 3.784 0 1 0 .002-7.567 3.784 3.784 0 0 0-.002 7.567z"/></mask><linearGradient id="42j7h" x1="8.88" x2="8.88" y1="2.34" y2="9.91" gradientUnits="userSpaceOnUse"><stop offset="0" stop-opacity=".5"/><stop offset=".51" stop-opacity=".7"/><stop offset="1" stop-opacity=".5"/></linearGradient><filter id="42j7i" width="200%" height="200%" x="-50%" y="-50%"><feGaussianBlur in="SourceGraphic" result="FeGaussianBlur1116Out" stdDeviation="0.5 0.5"/></filter><mask id="42j7j"><path fill="#fff" d="M8.565 2.34h.631l-.001 7.568h-.631z"/></mask></defs><g><g><g filter="url(#42j7a)"><path fill="none" d="M8.874 9.916a3.784 3.784 0 1 0 .002-7.567 3.784 3.784 0 0 0-.002 7.567z" mask="url(&quot;#42j7b&quot;)"/><path d="M8.874 9.916a3.784 3.784 0 1 0 .002-7.567 3.784 3.784 0 0 0-.002 7.567z"/></g><g filter="url(#42j7c)"><path fill="none" d="M8.874 9.916a3.784 3.784 0 1 0 .002-7.567 3.784 3.784 0 0 0-.002 7.567z" mask="url(&quot;#42j7d&quot;)"/><path fill-opacity=".5" d="M8.874 9.916a3.784 3.784 0 1 0 .002-7.567 3.784 3.784 0 0 0-.002 7.567z"/></g><path fill="url(#42j7e)" d="M8.874 9.916a3.784 3.784 0 1 0 .002-7.567 3.784 3.784 0 0 0-.002 7.567z"/><path fill-opacity=".5" d="M3 13V-1h12v14zm5.874-4.084a3.784 3.784 0 1 0 .002-7.567 3.784 3.784 0 0 0-.002 7.567z" filter="url(#42j7f)" mask="url(&quot;#42j7g&quot;)"/></g><g opacity=".7" transform="rotate(-315 8.5 6)"><path fill="url(#42j7h)" d="M8.565 2.34h.631l-.001 7.568h-.631z"/><path fill-opacity=".5" d="M3 10V2h11v8zm6.564-.092h.63l.002-7.568h-.63z" filter="url(#42j7i)" mask="url(&quot;#42j7j&quot;)"/></g></g></svg>