<svg xmlns="http://www.w3.org/2000/svg" width="15" height="14" viewBox="0 0 15 14"><defs><filter id="r0o1a" width="200%" height="216%" x="-40%" y="-48%" filterUnits="objectBoundingBox"><feGaussianBlur in="SourceGraphic" result="FeGaussianBlur1016Out" stdDeviation="1.357886904761905 1.357886904761905"/></filter><filter id="r0o1b" width="200%" height="216%" x="-40%" y="-48%" filterUnits="objectBoundingBox"><feGaussianBlur in="SourceGraphic" result="FeGaussianBlur1023Out" stdDeviation="1.357886904761905 1.357886904761905"/></filter></defs><g><g filter="url(#r0o1a)" opacity=".5"><path fill="#e6e6ff" fill-opacity=".7" d="M7.5 10.997c2.21 0 4-1.493 4-3.334 0-1.84-1.79-3.333-4-3.333s-4 1.492-4 3.333c0 1.841 1.79 3.334 4 3.334z"/></g><g filter="url(#r0o1b)"><path fill-opacity=".7" d="M7.5 9.667c2.21 0 4-1.493 4-3.334C11.5 4.493 9.71 3 7.5 3s-4 1.492-4 3.333c0 1.841 1.79 3.334 4 3.334z"/></g><g><path d="M7.497 9.663a2.667 2.667 0 1 0 0-5.333 2.667 2.667 0 0 0 0 5.333z"/></g></g></svg>