<svg xmlns="http://www.w3.org/2000/svg" width="48" height="15" viewBox="0 0 48 15"><defs><mask id="vvrnb" width="2" height="2" x="-1" y="-1"><path fill="#fff" d="M3 3h43v9H3z"/><path d="M41.775 12.045V8.533l3.49-5.3h-1.77l-2.486 3.89-2.448-3.89h-1.833l3.49 5.338v3.474zM32.918 5.02l1.518 3.52h-3.023zm-2.979 7.016l.905-2.125h4.161l.893 2.125h1.634L33.66 3.17h-1.433l-3.872 8.865zm-2.416.01v-1.41H22.9V3.233h-1.545v8.812zm-7.972 0V10.66h-5.046V8.294h4.417V6.909h-4.417V4.618h4.983V3.233h-6.531v8.812zM9.482 7.635v.024c0 1.723-1.205 2.968-3.051 2.968H4.698V4.64H6.43c1.846 0 3.051 1.27 3.051 2.993zm-3.052 4.41c2.765 0 4.676-1.926 4.676-4.406v-.025c0-2.48-1.91-4.381-4.676-4.381H3.15v8.812z"/></mask><filter id="vvrna" width="69" height="35" x="-10" y="-10" filterUnits="userSpaceOnUse"><feOffset in="SourceGraphic" result="FeOffset1131Out"/><feGaussianBlur in="FeOffset1131Out" result="FeGaussianBlur1132Out" stdDeviation="1.2 1.2"/></filter><mask id="vvrnd" width="2" height="2" x="-1" y="-1"><path fill="#fff" d="M3 3h43v9H3z"/><path d="M41.775 12.045V8.533l3.49-5.3h-1.77l-2.486 3.89-2.448-3.89h-1.833l3.49 5.338v3.474zM32.918 5.02l1.518 3.52h-3.023zm-2.979 7.016l.905-2.125h4.161l.893 2.125h1.634L33.66 3.17h-1.433l-3.872 8.865zm-2.416.01v-1.41H22.9V3.233h-1.545v8.812zm-7.972 0V10.66h-5.046V8.294h4.417V6.909h-4.417V4.618h4.983V3.233h-6.531v8.812zM9.482 7.635v.024c0 1.723-1.205 2.968-3.051 2.968H4.698V4.64H6.43c1.846 0 3.051 1.27 3.051 2.993zm-3.052 4.41c2.765 0 4.676-1.926 4.676-4.406v-.025c0-2.48-1.91-4.381-4.676-4.381H3.15v8.812z"/></mask><filter id="vvrnc" width="65" height="31" x="-8" y="-8" filterUnits="userSpaceOnUse"><feOffset in="SourceGraphic" result="FeOffset1142Out"/><feGaussianBlur in="FeOffset1142Out" result="FeGaussianBlur1143Out" stdDeviation="0.4 0.4"/></filter><filter id="vvrne" width="200%" height="200%" x="-50%" y="-50%"><feGaussianBlur in="SourceGraphic" result="FeGaussianBlur1148Out" stdDeviation="0.5 0.5"/></filter><mask id="vvrnf"><path fill="#fff" d="M41.775 12.045V8.533l3.49-5.3h-1.77l-2.486 3.89-2.448-3.89h-1.833l3.49 5.338v3.474zM32.918 5.02l1.518 3.52h-3.023zm-2.979 7.016l.905-2.125h4.161l.893 2.125h1.634L33.66 3.17h-1.433l-3.872 8.865zm-2.416.01v-1.41H22.9V3.233h-1.545v8.812zm-7.972 0V10.66h-5.046V8.294h4.417V6.909h-4.417V4.618h4.983V3.233h-6.531v8.812zM9.482 7.635v.024c0 1.723-1.205 2.968-3.051 2.968H4.698V4.64H6.43c1.846 0 3.051 1.27 3.051 2.993zm-3.052 4.41c2.765 0 4.676-1.926 4.676-4.406v-.025c0-2.48-1.91-4.381-4.676-4.381H3.15v8.812z"/></mask></defs><g><g><g filter="url(#vvrna)"><path fill="none" d="M41.775 12.045V8.533l3.49-5.3h-1.77l-2.486 3.89-2.448-3.89h-1.833l3.49 5.338v3.474zM32.918 5.02l1.518 3.52h-3.023zm-2.979 7.016l.905-2.125h4.161l.893 2.125h1.634L33.66 3.17h-1.433l-3.872 8.865zm-2.416.01v-1.41H22.9V3.233h-1.545v8.812zm-7.972 0V10.66h-5.046V8.294h4.417V6.909h-4.417V4.618h4.983V3.233h-6.531v8.812zM9.482 7.635v.024c0 1.723-1.205 2.968-3.051 2.968H4.698V4.64H6.43c1.846 0 3.051 1.27 3.051 2.993zm-3.052 4.41c2.765 0 4.676-1.926 4.676-4.406v-.025c0-2.48-1.91-4.381-4.676-4.381H3.15v8.812z" mask="url(&quot;#vvrnb&quot;)"/><path d="M41.775 12.045V8.533l3.49-5.3h-1.77l-2.486 3.89-2.448-3.89h-1.833l3.49 5.338v3.474zM32.918 5.02l1.518 3.52h-3.023zm-2.979 7.016l.905-2.125h4.161l.893 2.125h1.634L33.66 3.17h-1.433l-3.872 8.865zm-2.416.01v-1.41H22.9V3.233h-1.545v8.812zm-7.972 0V10.66h-5.046V8.294h4.417V6.909h-4.417V4.618h4.983V3.233h-6.531v8.812zM9.482 7.635v.024c0 1.723-1.205 2.968-3.051 2.968H4.698V4.64H6.43c1.846 0 3.051 1.27 3.051 2.993zm-3.052 4.41c2.765 0 4.676-1.926 4.676-4.406v-.025c0-2.48-1.91-4.381-4.676-4.381H3.15v8.812z"/></g><g filter="url(#vvrnc)"><path fill="none" d="M41.775 12.045V8.533l3.49-5.3h-1.77l-2.486 3.89-2.448-3.89h-1.833l3.49 5.338v3.474zM32.918 5.02l1.518 3.52h-3.023zm-2.979 7.016l.905-2.125h4.161l.893 2.125h1.634L33.66 3.17h-1.433l-3.872 8.865zm-2.416.01v-1.41H22.9V3.233h-1.545v8.812zm-7.972 0V10.66h-5.046V8.294h4.417V6.909h-4.417V4.618h4.983V3.233h-6.531v8.812zM9.482 7.635v.024c0 1.723-1.205 2.968-3.051 2.968H4.698V4.64H6.43c1.846 0 3.051 1.27 3.051 2.993zm-3.052 4.41c2.765 0 4.676-1.926 4.676-4.406v-.025c0-2.48-1.91-4.381-4.676-4.381H3.15v8.812z" mask="url(&quot;#vvrnd&quot;)"/><path d="M41.775 12.045V8.533l3.49-5.3h-1.77l-2.486 3.89-2.448-3.89h-1.833l3.49 5.338v3.474zM32.918 5.02l1.518 3.52h-3.023zm-2.979 7.016l.905-2.125h4.161l.893 2.125h1.634L33.66 3.17h-1.433l-3.872 8.865zm-2.416.01v-1.41H22.9V3.233h-1.545v8.812zm-7.972 0V10.66h-5.046V8.294h4.417V6.909h-4.417V4.618h4.983V3.233h-6.531v8.812zM9.482 7.635v.024c0 1.723-1.205 2.968-3.051 2.968H4.698V4.64H6.43c1.846 0 3.051 1.27 3.051 2.993zm-3.052 4.41c2.765 0 4.676-1.926 4.676-4.406v-.025c0-2.48-1.91-4.381-4.676-4.381H3.15v8.812z"/></g><path fill="#d5d5d5" d="M41.775 12.045V8.533l3.49-5.3h-1.77l-2.486 3.89-2.448-3.89h-1.833l3.49 5.338v3.474zM32.918 5.02l1.518 3.52h-3.023zm-2.979 7.016l.905-2.125h4.161l.893 2.125h1.634L33.66 3.17h-1.433l-3.872 8.865zm-2.416.01v-1.41H22.9V3.233h-1.545v8.812zm-7.972 0V10.66h-5.046V8.294h4.417V6.909h-4.417V4.618h4.983V3.233h-6.531v8.812zM9.482 7.635v.024c0 1.723-1.205 2.968-3.051 2.968H4.698V4.64H6.43c1.846 0 3.051 1.27 3.051 2.993zm-3.052 4.41c2.765 0 4.676-1.926 4.676-4.406v-.025c0-2.48-1.91-4.381-4.676-4.381H3.15v8.812z"/><path fill-opacity=".5" d="M2 13.5v-12h45v12zm39.775-1.955V8.033l3.49-5.3h-1.77l-2.486 3.89-2.448-3.89h-1.833l3.49 5.338v3.474zM32.918 4.52l1.518 3.52h-3.023zm-2.979 7.016l.905-2.125h4.161l.893 2.125h1.634L33.66 2.67h-1.433l-3.872 8.865zm-2.416.01v-1.41H22.9V2.733h-1.545v8.812zm-7.972 0V10.16h-5.046V7.794h4.417V6.409h-4.417V4.118h4.983V2.733h-6.531v8.812zM9.482 7.135v.024c0 1.723-1.205 2.968-3.051 2.968H4.698V4.14H6.43c1.846 0 3.051 1.27 3.051 2.993zm-3.052 4.41c2.765 0 4.676-1.926 4.676-4.406v-.025c0-2.48-1.91-4.381-4.676-4.381H3.15v8.812z" filter="url(#vvrne)" mask="url(&quot;#vvrnf&quot;)"/></g></g></svg>