<svg xmlns="http://www.w3.org/2000/svg" width="86" height="15" viewBox="0 0 86 15"><defs><mask id="sllmb" width="2" height="2" x="-1" y="-1"><path fill="#fff" d="M3 3h80v10H3z"/><path d="M74.919 12.099V3.311h1.435l4.722 6.076V3.311H82.6v8.788h-1.297l-4.86-6.252v6.252zm-6.439-1.28c1.75 0 2.972-1.382 2.972-3.09v-.024c0-1.708-1.247-3.126-2.997-3.126-1.75 0-2.972 1.393-2.972 3.1v.026c0 1.707 1.247 3.113 2.997 3.113zm-.025 1.43c-2.707 0-4.596-2.046-4.596-4.52v-.024c0-2.473 1.914-4.545 4.621-4.545 2.707 0 4.596 2.046 4.596 4.52v.025c0 2.473-1.914 4.545-4.621 4.545zm-8.075-.15V3.311h1.548v8.788zm-6.048 0V4.742h-2.796V3.31h7.152v1.43h-2.795V12.1zm-9.65-4.432h2.267c1.108 0 1.813-.577 1.813-1.469v-.025c0-.941-.68-1.456-1.826-1.456h-2.254zM43.133 12.1V3.311h3.934c1.11 0 1.98.326 2.547.878.467.478.732 1.13.732 1.896v.025c0 1.444-.87 2.31-2.093 2.662l2.383 3.327h-1.841l-2.169-3.063h-1.942v3.063zm-6.438-1.28c1.75 0 2.972-1.382 2.972-3.09v-.024c0-1.708-1.247-3.126-2.997-3.126-1.75 0-2.972 1.393-2.972 3.1v.026c0 1.707 1.247 3.113 2.997 3.113zm-.025 1.43c-2.707 0-4.596-2.046-4.596-4.52v-.024c0-2.473 1.914-4.545 4.621-4.545 2.707 0 4.596 2.046 4.596 4.52v.025c0 2.473-1.914 4.545-4.621 4.545zm-9.687-.15V4.742h-2.796V3.31h7.153v1.43h-2.796V12.1zm-6.917.116a5.442 5.442 0 0 1-3.677-1.405l.932-1.104c.843.728 1.7 1.142 2.783 1.142.957 0 1.561-.452 1.561-1.104v-.025c0-.627-.353-.966-1.99-1.342-1.876-.451-2.933-1.003-2.933-2.621v-.025c0-1.505 1.259-2.546 3.009-2.546 1.284 0 2.304.389 3.198 1.104l-.83 1.166c-.794-.59-1.587-.903-2.393-.903-.907 0-1.436.464-1.436 1.041v.025c0 .677.403.978 2.103 1.38 1.864.451 2.82 1.116 2.82 2.57v.026c0 1.642-1.296 2.62-3.147 2.62zm-6.955-.116V3.311h1.549v8.788zM6.497 4.717H4.759v5.966h1.738c1.85 0 3.06-1.241 3.06-2.958V7.7c0-1.717-1.21-2.983-3.06-2.983zM3.21 12.099V3.311h3.287c2.77 0 4.684 1.895 4.684 4.369v.025c0 2.473-1.914 4.394-4.684 4.394z"/></mask><filter id="sllma" width="106" height="36" x="-10" y="-10" filterUnits="userSpaceOnUse"><feOffset in="SourceGraphic" result="FeOffset1059Out"/><feGaussianBlur in="FeOffset1059Out" result="FeGaussianBlur1060Out" stdDeviation="1.2 1.2"/></filter><mask id="sllmd" width="2" height="2" x="-1" y="-1"><path fill="#fff" d="M3 3h80v10H3z"/><path d="M74.919 12.099V3.311h1.435l4.722 6.076V3.311H82.6v8.788h-1.297l-4.86-6.252v6.252zm-6.439-1.28c1.75 0 2.972-1.382 2.972-3.09v-.024c0-1.708-1.247-3.126-2.997-3.126-1.75 0-2.972 1.393-2.972 3.1v.026c0 1.707 1.247 3.113 2.997 3.113zm-.025 1.43c-2.707 0-4.596-2.046-4.596-4.52v-.024c0-2.473 1.914-4.545 4.621-4.545 2.707 0 4.596 2.046 4.596 4.52v.025c0 2.473-1.914 4.545-4.621 4.545zm-8.075-.15V3.311h1.548v8.788zm-6.048 0V4.742h-2.796V3.31h7.152v1.43h-2.795V12.1zm-9.65-4.432h2.267c1.108 0 1.813-.577 1.813-1.469v-.025c0-.941-.68-1.456-1.826-1.456h-2.254zM43.133 12.1V3.311h3.934c1.11 0 1.98.326 2.547.878.467.478.732 1.13.732 1.896v.025c0 1.444-.87 2.31-2.093 2.662l2.383 3.327h-1.841l-2.169-3.063h-1.942v3.063zm-6.438-1.28c1.75 0 2.972-1.382 2.972-3.09v-.024c0-1.708-1.247-3.126-2.997-3.126-1.75 0-2.972 1.393-2.972 3.1v.026c0 1.707 1.247 3.113 2.997 3.113zm-.025 1.43c-2.707 0-4.596-2.046-4.596-4.52v-.024c0-2.473 1.914-4.545 4.621-4.545 2.707 0 4.596 2.046 4.596 4.52v.025c0 2.473-1.914 4.545-4.621 4.545zm-9.687-.15V4.742h-2.796V3.31h7.153v1.43h-2.796V12.1zm-6.917.116a5.442 5.442 0 0 1-3.677-1.405l.932-1.104c.843.728 1.7 1.142 2.783 1.142.957 0 1.561-.452 1.561-1.104v-.025c0-.627-.353-.966-1.99-1.342-1.876-.451-2.933-1.003-2.933-2.621v-.025c0-1.505 1.259-2.546 3.009-2.546 1.284 0 2.304.389 3.198 1.104l-.83 1.166c-.794-.59-1.587-.903-2.393-.903-.907 0-1.436.464-1.436 1.041v.025c0 .677.403.978 2.103 1.38 1.864.451 2.82 1.116 2.82 2.57v.026c0 1.642-1.296 2.62-3.147 2.62zm-6.955-.116V3.311h1.549v8.788zM6.497 4.717H4.759v5.966h1.738c1.85 0 3.06-1.241 3.06-2.958V7.7c0-1.717-1.21-2.983-3.06-2.983zM3.21 12.099V3.311h3.287c2.77 0 4.684 1.895 4.684 4.369v.025c0 2.473-1.914 4.394-4.684 4.394z"/></mask><filter id="sllmc" width="102" height="32" x="-8" y="-8" filterUnits="userSpaceOnUse"><feOffset in="SourceGraphic" result="FeOffset1070Out"/><feGaussianBlur in="FeOffset1070Out" result="FeGaussianBlur1071Out" stdDeviation="0.4 0.4"/></filter><filter id="sllme" width="200%" height="200%" x="-50%" y="-50%"><feGaussianBlur in="SourceGraphic" result="FeGaussianBlur1076Out" stdDeviation="0.5 0.5"/></filter><mask id="sllmf"><path fill="#fff" d="M74.919 12.099V3.311h1.435l4.722 6.076V3.311H82.6v8.788h-1.297l-4.86-6.252v6.252zm-6.439-1.28c1.75 0 2.972-1.382 2.972-3.09v-.024c0-1.708-1.247-3.126-2.997-3.126-1.75 0-2.972 1.393-2.972 3.1v.026c0 1.707 1.247 3.113 2.997 3.113zm-.025 1.43c-2.707 0-4.596-2.046-4.596-4.52v-.024c0-2.473 1.914-4.545 4.621-4.545 2.707 0 4.596 2.046 4.596 4.52v.025c0 2.473-1.914 4.545-4.621 4.545zm-8.075-.15V3.311h1.548v8.788zm-6.048 0V4.742h-2.796V3.31h7.152v1.43h-2.795V12.1zm-9.65-4.432h2.267c1.108 0 1.813-.577 1.813-1.469v-.025c0-.941-.68-1.456-1.826-1.456h-2.254zM43.133 12.1V3.311h3.934c1.11 0 1.98.326 2.547.878.467.478.732 1.13.732 1.896v.025c0 1.444-.87 2.31-2.093 2.662l2.383 3.327h-1.841l-2.169-3.063h-1.942v3.063zm-6.438-1.28c1.75 0 2.972-1.382 2.972-3.09v-.024c0-1.708-1.247-3.126-2.997-3.126-1.75 0-2.972 1.393-2.972 3.1v.026c0 1.707 1.247 3.113 2.997 3.113zm-.025 1.43c-2.707 0-4.596-2.046-4.596-4.52v-.024c0-2.473 1.914-4.545 4.621-4.545 2.707 0 4.596 2.046 4.596 4.52v.025c0 2.473-1.914 4.545-4.621 4.545zm-9.687-.15V4.742h-2.796V3.31h7.153v1.43h-2.796V12.1zm-6.917.116a5.442 5.442 0 0 1-3.677-1.405l.932-1.104c.843.728 1.7 1.142 2.783 1.142.957 0 1.561-.452 1.561-1.104v-.025c0-.627-.353-.966-1.99-1.342-1.876-.451-2.933-1.003-2.933-2.621v-.025c0-1.505 1.259-2.546 3.009-2.546 1.284 0 2.304.389 3.198 1.104l-.83 1.166c-.794-.59-1.587-.903-2.393-.903-.907 0-1.436.464-1.436 1.041v.025c0 .677.403.978 2.103 1.38 1.864.451 2.82 1.116 2.82 2.57v.026c0 1.642-1.296 2.62-3.147 2.62zm-6.955-.116V3.311h1.549v8.788zM6.497 4.717H4.759v5.966h1.738c1.85 0 3.06-1.241 3.06-2.958V7.7c0-1.717-1.21-2.983-3.06-2.983zM3.21 12.099V3.311h3.287c2.77 0 4.684 1.895 4.684 4.369v.025c0 2.473-1.914 4.394-4.684 4.394z"/></mask></defs><g><g><g filter="url(#sllma)"><path fill="none" d="M74.919 12.099V3.311h1.435l4.722 6.076V3.311H82.6v8.788h-1.297l-4.86-6.252v6.252zm-6.439-1.28c1.75 0 2.972-1.382 2.972-3.09v-.024c0-1.708-1.247-3.126-2.997-3.126-1.75 0-2.972 1.393-2.972 3.1v.026c0 1.707 1.247 3.113 2.997 3.113zm-.025 1.43c-2.707 0-4.596-2.046-4.596-4.52v-.024c0-2.473 1.914-4.545 4.621-4.545 2.707 0 4.596 2.046 4.596 4.52v.025c0 2.473-1.914 4.545-4.621 4.545zm-8.075-.15V3.311h1.548v8.788zm-6.048 0V4.742h-2.796V3.31h7.152v1.43h-2.795V12.1zm-9.65-4.432h2.267c1.108 0 1.813-.577 1.813-1.469v-.025c0-.941-.68-1.456-1.826-1.456h-2.254zM43.133 12.1V3.311h3.934c1.11 0 1.98.326 2.547.878.467.478.732 1.13.732 1.896v.025c0 1.444-.87 2.31-2.093 2.662l2.383 3.327h-1.841l-2.169-3.063h-1.942v3.063zm-6.438-1.28c1.75 0 2.972-1.382 2.972-3.09v-.024c0-1.708-1.247-3.126-2.997-3.126-1.75 0-2.972 1.393-2.972 3.1v.026c0 1.707 1.247 3.113 2.997 3.113zm-.025 1.43c-2.707 0-4.596-2.046-4.596-4.52v-.024c0-2.473 1.914-4.545 4.621-4.545 2.707 0 4.596 2.046 4.596 4.52v.025c0 2.473-1.914 4.545-4.621 4.545zm-9.687-.15V4.742h-2.796V3.31h7.153v1.43h-2.796V12.1zm-6.917.116a5.442 5.442 0 0 1-3.677-1.405l.932-1.104c.843.728 1.7 1.142 2.783 1.142.957 0 1.561-.452 1.561-1.104v-.025c0-.627-.353-.966-1.99-1.342-1.876-.451-2.933-1.003-2.933-2.621v-.025c0-1.505 1.259-2.546 3.009-2.546 1.284 0 2.304.389 3.198 1.104l-.83 1.166c-.794-.59-1.587-.903-2.393-.903-.907 0-1.436.464-1.436 1.041v.025c0 .677.403.978 2.103 1.38 1.864.451 2.82 1.116 2.82 2.57v.026c0 1.642-1.296 2.62-3.147 2.62zm-6.955-.116V3.311h1.549v8.788zM6.497 4.717H4.759v5.966h1.738c1.85 0 3.06-1.241 3.06-2.958V7.7c0-1.717-1.21-2.983-3.06-2.983zM3.21 12.099V3.311h3.287c2.77 0 4.684 1.895 4.684 4.369v.025c0 2.473-1.914 4.394-4.684 4.394z" mask="url(&quot;#sllmb&quot;)"/><path d="M74.919 12.099V3.311h1.435l4.722 6.076V3.311H82.6v8.788h-1.297l-4.86-6.252v6.252zm-6.439-1.28c1.75 0 2.972-1.382 2.972-3.09v-.024c0-1.708-1.247-3.126-2.997-3.126-1.75 0-2.972 1.393-2.972 3.1v.026c0 1.707 1.247 3.113 2.997 3.113zm-.025 1.43c-2.707 0-4.596-2.046-4.596-4.52v-.024c0-2.473 1.914-4.545 4.621-4.545 2.707 0 4.596 2.046 4.596 4.52v.025c0 2.473-1.914 4.545-4.621 4.545zm-8.075-.15V3.311h1.548v8.788zm-6.048 0V4.742h-2.796V3.31h7.152v1.43h-2.795V12.1zm-9.65-4.432h2.267c1.108 0 1.813-.577 1.813-1.469v-.025c0-.941-.68-1.456-1.826-1.456h-2.254zM43.133 12.1V3.311h3.934c1.11 0 1.98.326 2.547.878.467.478.732 1.13.732 1.896v.025c0 1.444-.87 2.31-2.093 2.662l2.383 3.327h-1.841l-2.169-3.063h-1.942v3.063zm-6.438-1.28c1.75 0 2.972-1.382 2.972-3.09v-.024c0-1.708-1.247-3.126-2.997-3.126-1.75 0-2.972 1.393-2.972 3.1v.026c0 1.707 1.247 3.113 2.997 3.113zm-.025 1.43c-2.707 0-4.596-2.046-4.596-4.52v-.024c0-2.473 1.914-4.545 4.621-4.545 2.707 0 4.596 2.046 4.596 4.52v.025c0 2.473-1.914 4.545-4.621 4.545zm-9.687-.15V4.742h-2.796V3.31h7.153v1.43h-2.796V12.1zm-6.917.116a5.442 5.442 0 0 1-3.677-1.405l.932-1.104c.843.728 1.7 1.142 2.783 1.142.957 0 1.561-.452 1.561-1.104v-.025c0-.627-.353-.966-1.99-1.342-1.876-.451-2.933-1.003-2.933-2.621v-.025c0-1.505 1.259-2.546 3.009-2.546 1.284 0 2.304.389 3.198 1.104l-.83 1.166c-.794-.59-1.587-.903-2.393-.903-.907 0-1.436.464-1.436 1.041v.025c0 .677.403.978 2.103 1.38 1.864.451 2.82 1.116 2.82 2.57v.026c0 1.642-1.296 2.62-3.147 2.62zm-6.955-.116V3.311h1.549v8.788zM6.497 4.717H4.759v5.966h1.738c1.85 0 3.06-1.241 3.06-2.958V7.7c0-1.717-1.21-2.983-3.06-2.983zM3.21 12.099V3.311h3.287c2.77 0 4.684 1.895 4.684 4.369v.025c0 2.473-1.914 4.394-4.684 4.394z"/></g><g filter="url(#sllmc)"><path fill="none" d="M74.919 12.099V3.311h1.435l4.722 6.076V3.311H82.6v8.788h-1.297l-4.86-6.252v6.252zm-6.439-1.28c1.75 0 2.972-1.382 2.972-3.09v-.024c0-1.708-1.247-3.126-2.997-3.126-1.75 0-2.972 1.393-2.972 3.1v.026c0 1.707 1.247 3.113 2.997 3.113zm-.025 1.43c-2.707 0-4.596-2.046-4.596-4.52v-.024c0-2.473 1.914-4.545 4.621-4.545 2.707 0 4.596 2.046 4.596 4.52v.025c0 2.473-1.914 4.545-4.621 4.545zm-8.075-.15V3.311h1.548v8.788zm-6.048 0V4.742h-2.796V3.31h7.152v1.43h-2.795V12.1zm-9.65-4.432h2.267c1.108 0 1.813-.577 1.813-1.469v-.025c0-.941-.68-1.456-1.826-1.456h-2.254zM43.133 12.1V3.311h3.934c1.11 0 1.98.326 2.547.878.467.478.732 1.13.732 1.896v.025c0 1.444-.87 2.31-2.093 2.662l2.383 3.327h-1.841l-2.169-3.063h-1.942v3.063zm-6.438-1.28c1.75 0 2.972-1.382 2.972-3.09v-.024c0-1.708-1.247-3.126-2.997-3.126-1.75 0-2.972 1.393-2.972 3.1v.026c0 1.707 1.247 3.113 2.997 3.113zm-.025 1.43c-2.707 0-4.596-2.046-4.596-4.52v-.024c0-2.473 1.914-4.545 4.621-4.545 2.707 0 4.596 2.046 4.596 4.52v.025c0 2.473-1.914 4.545-4.621 4.545zm-9.687-.15V4.742h-2.796V3.31h7.153v1.43h-2.796V12.1zm-6.917.116a5.442 5.442 0 0 1-3.677-1.405l.932-1.104c.843.728 1.7 1.142 2.783 1.142.957 0 1.561-.452 1.561-1.104v-.025c0-.627-.353-.966-1.99-1.342-1.876-.451-2.933-1.003-2.933-2.621v-.025c0-1.505 1.259-2.546 3.009-2.546 1.284 0 2.304.389 3.198 1.104l-.83 1.166c-.794-.59-1.587-.903-2.393-.903-.907 0-1.436.464-1.436 1.041v.025c0 .677.403.978 2.103 1.38 1.864.451 2.82 1.116 2.82 2.57v.026c0 1.642-1.296 2.62-3.147 2.62zm-6.955-.116V3.311h1.549v8.788zM6.497 4.717H4.759v5.966h1.738c1.85 0 3.06-1.241 3.06-2.958V7.7c0-1.717-1.21-2.983-3.06-2.983zM3.21 12.099V3.311h3.287c2.77 0 4.684 1.895 4.684 4.369v.025c0 2.473-1.914 4.394-4.684 4.394z" mask="url(&quot;#sllmd&quot;)"/><path d="M74.919 12.099V3.311h1.435l4.722 6.076V3.311H82.6v8.788h-1.297l-4.86-6.252v6.252zm-6.439-1.28c1.75 0 2.972-1.382 2.972-3.09v-.024c0-1.708-1.247-3.126-2.997-3.126-1.75 0-2.972 1.393-2.972 3.1v.026c0 1.707 1.247 3.113 2.997 3.113zm-.025 1.43c-2.707 0-4.596-2.046-4.596-4.52v-.024c0-2.473 1.914-4.545 4.621-4.545 2.707 0 4.596 2.046 4.596 4.52v.025c0 2.473-1.914 4.545-4.621 4.545zm-8.075-.15V3.311h1.548v8.788zm-6.048 0V4.742h-2.796V3.31h7.152v1.43h-2.795V12.1zm-9.65-4.432h2.267c1.108 0 1.813-.577 1.813-1.469v-.025c0-.941-.68-1.456-1.826-1.456h-2.254zM43.133 12.1V3.311h3.934c1.11 0 1.98.326 2.547.878.467.478.732 1.13.732 1.896v.025c0 1.444-.87 2.31-2.093 2.662l2.383 3.327h-1.841l-2.169-3.063h-1.942v3.063zm-6.438-1.28c1.75 0 2.972-1.382 2.972-3.09v-.024c0-1.708-1.247-3.126-2.997-3.126-1.75 0-2.972 1.393-2.972 3.1v.026c0 1.707 1.247 3.113 2.997 3.113zm-.025 1.43c-2.707 0-4.596-2.046-4.596-4.52v-.024c0-2.473 1.914-4.545 4.621-4.545 2.707 0 4.596 2.046 4.596 4.52v.025c0 2.473-1.914 4.545-4.621 4.545zm-9.687-.15V4.742h-2.796V3.31h7.153v1.43h-2.796V12.1zm-6.917.116a5.442 5.442 0 0 1-3.677-1.405l.932-1.104c.843.728 1.7 1.142 2.783 1.142.957 0 1.561-.452 1.561-1.104v-.025c0-.627-.353-.966-1.99-1.342-1.876-.451-2.933-1.003-2.933-2.621v-.025c0-1.505 1.259-2.546 3.009-2.546 1.284 0 2.304.389 3.198 1.104l-.83 1.166c-.794-.59-1.587-.903-2.393-.903-.907 0-1.436.464-1.436 1.041v.025c0 .677.403.978 2.103 1.38 1.864.451 2.82 1.116 2.82 2.57v.026c0 1.642-1.296 2.62-3.147 2.62zm-6.955-.116V3.311h1.549v8.788zM6.497 4.717H4.759v5.966h1.738c1.85 0 3.06-1.241 3.06-2.958V7.7c0-1.717-1.21-2.983-3.06-2.983zM3.21 12.099V3.311h3.287c2.77 0 4.684 1.895 4.684 4.369v.025c0 2.473-1.914 4.394-4.684 4.394z"/></g><path fill="#d5d5d5" d="M74.919 12.099V3.311h1.435l4.722 6.076V3.311H82.6v8.788h-1.297l-4.86-6.252v6.252zm-6.439-1.28c1.75 0 2.972-1.382 2.972-3.09v-.024c0-1.708-1.247-3.126-2.997-3.126-1.75 0-2.972 1.393-2.972 3.1v.026c0 1.707 1.247 3.113 2.997 3.113zm-.025 1.43c-2.707 0-4.596-2.046-4.596-4.52v-.024c0-2.473 1.914-4.545 4.621-4.545 2.707 0 4.596 2.046 4.596 4.52v.025c0 2.473-1.914 4.545-4.621 4.545zm-8.075-.15V3.311h1.548v8.788zm-6.048 0V4.742h-2.796V3.31h7.152v1.43h-2.795V12.1zm-9.65-4.432h2.267c1.108 0 1.813-.577 1.813-1.469v-.025c0-.941-.68-1.456-1.826-1.456h-2.254zM43.133 12.1V3.311h3.934c1.11 0 1.98.326 2.547.878.467.478.732 1.13.732 1.896v.025c0 1.444-.87 2.31-2.093 2.662l2.383 3.327h-1.841l-2.169-3.063h-1.942v3.063zm-6.438-1.28c1.75 0 2.972-1.382 2.972-3.09v-.024c0-1.708-1.247-3.126-2.997-3.126-1.75 0-2.972 1.393-2.972 3.1v.026c0 1.707 1.247 3.113 2.997 3.113zm-.025 1.43c-2.707 0-4.596-2.046-4.596-4.52v-.024c0-2.473 1.914-4.545 4.621-4.545 2.707 0 4.596 2.046 4.596 4.52v.025c0 2.473-1.914 4.545-4.621 4.545zm-9.687-.15V4.742h-2.796V3.31h7.153v1.43h-2.796V12.1zm-6.917.116a5.442 5.442 0 0 1-3.677-1.405l.932-1.104c.843.728 1.7 1.142 2.783 1.142.957 0 1.561-.452 1.561-1.104v-.025c0-.627-.353-.966-1.99-1.342-1.876-.451-2.933-1.003-2.933-2.621v-.025c0-1.505 1.259-2.546 3.009-2.546 1.284 0 2.304.389 3.198 1.104l-.83 1.166c-.794-.59-1.587-.903-2.393-.903-.907 0-1.436.464-1.436 1.041v.025c0 .677.403.978 2.103 1.38 1.864.451 2.82 1.116 2.82 2.57v.026c0 1.642-1.296 2.62-3.147 2.62zm-6.955-.116V3.311h1.549v8.788zM6.497 4.717H4.759v5.966h1.738c1.85 0 3.06-1.241 3.06-2.958V7.7c0-1.717-1.21-2.983-3.06-2.983zM3.21 12.099V3.311h3.287c2.77 0 4.684 1.895 4.684 4.369v.025c0 2.473-1.914 4.394-4.684 4.394z"/><path fill-opacity=".5" d="M2 14.5v-13h82v13zm74.442-2.901V5.347l4.86 6.252H82.6V2.811h-1.524v6.076l-4.722-6.076h-1.435v8.788zM65.483 7.205V7.18c0-1.708 1.222-3.101 2.972-3.101s2.997 1.418 2.997 3.126v.025c0 1.707-1.222 3.088-2.972 3.088s-2.997-1.406-2.997-3.113zm7.593 0V7.18c0-2.474-1.889-4.52-4.596-4.52S63.86 4.732 63.86 7.205v.025c0 2.473 1.889 4.52 4.596 4.52s4.621-2.072 4.621-4.545zm-11.148 4.394V2.811H60.38v8.788zm-6.035 0V4.242h2.795V2.81h-7.152v1.43h2.796V11.6zm-11.21-7.382h2.253c1.146 0 1.826.515 1.826 1.456v.025c0 .892-.705 1.47-1.813 1.47h-2.267zm.001 7.382V8.536h1.942l2.169 3.063h1.84l-2.382-3.327c1.223-.352 2.093-1.218 2.093-2.662v-.025c0-.766-.265-1.418-.732-1.896-.567-.552-1.437-.878-2.547-.878h-3.934v8.788zM33.698 7.205V7.18c0-1.708 1.222-3.101 2.972-3.101s2.997 1.418 2.997 3.126v.025c0 1.707-1.222 3.088-2.972 3.088s-2.997-1.406-2.997-3.113zm7.593 0V7.18c0-2.474-1.889-4.52-4.596-4.52s-4.621 2.072-4.621 4.545v.025c0 2.473 1.889 4.52 4.596 4.52s4.621-2.072 4.621-4.545zm-12.747 4.394V4.242h2.796V2.81h-7.153v1.43h2.796V11.6zm-8.478.116c1.85 0 3.148-.979 3.148-2.622v-.025c0-1.454-.957-2.119-2.82-2.57-1.7-.402-2.104-.703-2.104-1.38v-.025c0-.577.53-1.04 1.436-1.04.806 0 1.599.313 2.392.902l.831-1.166c-.894-.715-1.914-1.104-3.198-1.104-1.75 0-3.01 1.041-3.01 2.546v.025c0 1.618 1.058 2.17 2.934 2.621 1.637.376 1.99.715 1.99 1.342v.025c0 .652-.604 1.104-1.561 1.104-1.083 0-1.94-.414-2.783-1.142l-.932 1.104a5.442 5.442 0 0 0 3.677 1.405zm-5.406-.116V2.811h-1.549v8.788zm-5.104-4.4v.026c0 1.717-1.208 2.958-3.06 2.958H4.76V4.217h1.738c1.85 0 3.06 1.266 3.06 2.983zm-3.06 4.4c2.77 0 4.685-1.92 4.685-4.394V7.18c0-2.474-1.914-4.37-4.684-4.37H3.21V11.6z" filter="url(#sllme)" mask="url(&quot;#sllmf&quot;)"/></g></g></svg>