<svg xmlns="http://www.w3.org/2000/svg" width="5" height="60" viewBox="0 0 5 60"><g><g><path fill="#464646" d="M0 .5A.5.5 0 0 1 .5 0h4a.5.5 0 0 1 .5.5v1a.5.5 0 0 1-.5.5h-4a.5.5 0 0 1-.5-.5z"/></g><g><path fill="#464646" d="M0 6h5v1H0z"/></g><g><path fill="#464646" d="M0 12h5v1H0z"/></g><g><path fill="#464646" d="M0 18h5v1H0z"/></g><g><path fill="#464646" d="M0 58.5a.5.5 0 0 1 .5-.5h4a.5.5 0 0 1 .5.5v1a.5.5 0 0 1-.5.5h-4a.5.5 0 0 1-.5-.5z"/></g><g><path fill="#464646" d="M0 24h5v1H0z"/></g><g><path fill="#464646" d="M0 29.5a.5.5 0 0 1 .5-.5h4a.5.5 0 0 1 .5.5v1a.5.5 0 0 1-.5.5h-4a.5.5 0 0 1-.5-.5z"/></g><g><path fill="#464646" d="M0 35h5v1H0z"/></g><g><path fill="#464646" d="M0 41h5v1H0z"/></g><g><path fill="#464646" d="M0 47h5v1H0z"/></g><g><path fill="#464646" d="M0 53h5v1H0z"/></g></g></svg>