<svg xmlns="http://www.w3.org/2000/svg" width="12" height="12" viewBox="0 0 12 12"><g><g><path fill="#b4b6c6" d="M7.302 6.102c-.3.306-.516.582-.624 1.014A2.752 2.752 0 0 0 6.6 7.8H5.4v-.3a2.398 2.398 0 0 1 .702-1.698l.744-.756c.276-.264.408-.66.33-1.08a1.194 1.194 0 0 0-.834-.918 1.21 1.21 0 0 0-1.482.762c-.072.222-.258.39-.492.39h-.18a.52.52 0 0 1-.492-.672A2.405 2.405 0 0 1 5.634 1.83c.912-.144 1.782.33 2.322 1.08.708.978.498 2.028-.114 2.64zM6.6 10.2H5.4V9h1.2zM6 0C2.688 0 0 2.688 0 6s2.688 6 6 6 6-2.688 6-6-2.688-6-6-6z"/></g></g></svg>