<svg xmlns="http://www.w3.org/2000/svg" width="49" height="15" viewBox="0 0 49 15"><defs><mask id="wsvib" width="2" height="2" x="-1" y="-1"><path fill="#fff" d="M3 3h43v9H3z"/><path d="M40.002 7.518h2.274c1.111 0 1.818-.575 1.818-1.463V6.03c0-.937-.682-1.45-1.831-1.45h-2.26zm-1.55 4.454V3.17h3.937c1.11 0 1.98.327 2.548.88.467.478.732 1.132.732 1.899v.025c0 1.446-.87 2.314-2.094 2.666l2.384 3.332h-1.842l-2.17-3.068h-1.943v3.068zm-8.406 0V3.17h6.558v1.383H31.6v2.289h4.435v1.383H31.6v2.364h5.067v1.383zm-5.96 0V4.604h-2.8V3.17h7.166v1.434H25.65v7.368zm-8.675 0V3.17h1.552v7.394h4.644v1.408zm-3.872 0V3.17h1.56v8.802zm-8.319 0V3.17h6.574v1.408H4.772V6.98h4.454V8.39H4.772v3.583z"/></mask><filter id="wsvia" width="69" height="35" x="-10" y="-10" filterUnits="userSpaceOnUse"><feOffset in="SourceGraphic" result="FeOffset1095Out"/><feGaussianBlur in="FeOffset1095Out" result="FeGaussianBlur1096Out" stdDeviation="1.2 1.2"/></filter><mask id="wsvid" width="2" height="2" x="-1" y="-1"><path fill="#fff" d="M3 3h43v9H3z"/><path d="M40.002 7.518h2.274c1.111 0 1.818-.575 1.818-1.463V6.03c0-.937-.682-1.45-1.831-1.45h-2.26zm-1.55 4.454V3.17h3.937c1.11 0 1.98.327 2.548.88.467.478.732 1.132.732 1.899v.025c0 1.446-.87 2.314-2.094 2.666l2.384 3.332h-1.842l-2.17-3.068h-1.943v3.068zm-8.406 0V3.17h6.558v1.383H31.6v2.289h4.435v1.383H31.6v2.364h5.067v1.383zm-5.96 0V4.604h-2.8V3.17h7.166v1.434H25.65v7.368zm-8.675 0V3.17h1.552v7.394h4.644v1.408zm-3.872 0V3.17h1.56v8.802zm-8.319 0V3.17h6.574v1.408H4.772V6.98h4.454V8.39H4.772v3.583z"/></mask><filter id="wsvic" width="65" height="31" x="-8" y="-8" filterUnits="userSpaceOnUse"><feOffset in="SourceGraphic" result="FeOffset1106Out"/><feGaussianBlur in="FeOffset1106Out" result="FeGaussianBlur1107Out" stdDeviation="0.4 0.4"/></filter><filter id="wsvie" width="200%" height="200%" x="-50%" y="-50%"><feGaussianBlur in="SourceGraphic" result="FeGaussianBlur1112Out" stdDeviation="0.5 0.5"/></filter><mask id="wsvif"><path fill="#fff" d="M40.002 7.518h2.274c1.111 0 1.818-.575 1.818-1.463V6.03c0-.937-.682-1.45-1.831-1.45h-2.26zm-1.55 4.454V3.17h3.937c1.11 0 1.98.327 2.548.88.467.478.732 1.132.732 1.899v.025c0 1.446-.87 2.314-2.094 2.666l2.384 3.332h-1.842l-2.17-3.068h-1.943v3.068zm-8.406 0V3.17h6.558v1.383H31.6v2.289h4.435v1.383H31.6v2.364h5.067v1.383zm-5.96 0V4.604h-2.8V3.17h7.166v1.434H25.65v7.368zm-8.675 0V3.17h1.552v7.394h4.644v1.408zm-3.872 0V3.17h1.56v8.802zm-8.319 0V3.17h6.574v1.408H4.772V6.98h4.454V8.39H4.772v3.583z"/></mask></defs><g><g><g filter="url(#wsvia)"><path fill="none" d="M40.002 7.518h2.274c1.111 0 1.818-.575 1.818-1.463V6.03c0-.937-.682-1.45-1.831-1.45h-2.26zm-1.55 4.454V3.17h3.937c1.11 0 1.98.327 2.548.88.467.478.732 1.132.732 1.899v.025c0 1.446-.87 2.314-2.094 2.666l2.384 3.332h-1.842l-2.17-3.068h-1.943v3.068zm-8.406 0V3.17h6.558v1.383H31.6v2.289h4.435v1.383H31.6v2.364h5.067v1.383zm-5.96 0V4.604h-2.8V3.17h7.166v1.434H25.65v7.368zm-8.675 0V3.17h1.552v7.394h4.644v1.408zm-3.872 0V3.17h1.56v8.802zm-8.319 0V3.17h6.574v1.408H4.772V6.98h4.454V8.39H4.772v3.583z" mask="url(&quot;#wsvib&quot;)"/><path d="M40.002 7.518h2.274c1.111 0 1.818-.575 1.818-1.463V6.03c0-.937-.682-1.45-1.831-1.45h-2.26zm-1.55 4.454V3.17h3.937c1.11 0 1.98.327 2.548.88.467.478.732 1.132.732 1.899v.025c0 1.446-.87 2.314-2.094 2.666l2.384 3.332h-1.842l-2.17-3.068h-1.943v3.068zm-8.406 0V3.17h6.558v1.383H31.6v2.289h4.435v1.383H31.6v2.364h5.067v1.383zm-5.96 0V4.604h-2.8V3.17h7.166v1.434H25.65v7.368zm-8.675 0V3.17h1.552v7.394h4.644v1.408zm-3.872 0V3.17h1.56v8.802zm-8.319 0V3.17h6.574v1.408H4.772V6.98h4.454V8.39H4.772v3.583z"/></g><g filter="url(#wsvic)"><path fill="none" d="M40.002 7.518h2.274c1.111 0 1.818-.575 1.818-1.463V6.03c0-.937-.682-1.45-1.831-1.45h-2.26zm-1.55 4.454V3.17h3.937c1.11 0 1.98.327 2.548.88.467.478.732 1.132.732 1.899v.025c0 1.446-.87 2.314-2.094 2.666l2.384 3.332h-1.842l-2.17-3.068h-1.943v3.068zm-8.406 0V3.17h6.558v1.383H31.6v2.289h4.435v1.383H31.6v2.364h5.067v1.383zm-5.96 0V4.604h-2.8V3.17h7.166v1.434H25.65v7.368zm-8.675 0V3.17h1.552v7.394h4.644v1.408zm-3.872 0V3.17h1.56v8.802zm-8.319 0V3.17h6.574v1.408H4.772V6.98h4.454V8.39H4.772v3.583z" mask="url(&quot;#wsvid&quot;)"/><path d="M40.002 7.518h2.274c1.111 0 1.818-.575 1.818-1.463V6.03c0-.937-.682-1.45-1.831-1.45h-2.26zm-1.55 4.454V3.17h3.937c1.11 0 1.98.327 2.548.88.467.478.732 1.132.732 1.899v.025c0 1.446-.87 2.314-2.094 2.666l2.384 3.332h-1.842l-2.17-3.068h-1.943v3.068zm-8.406 0V3.17h6.558v1.383H31.6v2.289h4.435v1.383H31.6v2.364h5.067v1.383zm-5.96 0V4.604h-2.8V3.17h7.166v1.434H25.65v7.368zm-8.675 0V3.17h1.552v7.394h4.644v1.408zm-3.872 0V3.17h1.56v8.802zm-8.319 0V3.17h6.574v1.408H4.772V6.98h4.454V8.39H4.772v3.583z"/></g><path fill="#d5d5d5" d="M40.002 7.518h2.274c1.111 0 1.818-.575 1.818-1.463V6.03c0-.937-.682-1.45-1.831-1.45h-2.26zm-1.55 4.454V3.17h3.937c1.11 0 1.98.327 2.548.88.467.478.732 1.132.732 1.899v.025c0 1.446-.87 2.314-2.094 2.666l2.384 3.332h-1.842l-2.17-3.068h-1.943v3.068zm-8.406 0V3.17h6.558v1.383H31.6v2.289h4.435v1.383H31.6v2.364h5.067v1.383zm-5.96 0V4.604h-2.8V3.17h7.166v1.434H25.65v7.368zm-8.675 0V3.17h1.552v7.394h4.644v1.408zm-3.872 0V3.17h1.56v8.802zm-8.319 0V3.17h6.574v1.408H4.772V6.98h4.454V8.39H4.772v3.583z"/><path fill-opacity=".5" d="M2 13.5v-12h45v12zm38.002-9.42h2.261c1.15 0 1.831.513 1.831 1.45v.025c0 .888-.707 1.463-1.818 1.463h-2.274zm.002 7.392V8.404h1.943l2.17 3.068h1.842L43.575 8.14c1.223-.352 2.094-1.22 2.094-2.666V5.45c0-.767-.265-1.42-.732-1.899-.568-.553-1.438-.88-2.548-.88h-3.936v8.802zm-3.337 0V10.09H31.6V7.725h4.435V6.342H31.6V4.053h5.004V2.67h-6.559v8.802zm-11.016 0V4.104h2.8V2.67h-7.165v1.434h2.8v7.368zm-4.044 0v-1.408h-4.644V2.67H15.41v8.802zm-8.508 0V2.67h-1.56v8.802zm-8.327 0V7.89h4.454V6.48H4.772V4.078h5.022V2.67H3.22v8.802z" filter="url(#wsvie)" mask="url(&quot;#wsvif&quot;)"/></g></g></svg>