<svg xmlns="http://www.w3.org/2000/svg" width="42" height="16" viewBox="0 0 42 16"><defs><mask id="hof1b" width="2" height="2" x="-1" y="-1"><path fill="#fff" d="M3 3h37v10H3z"/><path d="M33.033 12.315v-1.223l3.045-2.586c1.213-1.034 1.655-1.588 1.655-2.383 0-.87-.619-1.374-1.427-1.374-.809 0-1.365.441-2.034 1.324l-1.112-.87c.846-1.173 1.68-1.841 3.26-1.841 1.73 0 2.918 1.059 2.918 2.635v.025c0 1.387-.733 2.144-2.3 3.418l-1.819 1.513h4.208v1.362zm-9.674-1.293c1.754 0 2.977-1.387 2.977-3.102v-.025c0-1.715-1.249-3.14-3.002-3.14-1.754 0-2.977 1.4-2.977 3.115v.025c0 1.715 1.249 3.127 3.002 3.127zm-.025 1.438c-2.712 0-4.605-2.056-4.605-4.54v-.025c0-2.484 1.918-4.565 4.63-4.565 2.712 0 4.605 2.055 4.605 4.54v.025c0 2.484-1.918 4.565-4.63 4.565zm-12.38-.152V3.481h6.583v1.413H12.51v2.408h4.46v1.413h-4.46v3.593zm-7.774 0V3.481h1.552v7.415h4.642v1.412z"/></mask><filter id="hof1a" width="63" height="36" x="-10" y="-10" filterUnits="userSpaceOnUse"><feOffset in="SourceGraphic" result="FeOffset1023Out"/><feGaussianBlur in="FeOffset1023Out" result="FeGaussianBlur1024Out" stdDeviation="1.2 1.2"/></filter><mask id="hof1d" width="2" height="2" x="-1" y="-1"><path fill="#fff" d="M3 3h37v10H3z"/><path d="M33.033 12.315v-1.223l3.045-2.586c1.213-1.034 1.655-1.588 1.655-2.383 0-.87-.619-1.374-1.427-1.374-.809 0-1.365.441-2.034 1.324l-1.112-.87c.846-1.173 1.68-1.841 3.26-1.841 1.73 0 2.918 1.059 2.918 2.635v.025c0 1.387-.733 2.144-2.3 3.418l-1.819 1.513h4.208v1.362zm-9.674-1.293c1.754 0 2.977-1.387 2.977-3.102v-.025c0-1.715-1.249-3.14-3.002-3.14-1.754 0-2.977 1.4-2.977 3.115v.025c0 1.715 1.249 3.127 3.002 3.127zm-.025 1.438c-2.712 0-4.605-2.056-4.605-4.54v-.025c0-2.484 1.918-4.565 4.63-4.565 2.712 0 4.605 2.055 4.605 4.54v.025c0 2.484-1.918 4.565-4.63 4.565zm-12.38-.152V3.481h6.583v1.413H12.51v2.408h4.46v1.413h-4.46v3.593zm-7.774 0V3.481h1.552v7.415h4.642v1.412z"/></mask><filter id="hof1c" width="59" height="32" x="-8" y="-8" filterUnits="userSpaceOnUse"><feOffset in="SourceGraphic" result="FeOffset1034Out"/><feGaussianBlur in="FeOffset1034Out" result="FeGaussianBlur1035Out" stdDeviation="0.4 0.4"/></filter><filter id="hof1e" width="200%" height="200%" x="-50%" y="-50%"><feGaussianBlur in="SourceGraphic" result="FeGaussianBlur1040Out" stdDeviation="0.5 0.5"/></filter><mask id="hof1f"><path fill="#fff" d="M33.033 12.315v-1.223l3.045-2.586c1.213-1.034 1.655-1.588 1.655-2.383 0-.87-.619-1.374-1.427-1.374-.809 0-1.365.441-2.034 1.324l-1.112-.87c.846-1.173 1.68-1.841 3.26-1.841 1.73 0 2.918 1.059 2.918 2.635v.025c0 1.387-.733 2.144-2.3 3.418l-1.819 1.513h4.208v1.362zm-9.674-1.293c1.754 0 2.977-1.387 2.977-3.102v-.025c0-1.715-1.249-3.14-3.002-3.14-1.754 0-2.977 1.4-2.977 3.115v.025c0 1.715 1.249 3.127 3.002 3.127zm-.025 1.438c-2.712 0-4.605-2.056-4.605-4.54v-.025c0-2.484 1.918-4.565 4.63-4.565 2.712 0 4.605 2.055 4.605 4.54v.025c0 2.484-1.918 4.565-4.63 4.565zm-12.38-.152V3.481h6.583v1.413H12.51v2.408h4.46v1.413h-4.46v3.593zm-7.774 0V3.481h1.552v7.415h4.642v1.412z"/></mask></defs><g><g><g filter="url(#hof1a)"><path fill="none" d="M33.033 12.315v-1.223l3.045-2.586c1.213-1.034 1.655-1.588 1.655-2.383 0-.87-.619-1.374-1.427-1.374-.809 0-1.365.441-2.034 1.324l-1.112-.87c.846-1.173 1.68-1.841 3.26-1.841 1.73 0 2.918 1.059 2.918 2.635v.025c0 1.387-.733 2.144-2.3 3.418l-1.819 1.513h4.208v1.362zm-9.674-1.293c1.754 0 2.977-1.387 2.977-3.102v-.025c0-1.715-1.249-3.14-3.002-3.14-1.754 0-2.977 1.4-2.977 3.115v.025c0 1.715 1.249 3.127 3.002 3.127zm-.025 1.438c-2.712 0-4.605-2.056-4.605-4.54v-.025c0-2.484 1.918-4.565 4.63-4.565 2.712 0 4.605 2.055 4.605 4.54v.025c0 2.484-1.918 4.565-4.63 4.565zm-12.38-.152V3.481h6.583v1.413H12.51v2.408h4.46v1.413h-4.46v3.593zm-7.774 0V3.481h1.552v7.415h4.642v1.412z" mask="url(&quot;#hof1b&quot;)"/><path d="M33.033 12.315v-1.223l3.045-2.586c1.213-1.034 1.655-1.588 1.655-2.383 0-.87-.619-1.374-1.427-1.374-.809 0-1.365.441-2.034 1.324l-1.112-.87c.846-1.173 1.68-1.841 3.26-1.841 1.73 0 2.918 1.059 2.918 2.635v.025c0 1.387-.733 2.144-2.3 3.418l-1.819 1.513h4.208v1.362zm-9.674-1.293c1.754 0 2.977-1.387 2.977-3.102v-.025c0-1.715-1.249-3.14-3.002-3.14-1.754 0-2.977 1.4-2.977 3.115v.025c0 1.715 1.249 3.127 3.002 3.127zm-.025 1.438c-2.712 0-4.605-2.056-4.605-4.54v-.025c0-2.484 1.918-4.565 4.63-4.565 2.712 0 4.605 2.055 4.605 4.54v.025c0 2.484-1.918 4.565-4.63 4.565zm-12.38-.152V3.481h6.583v1.413H12.51v2.408h4.46v1.413h-4.46v3.593zm-7.774 0V3.481h1.552v7.415h4.642v1.412z"/></g><g filter="url(#hof1c)"><path fill="none" d="M33.033 12.315v-1.223l3.045-2.586c1.213-1.034 1.655-1.588 1.655-2.383 0-.87-.619-1.374-1.427-1.374-.809 0-1.365.441-2.034 1.324l-1.112-.87c.846-1.173 1.68-1.841 3.26-1.841 1.73 0 2.918 1.059 2.918 2.635v.025c0 1.387-.733 2.144-2.3 3.418l-1.819 1.513h4.208v1.362zm-9.674-1.293c1.754 0 2.977-1.387 2.977-3.102v-.025c0-1.715-1.249-3.14-3.002-3.14-1.754 0-2.977 1.4-2.977 3.115v.025c0 1.715 1.249 3.127 3.002 3.127zm-.025 1.438c-2.712 0-4.605-2.056-4.605-4.54v-.025c0-2.484 1.918-4.565 4.63-4.565 2.712 0 4.605 2.055 4.605 4.54v.025c0 2.484-1.918 4.565-4.63 4.565zm-12.38-.152V3.481h6.583v1.413H12.51v2.408h4.46v1.413h-4.46v3.593zm-7.774 0V3.481h1.552v7.415h4.642v1.412z" mask="url(&quot;#hof1d&quot;)"/><path d="M33.033 12.315v-1.223l3.045-2.586c1.213-1.034 1.655-1.588 1.655-2.383 0-.87-.619-1.374-1.427-1.374-.809 0-1.365.441-2.034 1.324l-1.112-.87c.846-1.173 1.68-1.841 3.26-1.841 1.73 0 2.918 1.059 2.918 2.635v.025c0 1.387-.733 2.144-2.3 3.418l-1.819 1.513h4.208v1.362zm-9.674-1.293c1.754 0 2.977-1.387 2.977-3.102v-.025c0-1.715-1.249-3.14-3.002-3.14-1.754 0-2.977 1.4-2.977 3.115v.025c0 1.715 1.249 3.127 3.002 3.127zm-.025 1.438c-2.712 0-4.605-2.056-4.605-4.54v-.025c0-2.484 1.918-4.565 4.63-4.565 2.712 0 4.605 2.055 4.605 4.54v.025c0 2.484-1.918 4.565-4.63 4.565zm-12.38-.152V3.481h6.583v1.413H12.51v2.408h4.46v1.413h-4.46v3.593zm-7.774 0V3.481h1.552v7.415h4.642v1.412z"/></g><path fill="#d5d5d5" d="M33.033 12.315v-1.223l3.045-2.586c1.213-1.034 1.655-1.588 1.655-2.383 0-.87-.619-1.374-1.427-1.374-.809 0-1.365.441-2.034 1.324l-1.112-.87c.846-1.173 1.68-1.841 3.26-1.841 1.73 0 2.918 1.059 2.918 2.635v.025c0 1.387-.733 2.144-2.3 3.418l-1.819 1.513h4.208v1.362zm-9.674-1.293c1.754 0 2.977-1.387 2.977-3.102v-.025c0-1.715-1.249-3.14-3.002-3.14-1.754 0-2.977 1.4-2.977 3.115v.025c0 1.715 1.249 3.127 3.002 3.127zm-.025 1.438c-2.712 0-4.605-2.056-4.605-4.54v-.025c0-2.484 1.918-4.565 4.63-4.565 2.712 0 4.605 2.055 4.605 4.54v.025c0 2.484-1.918 4.565-4.63 4.565zm-12.38-.152V3.481h6.583v1.413H12.51v2.408h4.46v1.413h-4.46v3.593zm-7.774 0V3.481h1.552v7.415h4.642v1.412z"/><path fill-opacity=".5" d="M2 14.5v-13h39v13zm37.427-2.685v-1.362h-4.208l1.82-1.513c1.566-1.274 2.3-2.03 2.3-3.418v-.025c0-1.576-1.189-2.635-2.92-2.635-1.579 0-2.413.668-3.26 1.84l1.113.87c.67-.882 1.225-1.323 2.034-1.323.808 0 1.427.504 1.427 1.374 0 .795-.442 1.35-1.655 2.383l-3.045 2.586v1.223zm-19.07-4.42V7.37c0-1.715 1.223-3.115 2.977-3.115 1.753 0 3.002 1.425 3.002 3.14v.025c0 1.715-1.223 3.102-2.977 3.102-1.753 0-3.002-1.412-3.002-3.127zm7.607 0V7.37c0-2.485-1.893-4.54-4.605-4.54-2.712 0-4.63 2.08-4.63 4.565v.025c0 2.484 1.893 4.54 4.605 4.54 2.712 0 4.63-2.08 4.63-4.565zm-15.455 4.413V8.215h4.46V6.802h-4.46V4.394h5.028V2.98h-6.582v8.827zm-3.135 0v-1.412H4.732V2.981H3.18v8.827z" filter="url(#hof1e)" mask="url(&quot;#hof1f&quot;)"/></g></g></svg>