<svg xmlns="http://www.w3.org/2000/svg" width="39" height="15" viewBox="0 0 39 15"><defs><mask id="6tp7b" width="2" height="2" x="-1" y="-1"><path fill="#fff" d="M3 3h34v10H3z"/><path d="M34.67 12.198V4.885l-1.59.44-.328-1.26 2.385-.757h1.072v8.89zm-11.31-1.286c1.753 0 2.976-1.387 2.976-3.102v-.025c0-1.715-1.249-3.14-3.002-3.14-1.754 0-2.977 1.4-2.977 3.115v.025c0 1.715 1.249 3.127 3.002 3.127zm-.026 1.438c-2.712 0-4.605-2.056-4.605-4.54v-.025c0-2.484 1.918-4.565 4.63-4.565 2.712 0 4.605 2.055 4.605 4.54v.025c0 2.484-1.918 4.565-4.63 4.565zm-12.38-.152V3.371h6.583v1.413H12.51v2.408h4.46v1.413h-4.46v3.593zm-7.774 0V3.371h1.552v7.415h4.642v1.412z"/></mask><filter id="6tp7a" width="60" height="36" x="-10" y="-10" filterUnits="userSpaceOnUse"><feOffset in="SourceGraphic" result="FeOffset1285Out"/><feGaussianBlur in="FeOffset1285Out" result="FeGaussianBlur1286Out" stdDeviation="1.2 1.2"/></filter><mask id="6tp7d" width="2" height="2" x="-1" y="-1"><path fill="#fff" d="M3 3h34v10H3z"/><path d="M34.67 12.198V4.885l-1.59.44-.328-1.26 2.385-.757h1.072v8.89zm-11.31-1.286c1.753 0 2.976-1.387 2.976-3.102v-.025c0-1.715-1.249-3.14-3.002-3.14-1.754 0-2.977 1.4-2.977 3.115v.025c0 1.715 1.249 3.127 3.002 3.127zm-.026 1.438c-2.712 0-4.605-2.056-4.605-4.54v-.025c0-2.484 1.918-4.565 4.63-4.565 2.712 0 4.605 2.055 4.605 4.54v.025c0 2.484-1.918 4.565-4.63 4.565zm-12.38-.152V3.371h6.583v1.413H12.51v2.408h4.46v1.413h-4.46v3.593zm-7.774 0V3.371h1.552v7.415h4.642v1.412z"/></mask><filter id="6tp7c" width="56" height="32" x="-8" y="-8" filterUnits="userSpaceOnUse"><feOffset in="SourceGraphic" result="FeOffset1296Out"/><feGaussianBlur in="FeOffset1296Out" result="FeGaussianBlur1297Out" stdDeviation="0.4 0.4"/></filter><filter id="6tp7e" width="200%" height="200%" x="-50%" y="-50%"><feGaussianBlur in="SourceGraphic" result="FeGaussianBlur1302Out" stdDeviation="0.5 0.5"/></filter><mask id="6tp7f"><path fill="#fff" d="M34.67 12.198V4.885l-1.59.44-.328-1.26 2.385-.757h1.072v8.89zm-11.31-1.286c1.753 0 2.976-1.387 2.976-3.102v-.025c0-1.715-1.249-3.14-3.002-3.14-1.754 0-2.977 1.4-2.977 3.115v.025c0 1.715 1.249 3.127 3.002 3.127zm-.026 1.438c-2.712 0-4.605-2.056-4.605-4.54v-.025c0-2.484 1.918-4.565 4.63-4.565 2.712 0 4.605 2.055 4.605 4.54v.025c0 2.484-1.918 4.565-4.63 4.565zm-12.38-.152V3.371h6.583v1.413H12.51v2.408h4.46v1.413h-4.46v3.593zm-7.774 0V3.371h1.552v7.415h4.642v1.412z"/></mask></defs><g><g><g filter="url(#6tp7a)"><path fill="none" d="M34.67 12.198V4.885l-1.59.44-.328-1.26 2.385-.757h1.072v8.89zm-11.31-1.286c1.753 0 2.976-1.387 2.976-3.102v-.025c0-1.715-1.249-3.14-3.002-3.14-1.754 0-2.977 1.4-2.977 3.115v.025c0 1.715 1.249 3.127 3.002 3.127zm-.026 1.438c-2.712 0-4.605-2.056-4.605-4.54v-.025c0-2.484 1.918-4.565 4.63-4.565 2.712 0 4.605 2.055 4.605 4.54v.025c0 2.484-1.918 4.565-4.63 4.565zm-12.38-.152V3.371h6.583v1.413H12.51v2.408h4.46v1.413h-4.46v3.593zm-7.774 0V3.371h1.552v7.415h4.642v1.412z" mask="url(&quot;#6tp7b&quot;)"/><path d="M34.67 12.198V4.885l-1.59.44-.328-1.26 2.385-.757h1.072v8.89zm-11.31-1.286c1.753 0 2.976-1.387 2.976-3.102v-.025c0-1.715-1.249-3.14-3.002-3.14-1.754 0-2.977 1.4-2.977 3.115v.025c0 1.715 1.249 3.127 3.002 3.127zm-.026 1.438c-2.712 0-4.605-2.056-4.605-4.54v-.025c0-2.484 1.918-4.565 4.63-4.565 2.712 0 4.605 2.055 4.605 4.54v.025c0 2.484-1.918 4.565-4.63 4.565zm-12.38-.152V3.371h6.583v1.413H12.51v2.408h4.46v1.413h-4.46v3.593zm-7.774 0V3.371h1.552v7.415h4.642v1.412z"/></g><g filter="url(#6tp7c)"><path fill="none" d="M34.67 12.198V4.885l-1.59.44-.328-1.26 2.385-.757h1.072v8.89zm-11.31-1.286c1.753 0 2.976-1.387 2.976-3.102v-.025c0-1.715-1.249-3.14-3.002-3.14-1.754 0-2.977 1.4-2.977 3.115v.025c0 1.715 1.249 3.127 3.002 3.127zm-.026 1.438c-2.712 0-4.605-2.056-4.605-4.54v-.025c0-2.484 1.918-4.565 4.63-4.565 2.712 0 4.605 2.055 4.605 4.54v.025c0 2.484-1.918 4.565-4.63 4.565zm-12.38-.152V3.371h6.583v1.413H12.51v2.408h4.46v1.413h-4.46v3.593zm-7.774 0V3.371h1.552v7.415h4.642v1.412z" mask="url(&quot;#6tp7d&quot;)"/><path d="M34.67 12.198V4.885l-1.59.44-.328-1.26 2.385-.757h1.072v8.89zm-11.31-1.286c1.753 0 2.976-1.387 2.976-3.102v-.025c0-1.715-1.249-3.14-3.002-3.14-1.754 0-2.977 1.4-2.977 3.115v.025c0 1.715 1.249 3.127 3.002 3.127zm-.026 1.438c-2.712 0-4.605-2.056-4.605-4.54v-.025c0-2.484 1.918-4.565 4.63-4.565 2.712 0 4.605 2.055 4.605 4.54v.025c0 2.484-1.918 4.565-4.63 4.565zm-12.38-.152V3.371h6.583v1.413H12.51v2.408h4.46v1.413h-4.46v3.593zm-7.774 0V3.371h1.552v7.415h4.642v1.412z"/></g><path fill="#d5d5d5" d="M34.67 12.198V4.885l-1.59.44-.328-1.26 2.385-.757h1.072v8.89zm-11.31-1.286c1.753 0 2.976-1.387 2.976-3.102v-.025c0-1.715-1.249-3.14-3.002-3.14-1.754 0-2.977 1.4-2.977 3.115v.025c0 1.715 1.249 3.127 3.002 3.127zm-.026 1.438c-2.712 0-4.605-2.056-4.605-4.54v-.025c0-2.484 1.918-4.565 4.63-4.565 2.712 0 4.605 2.055 4.605 4.54v.025c0 2.484-1.918 4.565-4.63 4.565zm-12.38-.152V3.371h6.583v1.413H12.51v2.408h4.46v1.413h-4.46v3.593zm-7.774 0V3.371h1.552v7.415h4.642v1.412z"/><path fill-opacity=".5" d="M2 14.5v-13h36v13zm34.209-2.802v-8.89h-1.072l-2.385.757.328 1.26 1.59-.44v7.313zM20.357 7.285V7.26c0-1.715 1.223-3.115 2.977-3.115 1.753 0 3.002 1.425 3.002 3.14v.025c0 1.715-1.223 3.102-2.977 3.102-1.753 0-3.002-1.412-3.002-3.127zm7.607 0V7.26c0-2.485-1.893-4.54-4.605-4.54-2.712 0-4.63 2.08-4.63 4.565v.025c0 2.484 1.893 4.54 4.605 4.54 2.712 0 4.63-2.08 4.63-4.565zm-15.455 4.413V8.105h4.46V6.692h-4.46V4.284h5.028V2.87h-6.582v8.827zm-3.135 0v-1.412H4.732V2.871H3.18v8.827z" filter="url(#6tp7e)" mask="url(&quot;#6tp7f&quot;)"/></g></g></svg>