<svg xmlns="http://www.w3.org/2000/svg" width="38" height="17" viewBox="0 0 38 17"><defs><mask id="2u9gc" width="2" height="2" x="-1" y="-1"><path fill="#fff" d="M8 7h22v3H8z"/><path d="M8.58 7.88h20.842v1.25H8.58z"/></mask><filter id="2u9gb" width="48" height="29" x="-5" y="-6" filterUnits="userSpaceOnUse"><feOffset in="SourceGraphic" result="FeOffset1093Out"/><feGaussianBlur in="FeOffset1093Out" result="FeGaussianBlur1094Out" stdDeviation="1.2 1.2"/></filter><filter id="2u9ga" width="164%" height="324%" x="-22%" y="-102%" filterUnits="objectBoundingBox"><feGaussianBlur in="SourceGraphic" result="FeGaussianBlur1097Out" stdDeviation="1.37699747368421 1.37699747368421"/></filter><mask id="2u9gf" width="2" height="2" x="-1" y="-1"><path fill="#fff" d="M8 7h22v3H8z"/><path d="M8.58 7.88h20.842v1.25H8.58z"/></mask><filter id="2u9ge" width="48" height="29" x="-5" y="-6" filterUnits="userSpaceOnUse"><feOffset in="SourceGraphic" result="FeOffset1111Out"/><feGaussianBlur in="FeOffset1111Out" result="FeGaussianBlur1112Out" stdDeviation="1.2 1.2"/></filter><filter id="2u9gd" width="188%" height="492%" x="-34%" y="-186%" filterUnits="objectBoundingBox"><feGaussianBlur in="SourceGraphic" result="FeGaussianBlur1115Out" stdDeviation="2.640155368421053 2.640155368421053"/></filter><mask id="2u9gh" width="2" height="2" x="-1" y="-1"><path fill="#fff" d="M8 7h22v3H8z"/><path d="M8.58 7.88h20.842v1.25H8.58z"/></mask><filter id="2u9gg" width="43" height="24" x="-2.5" y="-3.5" filterUnits="userSpaceOnUse"><feOffset in="SourceGraphic" result="FeOffset1129Out"/><feGaussianBlur in="FeOffset1129Out" result="FeGaussianBlur1130Out" stdDeviation="0.2 0.2"/></filter><filter id="2u9gi" width="200%" height="200%" x="-50%" y="-50%"><feGaussianBlur in="SourceGraphic" result="FeGaussianBlur1135Out" stdDeviation="0.05 0.05"/></filter><mask id="2u9gj"><path fill="#fff" d="M8.58 7.88h20.842v1.25H8.58z"/></mask></defs><g><g filter="url(#2u9ga)"><g filter="url(#2u9gb)"><path fill="none" d="M8.58 7.88h20.842v1.25H8.58z" mask="url(&quot;#2u9gc&quot;)"/><path fill="#db2235" d="M8.58 7.88h20.842v1.25H8.58z"/></g><path fill="#db2235" d="M8.58 7.88h20.842v1.25H8.58z"/></g><g filter="url(#2u9gd)"><g filter="url(#2u9ge)"><path fill="none" d="M8.58 7.88h20.842v1.25H8.58z" mask="url(&quot;#2u9gf&quot;)"/><path fill="#db2235" d="M8.58 7.88h20.842v1.25H8.58z"/></g><path fill="#db2235" d="M8.58 7.88h20.842v1.25H8.58z"/></g><g><g filter="url(#2u9gg)"><path fill="none" d="M8.58 7.88h20.842v1.25H8.58z" mask="url(&quot;#2u9gh&quot;)"/><path fill="#db2235" d="M8.58 7.88h20.842v1.25H8.58z"/></g><path fill="#fff" d="M8.58 7.88h20.842v1.25H8.58z"/><path fill="#db2235" d="M7.9 10.1V6.9h22.2v3.2zm.68-.97h20.842V7.88H8.58z" filter="url(#2u9gi)" mask="url(&quot;#2u9gj&quot;)"/></g></g></svg>