<svg xmlns="http://www.w3.org/2000/svg" width="26" height="26" viewBox="0 0 26 26"><defs><linearGradient id="3exxa" x1="13" x2="13" y1="0" y2="26" gradientUnits="userSpaceOnUse"><stop offset="0" stop-opacity=".7"/><stop offset="1" stop-opacity=".8"/></linearGradient><filter id="3exxb" width="200%" height="200%" x="-50%" y="-50%"><feGaussianBlur in="SourceGraphic" result="FeGaussianBlur1258Out" stdDeviation="1.5 1.5"/></filter><mask id="3exxc"><path fill="#fff" d="M0 3a3 3 0 0 1 3-3h20a3 3 0 0 1 3 3v20a3 3 0 0 1-3 3H3a3 3 0 0 1-3-3z"/></mask><linearGradient id="3exxd" x1="24" x2="-13.32" y1="2" y2="39.87" gradientUnits="userSpaceOnUse"><stop offset="0" stop-color="#da224c"/><stop offset="1" stop-color="#a409ad"/></linearGradient></defs><g><g><path fill="url(#3exxa)" d="M0 3a3 3 0 0 1 3-3h20a3 3 0 0 1 3 3v20a3 3 0 0 1-3 3H3a3 3 0 0 1-3-3z"/><path d="M-3 30V-4h32v34zm3-6a3 3 0 0 0 3 3h20a3 3 0 0 0 3-3V4a3 3 0 0 0-3-3H3a3 3 0 0 0-3 3z" filter="url(#3exxb)" mask="url(&quot;#3exxc&quot;)"/></g><g><path fill="url(#3exxd)" d="M2 4a2 2 0 0 1 2-2h18a2 2 0 0 1 2 2v18a2 2 0 0 1-2 2H4a2 2 0 0 1-2-2v-7.472h19.431A8.56 8.56 0 0 0 4.8 10.556h3.27a5.502 5.502 0 0 1 10.213.917H7.716c0-.004.002-.007.003-.01H4.583l-.002.01H2zm11.005 17.566a8.546 8.546 0 0 0 6.757-3.304l-2.738-1.512a5.5 5.5 0 0 1-8.99-1.382h-3.26a8.564 8.564 0 0 0 8.231 6.198z"/></g></g></svg>