<svg xmlns="http://www.w3.org/2000/svg" width="104" height="34" viewBox="0 0 104 34"><defs><mask id="53s4b" width="2" height="2" x="-1" y="-1"><path fill="#fff" d="M69 8h22v22H69z"/><path d="M69.05 9.437c0-.203.074-.376.221-.516a.754.754 0 0 1 .541-.211c.214 0 .397.068.549.204l9.375 8.93 9.36-8.93a.742.742 0 0 1 .534-.204c.213 0 .393.07.54.21.148.141.222.314.222.517v18.908a.686.686 0 0 1-.221.516.754.754 0 0 1-.541.21.754.754 0 0 1-.542-.21.686.686 0 0 1-.22-.516V11.197l-8.69 8.29a.81.81 0 0 1-.457.131.716.716 0 0 1-.534-.218.38.38 0 0 1-.091-.087l-8.522-8.13v17.162a.686.686 0 0 1-.22.516.754.754 0 0 1-.542.21.754.754 0 0 1-.541-.21.686.686 0 0 1-.221-.516z"/></mask><filter id="53s4a" width="50" height="52" x="55" y="-6" filterUnits="userSpaceOnUse"><feOffset dy="2" in="SourceGraphic" result="FeOffset1023Out"/><feGaussianBlur in="FeOffset1023Out" result="FeGaussianBlur1024Out" stdDeviation="1.6 1.6"/></filter><mask id="53s4d" width="2" height="2" x="-1" y="-1"><path fill="#fff" d="M69 8h22v22H69z"/><path d="M69.05 9.437c0-.203.074-.376.221-.516a.754.754 0 0 1 .541-.211c.214 0 .397.068.549.204l9.375 8.93 9.36-8.93a.742.742 0 0 1 .534-.204c.213 0 .393.07.54.21.148.141.222.314.222.517v18.908a.686.686 0 0 1-.221.516.754.754 0 0 1-.541.21.754.754 0 0 1-.542-.21.686.686 0 0 1-.22-.516V11.197l-8.69 8.29a.81.81 0 0 1-.457.131.716.716 0 0 1-.534-.218.38.38 0 0 1-.091-.087l-8.522-8.13v17.162a.686.686 0 0 1-.22.516.754.754 0 0 1-.542.21.754.754 0 0 1-.541-.21.686.686 0 0 1-.221-.516z"/></mask><filter id="53s4c" width="44" height="45" x="58" y="-3" filterUnits="userSpaceOnUse"><feOffset dy="1" in="SourceGraphic" result="FeOffset1034Out"/><feGaussianBlur in="FeOffset1034Out" result="FeGaussianBlur1035Out" stdDeviation="0.4 0.4"/></filter><linearGradient id="53s4e" x1="79.72" x2="79.72" y1="8.71" y2="29.08" gradientUnits="userSpaceOnUse"><stop offset="0" stop-color="#79798f" stop-opacity=".7"/><stop offset=".97" stop-color="#4f4f5f" stop-opacity=".7"/></linearGradient><filter id="53s4f" width="200%" height="200%" x="-50%" y="-50%"><feGaussianBlur in="SourceGraphic" result="FeGaussianBlur1043Out" stdDeviation="0.5 0.5"/></filter><mask id="53s4g"><path fill="#fff" d="M69.05 9.437c0-.203.074-.376.221-.516a.754.754 0 0 1 .541-.211c.214 0 .397.068.549.204l9.375 8.93 9.36-8.93a.742.742 0 0 1 .534-.204c.213 0 .393.07.54.21.148.141.222.314.222.517v18.908a.686.686 0 0 1-.221.516.754.754 0 0 1-.541.21.754.754 0 0 1-.542-.21.686.686 0 0 1-.22-.516V11.197l-8.69 8.29a.81.81 0 0 1-.457.131.716.716 0 0 1-.534-.218.38.38 0 0 1-.091-.087l-8.522-8.13v17.162a.686.686 0 0 1-.22.516.754.754 0 0 1-.542.21.754.754 0 0 1-.541-.21.686.686 0 0 1-.221-.516z"/></mask><filter id="53s4h" width="200%" height="200%" x="-50%" y="-50%"><feGaussianBlur in="SourceGraphic" result="FeGaussianBlur1048Out" stdDeviation="0.25 0.25"/></filter><mask id="53s4i"><path fill="#fff" d="M69.05 9.437c0-.203.074-.376.221-.516a.754.754 0 0 1 .541-.211c.214 0 .397.068.549.204l9.375 8.93 9.36-8.93a.742.742 0 0 1 .534-.204c.213 0 .393.07.54.21.148.141.222.314.222.517v18.908a.686.686 0 0 1-.221.516.754.754 0 0 1-.541.21.754.754 0 0 1-.542-.21.686.686 0 0 1-.22-.516V11.197l-8.69 8.29a.81.81 0 0 1-.457.131.716.716 0 0 1-.534-.218.38.38 0 0 1-.091-.087l-8.522-8.13v17.162a.686.686 0 0 1-.22.516.754.754 0 0 1-.542.21.754.754 0 0 1-.541-.21.686.686 0 0 1-.221-.516z"/></mask><filter id="53s4j" width="200%" height="200%" x="-50%" y="-50%"><feGaussianBlur in="SourceGraphic" result="FeGaussianBlur1053Out" stdDeviation="0.25 0.25"/></filter><mask id="53s4k"><path fill="#fff" d="M69.05 9.437c0-.203.074-.376.221-.516a.754.754 0 0 1 .541-.211c.214 0 .397.068.549.204l9.375 8.93 9.36-8.93a.742.742 0 0 1 .534-.204c.213 0 .393.07.54.21.148.141.222.314.222.517v18.908a.686.686 0 0 1-.221.516.754.754 0 0 1-.541.21.754.754 0 0 1-.542-.21.686.686 0 0 1-.22-.516V11.197l-8.69 8.29a.81.81 0 0 1-.457.131.716.716 0 0 1-.534-.218.38.38 0 0 1-.091-.087l-8.522-8.13v17.162a.686.686 0 0 1-.22.516.754.754 0 0 1-.542.21.754.754 0 0 1-.541-.21.686.686 0 0 1-.221-.516z"/></mask><mask id="53s4m" width="2" height="2" x="-1" y="-1"><path fill="#fff" d="M44 8h23v22H44z"/><path d="M55.41 8.71c2.948 0 5.463.994 7.547 2.982 2.083 1.987 3.125 4.387 3.125 7.199 0 2.812-1.042 5.212-3.125 7.2-2.084 1.987-4.599 2.98-7.546 2.98s-5.463-.993-7.546-2.98c-2.083-1.988-3.125-4.388-3.125-7.2 0-2.812 1.042-5.212 3.125-7.2 2.083-1.987 4.599-2.981 7.546-2.981zm.006 1.455c-2.532 0-4.69.851-6.474 2.554-1.785 1.702-2.677 3.761-2.677 6.177 0 2.415.892 4.474 2.677 6.177 1.784 1.703 3.942 2.554 6.474 2.554s4.69-.852 6.474-2.554c1.784-1.703 2.677-3.762 2.677-6.177 0-2.416-.893-4.475-2.677-6.177-1.784-1.703-3.942-2.554-6.474-2.554z"/></mask><filter id="53s4l" width="51" height="52" x="30" y="-6" filterUnits="userSpaceOnUse"><feOffset dy="2" in="SourceGraphic" result="FeOffset1068Out"/><feGaussianBlur in="FeOffset1068Out" result="FeGaussianBlur1069Out" stdDeviation="1.6 1.6"/></filter><mask id="53s4o" width="2" height="2" x="-1" y="-1"><path fill="#fff" d="M44 8h23v22H44z"/><path d="M55.41 8.71c2.948 0 5.463.994 7.547 2.982 2.083 1.987 3.125 4.387 3.125 7.199 0 2.812-1.042 5.212-3.125 7.2-2.084 1.987-4.599 2.98-7.546 2.98s-5.463-.993-7.546-2.98c-2.083-1.988-3.125-4.388-3.125-7.2 0-2.812 1.042-5.212 3.125-7.2 2.083-1.987 4.599-2.981 7.546-2.981zm.006 1.455c-2.532 0-4.69.851-6.474 2.554-1.785 1.702-2.677 3.761-2.677 6.177 0 2.415.892 4.474 2.677 6.177 1.784 1.703 3.942 2.554 6.474 2.554s4.69-.852 6.474-2.554c1.784-1.703 2.677-3.762 2.677-6.177 0-2.416-.893-4.475-2.677-6.177-1.784-1.703-3.942-2.554-6.474-2.554z"/></mask><filter id="53s4n" width="45" height="45" x="33" y="-3" filterUnits="userSpaceOnUse"><feOffset dy="1" in="SourceGraphic" result="FeOffset1079Out"/><feGaussianBlur in="FeOffset1079Out" result="FeGaussianBlur1080Out" stdDeviation="0.4 0.4"/></filter><linearGradient id="53s4p" x1="55.41" x2="55.41" y1="8.71" y2="29.08" gradientUnits="userSpaceOnUse"><stop offset="0" stop-color="#79798f" stop-opacity=".7"/><stop offset=".97" stop-color="#4f4f5f" stop-opacity=".7"/></linearGradient><filter id="53s4q" width="200%" height="200%" x="-50%" y="-50%"><feGaussianBlur in="SourceGraphic" result="FeGaussianBlur1088Out" stdDeviation="0.5 0.5"/></filter><mask id="53s4r"><path fill="#fff" d="M55.41 8.71c2.948 0 5.463.994 7.547 2.982 2.083 1.987 3.125 4.387 3.125 7.199 0 2.812-1.042 5.212-3.125 7.2-2.084 1.987-4.599 2.98-7.546 2.98s-5.463-.993-7.546-2.98c-2.083-1.988-3.125-4.388-3.125-7.2 0-2.812 1.042-5.212 3.125-7.2 2.083-1.987 4.599-2.981 7.546-2.981zm.006 1.455c-2.532 0-4.69.851-6.474 2.554-1.785 1.702-2.677 3.761-2.677 6.177 0 2.415.892 4.474 2.677 6.177 1.784 1.703 3.942 2.554 6.474 2.554s4.69-.852 6.474-2.554c1.784-1.703 2.677-3.762 2.677-6.177 0-2.416-.893-4.475-2.677-6.177-1.784-1.703-3.942-2.554-6.474-2.554z"/></mask><filter id="53s4s" width="200%" height="200%" x="-50%" y="-50%"><feGaussianBlur in="SourceGraphic" result="FeGaussianBlur1093Out" stdDeviation="0.25 0.25"/></filter><mask id="53s4t"><path fill="#fff" d="M55.41 8.71c2.948 0 5.463.994 7.547 2.982 2.083 1.987 3.125 4.387 3.125 7.199 0 2.812-1.042 5.212-3.125 7.2-2.084 1.987-4.599 2.98-7.546 2.98s-5.463-.993-7.546-2.98c-2.083-1.988-3.125-4.388-3.125-7.2 0-2.812 1.042-5.212 3.125-7.2 2.083-1.987 4.599-2.981 7.546-2.981zm.006 1.455c-2.532 0-4.69.851-6.474 2.554-1.785 1.702-2.677 3.761-2.677 6.177 0 2.415.892 4.474 2.677 6.177 1.784 1.703 3.942 2.554 6.474 2.554s4.69-.852 6.474-2.554c1.784-1.703 2.677-3.762 2.677-6.177 0-2.416-.893-4.475-2.677-6.177-1.784-1.703-3.942-2.554-6.474-2.554z"/></mask><filter id="53s4u" width="200%" height="200%" x="-50%" y="-50%"><feGaussianBlur in="SourceGraphic" result="FeGaussianBlur1098Out" stdDeviation="0.25 0.25"/></filter><mask id="53s4v"><path fill="#fff" d="M55.41 8.71c2.948 0 5.463.994 7.547 2.982 2.083 1.987 3.125 4.387 3.125 7.199 0 2.812-1.042 5.212-3.125 7.2-2.084 1.987-4.599 2.98-7.546 2.98s-5.463-.993-7.546-2.98c-2.083-1.988-3.125-4.388-3.125-7.2 0-2.812 1.042-5.212 3.125-7.2 2.083-1.987 4.599-2.981 7.546-2.981zm.006 1.455c-2.532 0-4.69.851-6.474 2.554-1.785 1.702-2.677 3.761-2.677 6.177 0 2.415.892 4.474 2.677 6.177 1.784 1.703 3.942 2.554 6.474 2.554s4.69-.852 6.474-2.554c1.784-1.703 2.677-3.762 2.677-6.177 0-2.416-.893-4.475-2.677-6.177-1.784-1.703-3.942-2.554-6.474-2.554z"/></mask><mask id="53s4x" width="2" height="2" x="-1" y="-1"><path fill="#fff" d="M22 8h22v22H22z"/><path d="M23.392 10.164a.754.754 0 0 1-.541-.21.686.686 0 0 1-.221-.517c0-.203.074-.376.221-.516a.754.754 0 0 1 .541-.211H43.21c.213 0 .393.07.54.21.148.141.222.314.222.517a.686.686 0 0 1-.221.517.754.754 0 0 1-.541.21h-9.147v18.18a.686.686 0 0 1-.221.517.754.754 0 0 1-.541.21.754.754 0 0 1-.541-.21.686.686 0 0 1-.221-.516v-18.18z"/></mask><filter id="53s4w" width="50" height="52" x="8" y="-6" filterUnits="userSpaceOnUse"><feOffset dy="2" in="SourceGraphic" result="FeOffset1113Out"/><feGaussianBlur in="FeOffset1113Out" result="FeGaussianBlur1114Out" stdDeviation="1.6 1.6"/></filter><mask id="53s4z" width="2" height="2" x="-1" y="-1"><path fill="#fff" d="M22 8h22v22H22z"/><path d="M23.392 10.164a.754.754 0 0 1-.541-.21.686.686 0 0 1-.221-.517c0-.203.074-.376.221-.516a.754.754 0 0 1 .541-.211H43.21c.213 0 .393.07.54.21.148.141.222.314.222.517a.686.686 0 0 1-.221.517.754.754 0 0 1-.541.21h-9.147v18.18a.686.686 0 0 1-.221.517.754.754 0 0 1-.541.21.754.754 0 0 1-.541-.21.686.686 0 0 1-.221-.516v-18.18z"/></mask><filter id="53s4y" width="44" height="45" x="11" y="-3" filterUnits="userSpaceOnUse"><feOffset dy="1" in="SourceGraphic" result="FeOffset1124Out"/><feGaussianBlur in="FeOffset1124Out" result="FeGaussianBlur1125Out" stdDeviation="0.4 0.4"/></filter><linearGradient id="53s4A" x1="33.3" x2="33.3" y1="8.71" y2="29.08" gradientUnits="userSpaceOnUse"><stop offset="0" stop-color="#79798f" stop-opacity=".7"/><stop offset=".97" stop-color="#4f4f5f" stop-opacity=".7"/></linearGradient><filter id="53s4B" width="200%" height="200%" x="-50%" y="-50%"><feGaussianBlur in="SourceGraphic" result="FeGaussianBlur1133Out" stdDeviation="0.5 0.5"/></filter><mask id="53s4C"><path fill="#fff" d="M23.392 10.164a.754.754 0 0 1-.541-.21.686.686 0 0 1-.221-.517c0-.203.074-.376.221-.516a.754.754 0 0 1 .541-.211H43.21c.213 0 .393.07.54.21.148.141.222.314.222.517a.686.686 0 0 1-.221.517.754.754 0 0 1-.541.21h-9.147v18.18a.686.686 0 0 1-.221.517.754.754 0 0 1-.541.21.754.754 0 0 1-.541-.21.686.686 0 0 1-.221-.516v-18.18z"/></mask><filter id="53s4D" width="200%" height="200%" x="-50%" y="-50%"><feGaussianBlur in="SourceGraphic" result="FeGaussianBlur1138Out" stdDeviation="0.25 0.25"/></filter><mask id="53s4E"><path fill="#fff" d="M23.392 10.164a.754.754 0 0 1-.541-.21.686.686 0 0 1-.221-.517c0-.203.074-.376.221-.516a.754.754 0 0 1 .541-.211H43.21c.213 0 .393.07.54.21.148.141.222.314.222.517a.686.686 0 0 1-.221.517.754.754 0 0 1-.541.21h-9.147v18.18a.686.686 0 0 1-.221.517.754.754 0 0 1-.541.21.754.754 0 0 1-.541-.21.686.686 0 0 1-.221-.516v-18.18z"/></mask><filter id="53s4F" width="200%" height="200%" x="-50%" y="-50%"><feGaussianBlur in="SourceGraphic" result="FeGaussianBlur1143Out" stdDeviation="0.25 0.25"/></filter><mask id="53s4G"><path fill="#fff" d="M23.392 10.164a.754.754 0 0 1-.541-.21.686.686 0 0 1-.221-.517c0-.203.074-.376.221-.516a.754.754 0 0 1 .541-.211H43.21c.213 0 .393.07.54.21.148.141.222.314.222.517a.686.686 0 0 1-.221.517.754.754 0 0 1-.541.21h-9.147v18.18a.686.686 0 0 1-.221.517.754.754 0 0 1-.541.21.754.754 0 0 1-.541-.21.686.686 0 0 1-.221-.516v-18.18z"/></mask><mask id="53s4I" width="2" height="2" x="-1" y="-1"><path fill="#fff" d="M3 8h22v22H3z"/><path d="M4.958 28.742a.767.767 0 0 1-.655.35.754.754 0 0 1-.542-.212.686.686 0 0 1-.221-.516c0-.194.087-.351.183-.51l9.824-18.703c.047-.09.086-.18.146-.247.141-.151.32-.204.533-.204.214 0 .396.068.549.204.071.077.127.16.168.247 5.72 10.86 8.976 17.05 9.765 18.567.124.24.097.176.162.307.057.096.057.218.057.295a.686.686 0 0 1-.22.516.754.754 0 0 1-.542.211.716.716 0 0 1-.533-.218c-.153-.136-.188-.263-.29-.465l-1.54-2.924-7.553-14.347L6.696 25.44z"/></mask><filter id="53s4H" width="50" height="52" x="-11" y="-6" filterUnits="userSpaceOnUse"><feOffset dy="2" in="SourceGraphic" result="FeOffset1158Out"/><feGaussianBlur in="FeOffset1158Out" result="FeGaussianBlur1159Out" stdDeviation="1.6 1.6"/></filter><mask id="53s4K" width="2" height="2" x="-1" y="-1"><path fill="#fff" d="M3 8h22v22H3z"/><path d="M4.958 28.742a.767.767 0 0 1-.655.35.754.754 0 0 1-.542-.212.686.686 0 0 1-.221-.516c0-.194.087-.351.183-.51l9.824-18.703c.047-.09.086-.18.146-.247.141-.151.32-.204.533-.204.214 0 .396.068.549.204.071.077.127.16.168.247 5.72 10.86 8.976 17.05 9.765 18.567.124.24.097.176.162.307.057.096.057.218.057.295a.686.686 0 0 1-.22.516.754.754 0 0 1-.542.211.716.716 0 0 1-.533-.218c-.153-.136-.188-.263-.29-.465l-1.54-2.924-7.553-14.347L6.696 25.44z"/></mask><filter id="53s4J" width="44" height="45" x="-8" y="-3" filterUnits="userSpaceOnUse"><feOffset dy="1" in="SourceGraphic" result="FeOffset1169Out"/><feGaussianBlur in="FeOffset1169Out" result="FeGaussianBlur1170Out" stdDeviation="0.4 0.4"/></filter><linearGradient id="53s4L" x1="14.23" x2="14.23" y1="8.7" y2="29.09" gradientUnits="userSpaceOnUse"><stop offset="0" stop-color="#79798f" stop-opacity=".7"/><stop offset=".97" stop-color="#4f4f5f" stop-opacity=".7"/></linearGradient><filter id="53s4M" width="200%" height="200%" x="-50%" y="-50%"><feGaussianBlur in="SourceGraphic" result="FeGaussianBlur1178Out" stdDeviation="0.5 0.5"/></filter><mask id="53s4N"><path fill="#fff" d="M4.958 28.742a.767.767 0 0 1-.655.35.754.754 0 0 1-.542-.212.686.686 0 0 1-.221-.516c0-.194.087-.351.183-.51l9.824-18.703c.047-.09.086-.18.146-.247.141-.151.32-.204.533-.204.214 0 .396.068.549.204.071.077.127.16.168.247 5.72 10.86 8.976 17.05 9.765 18.567.124.24.097.176.162.307.057.096.057.218.057.295a.686.686 0 0 1-.22.516.754.754 0 0 1-.542.211.716.716 0 0 1-.533-.218c-.153-.136-.188-.263-.29-.465l-1.54-2.924-7.553-14.347L6.696 25.44z"/></mask><filter id="53s4O" width="200%" height="200%" x="-50%" y="-50%"><feGaussianBlur in="SourceGraphic" result="FeGaussianBlur1183Out" stdDeviation="0.25 0.25"/></filter><mask id="53s4P"><path fill="#fff" d="M4.958 28.742a.767.767 0 0 1-.655.35.754.754 0 0 1-.542-.212.686.686 0 0 1-.221-.516c0-.194.087-.351.183-.51l9.824-18.703c.047-.09.086-.18.146-.247.141-.151.32-.204.533-.204.214 0 .396.068.549.204.071.077.127.16.168.247 5.72 10.86 8.976 17.05 9.765 18.567.124.24.097.176.162.307.057.096.057.218.057.295a.686.686 0 0 1-.22.516.754.754 0 0 1-.542.211.716.716 0 0 1-.533-.218c-.153-.136-.188-.263-.29-.465l-1.54-2.924-7.553-14.347L6.696 25.44z"/></mask><filter id="53s4Q" width="200%" height="200%" x="-50%" y="-50%"><feGaussianBlur in="SourceGraphic" result="FeGaussianBlur1188Out" stdDeviation="0.25 0.25"/></filter><mask id="53s4R"><path fill="#fff" d="M4.958 28.742a.767.767 0 0 1-.655.35.754.754 0 0 1-.542-.212.686.686 0 0 1-.221-.516c0-.194.087-.351.183-.51l9.824-18.703c.047-.09.086-.18.146-.247.141-.151.32-.204.533-.204.214 0 .396.068.549.204.071.077.127.16.168.247 5.72 10.86 8.976 17.05 9.765 18.567.124.24.097.176.162.307.057.096.057.218.057.295a.686.686 0 0 1-.22.516.754.754 0 0 1-.542.211.716.716 0 0 1-.533-.218c-.153-.136-.188-.263-.29-.465l-1.54-2.924-7.553-14.347L6.696 25.44z"/></mask><linearGradient id="53s4S" x1="101.13" x2="92.42" y1="3.35" y2="17.88" gradientUnits="userSpaceOnUse"><stop offset="0" stop-color="#c2c2e4"/><stop offset="1" stop-color="#79798f" stop-opacity="0"/></linearGradient><mask id="53s4U" width="2" height="2" x="-1" y="-1"><path fill="#fff" d="M93 2h8v7h-8z"/><path d="M97.07 2.12c.898 0 1.664.317 2.298.951.635.635.952 1.4.952 2.298a3.13 3.13 0 0 1-.952 2.297c-.634.634-1.4.952-2.298.952a3.132 3.132 0 0 1-2.298-.952 3.13 3.13 0 0 1-.952-2.297c0-.898.317-1.663.952-2.298a3.132 3.132 0 0 1 2.298-.951z"/></mask><filter id="53s4T" width="36" height="37" x="79" y="-12" filterUnits="userSpaceOnUse"><feOffset dy="2" in="SourceGraphic" result="FeOffset1211Out"/><feGaussianBlur in="FeOffset1211Out" result="FeGaussianBlur1212Out" stdDeviation="1.6 1.6"/></filter><mask id="53s4W" width="2" height="2" x="-1" y="-1"><path fill="#fff" d="M93 2h8v7h-8z"/><path d="M97.07 2.12c.898 0 1.664.317 2.298.951.635.635.952 1.4.952 2.298a3.13 3.13 0 0 1-.952 2.297c-.634.634-1.4.952-2.298.952a3.132 3.132 0 0 1-2.298-.952 3.13 3.13 0 0 1-.952-2.297c0-.898.317-1.663.952-2.298a3.132 3.132 0 0 1 2.298-.951z"/></mask><filter id="53s4V" width="30" height="30" x="82" y="-9" filterUnits="userSpaceOnUse"><feOffset dy="1" in="SourceGraphic" result="FeOffset1222Out"/><feGaussianBlur in="FeOffset1222Out" result="FeGaussianBlur1223Out" stdDeviation="0.4 0.4"/></filter><radialGradient id="53s4X" cx="98.64" cy="3.64" r="8.41" gradientUnits="userSpaceOnUse"><stop offset="0" stop-color="#da224c"/><stop offset="1" stop-color="#a409ad"/></radialGradient><filter id="53s4Y" width="200%" height="200%" x="-50%" y="-50%"><feGaussianBlur in="SourceGraphic" result="FeGaussianBlur1231Out" stdDeviation="0.5 0.5"/></filter><mask id="53s4Z"><path fill="#fff" d="M97.07 2.12c.898 0 1.664.317 2.298.951.635.635.952 1.4.952 2.298a3.13 3.13 0 0 1-.952 2.297c-.634.634-1.4.952-2.298.952a3.132 3.132 0 0 1-2.298-.952 3.13 3.13 0 0 1-.952-2.297c0-.898.317-1.663.952-2.298a3.132 3.132 0 0 1 2.298-.951z"/></mask><filter id="53s4aa" width="200%" height="200%" x="-50%" y="-50%"><feGaussianBlur in="SourceGraphic" result="FeGaussianBlur1236Out" stdDeviation="0.25 0.25"/></filter><mask id="53s4ab"><path fill="#fff" d="M97.07 2.12c.898 0 1.664.317 2.298.951.635.635.952 1.4.952 2.298a3.13 3.13 0 0 1-.952 2.297c-.634.634-1.4.952-2.298.952a3.132 3.132 0 0 1-2.298-.952 3.13 3.13 0 0 1-.952-2.297c0-.898.317-1.663.952-2.298a3.132 3.132 0 0 1 2.298-.951z"/></mask><filter id="53s4ac" width="200%" height="200%" x="-50%" y="-50%"><feGaussianBlur in="SourceGraphic" result="FeGaussianBlur1241Out" stdDeviation="0.25 0.25"/></filter><mask id="53s4ad"><path fill="#fff" d="M97.07 2.12c.898 0 1.664.317 2.298.951.635.635.952 1.4.952 2.298a3.13 3.13 0 0 1-.952 2.297c-.634.634-1.4.952-2.298.952a3.132 3.132 0 0 1-2.298-.952 3.13 3.13 0 0 1-.952-2.297c0-.898.317-1.663.952-2.298a3.132 3.132 0 0 1 2.298-.951z"/></mask></defs><g><g><g filter="url(#53s4a)"><path fill="none" d="M69.05 9.437c0-.203.074-.376.221-.516a.754.754 0 0 1 .541-.211c.214 0 .397.068.549.204l9.375 8.93 9.36-8.93a.742.742 0 0 1 .534-.204c.213 0 .393.07.54.21.148.141.222.314.222.517v18.908a.686.686 0 0 1-.221.516.754.754 0 0 1-.541.21.754.754 0 0 1-.542-.21.686.686 0 0 1-.22-.516V11.197l-8.69 8.29a.81.81 0 0 1-.457.131.716.716 0 0 1-.534-.218.38.38 0 0 1-.091-.087l-8.522-8.13v17.162a.686.686 0 0 1-.22.516.754.754 0 0 1-.542.21.754.754 0 0 1-.541-.21.686.686 0 0 1-.221-.516z" mask="url(&quot;#53s4b&quot;)"/><path fill-opacity=".24" d="M69.05 9.437c0-.203.074-.376.221-.516a.754.754 0 0 1 .541-.211c.214 0 .397.068.549.204l9.375 8.93 9.36-8.93a.742.742 0 0 1 .534-.204c.213 0 .393.07.54.21.148.141.222.314.222.517v18.908a.686.686 0 0 1-.221.516.754.754 0 0 1-.541.21.754.754 0 0 1-.542-.21.686.686 0 0 1-.22-.516V11.197l-8.69 8.29a.81.81 0 0 1-.457.131.716.716 0 0 1-.534-.218.38.38 0 0 1-.091-.087l-8.522-8.13v17.162a.686.686 0 0 1-.22.516.754.754 0 0 1-.542.21.754.754 0 0 1-.541-.21.686.686 0 0 1-.221-.516z"/></g><g filter="url(#53s4c)"><path fill="none" d="M69.05 9.437c0-.203.074-.376.221-.516a.754.754 0 0 1 .541-.211c.214 0 .397.068.549.204l9.375 8.93 9.36-8.93a.742.742 0 0 1 .534-.204c.213 0 .393.07.54.21.148.141.222.314.222.517v18.908a.686.686 0 0 1-.221.516.754.754 0 0 1-.541.21.754.754 0 0 1-.542-.21.686.686 0 0 1-.22-.516V11.197l-8.69 8.29a.81.81 0 0 1-.457.131.716.716 0 0 1-.534-.218.38.38 0 0 1-.091-.087l-8.522-8.13v17.162a.686.686 0 0 1-.22.516.754.754 0 0 1-.542.21.754.754 0 0 1-.541-.21.686.686 0 0 1-.221-.516z" mask="url(&quot;#53s4d&quot;)"/><path fill-opacity=".5" d="M69.05 9.437c0-.203.074-.376.221-.516a.754.754 0 0 1 .541-.211c.214 0 .397.068.549.204l9.375 8.93 9.36-8.93a.742.742 0 0 1 .534-.204c.213 0 .393.07.54.21.148.141.222.314.222.517v18.908a.686.686 0 0 1-.221.516.754.754 0 0 1-.541.21.754.754 0 0 1-.542-.21.686.686 0 0 1-.22-.516V11.197l-8.69 8.29a.81.81 0 0 1-.457.131.716.716 0 0 1-.534-.218.38.38 0 0 1-.091-.087l-8.522-8.13v17.162a.686.686 0 0 1-.22.516.754.754 0 0 1-.542.21.754.754 0 0 1-.541-.21.686.686 0 0 1-.221-.516z"/></g><path fill="url(#53s4e)" d="M69.05 9.437c0-.203.074-.376.221-.516a.754.754 0 0 1 .541-.211c.214 0 .397.068.549.204l9.375 8.93 9.36-8.93a.742.742 0 0 1 .534-.204c.213 0 .393.07.54.21.148.141.222.314.222.517v18.908a.686.686 0 0 1-.221.516.754.754 0 0 1-.541.21.754.754 0 0 1-.542-.21.686.686 0 0 1-.22-.516V11.197l-8.69 8.29a.81.81 0 0 1-.457.131.716.716 0 0 1-.534-.218.38.38 0 0 1-.091-.087l-8.522-8.13v17.162a.686.686 0 0 1-.22.516.754.754 0 0 1-.542.21.754.754 0 0 1-.541-.21.686.686 0 0 1-.221-.516z"/><path fill-opacity=".24" d="M68 32V6h24v26zm1.05-4.655c0 .203.074.375.221.516.147.14.328.21.541.21.214 0 .394-.07.541-.21a.686.686 0 0 0 .221-.516V10.183l8.522 8.13c.02.029.05.058.091.087.143.145.32.218.534.218a.81.81 0 0 0 .457-.13l8.69-8.29v17.147c0 .203.073.375.22.516.148.14.328.21.542.21.213 0 .393-.07.54-.21a.686.686 0 0 0 .222-.516V8.437a.686.686 0 0 0-.221-.516.754.754 0 0 0-.541-.211.742.742 0 0 0-.534.204l-9.36 8.93-9.375-8.93a.797.797 0 0 0-.549-.204.754.754 0 0 0-.541.21.686.686 0 0 0-.221.517z" filter="url(#53s4f)" mask="url(&quot;#53s4g&quot;)"/><path fill="#e6e6ff" fill-opacity=".24" d="M68.5 31.5v-25h23v25zm.55-2.155c0 .203.074.375.221.516.147.14.328.21.541.21.214 0 .394-.07.541-.21a.686.686 0 0 0 .221-.516V12.183l8.522 8.13c.02.029.05.058.091.087.143.145.32.218.534.218a.81.81 0 0 0 .457-.13l8.69-8.29v17.147c0 .203.073.375.22.516.148.14.328.21.542.21.213 0 .393-.07.54-.21a.686.686 0 0 0 .222-.516V10.437a.686.686 0 0 0-.221-.516.754.754 0 0 0-.541-.211.742.742 0 0 0-.534.204l-9.36 8.93-9.375-8.93a.797.797 0 0 0-.549-.204.754.754 0 0 0-.541.21.686.686 0 0 0-.221.517z" filter="url(#53s4h)" mask="url(&quot;#53s4i&quot;)"/><path fill="#e6e6ff" fill-opacity=".24" d="M68.5 31V7h23v24zm.55-2.155c0 .203.074.375.221.516.147.14.328.21.541.21.214 0 .394-.07.541-.21a.686.686 0 0 0 .221-.516V11.683l8.522 8.13c.02.029.05.058.091.087.143.145.32.218.534.218a.81.81 0 0 0 .457-.13l8.69-8.29v17.147c0 .203.073.375.22.516.148.14.328.21.542.21.213 0 .393-.07.54-.21a.686.686 0 0 0 .222-.516V9.937a.686.686 0 0 0-.221-.516.754.754 0 0 0-.541-.211.742.742 0 0 0-.534.204l-9.36 8.93-9.375-8.93a.797.797 0 0 0-.549-.204.754.754 0 0 0-.541.21.686.686 0 0 0-.221.517z" filter="url(#53s4j)" mask="url(&quot;#53s4k&quot;)"/></g><g><g filter="url(#53s4l)"><path fill="none" d="M55.41 8.71c2.948 0 5.463.994 7.547 2.982 2.083 1.987 3.125 4.387 3.125 7.199 0 2.812-1.042 5.212-3.125 7.2-2.084 1.987-4.599 2.98-7.546 2.98s-5.463-.993-7.546-2.98c-2.083-1.988-3.125-4.388-3.125-7.2 0-2.812 1.042-5.212 3.125-7.2 2.083-1.987 4.599-2.981 7.546-2.981zm.006 1.455c-2.532 0-4.69.851-6.474 2.554-1.785 1.702-2.677 3.761-2.677 6.177 0 2.415.892 4.474 2.677 6.177 1.784 1.703 3.942 2.554 6.474 2.554s4.69-.852 6.474-2.554c1.784-1.703 2.677-3.762 2.677-6.177 0-2.416-.893-4.475-2.677-6.177-1.784-1.703-3.942-2.554-6.474-2.554z" mask="url(&quot;#53s4m&quot;)"/><path fill-opacity=".24" d="M55.41 8.71c2.948 0 5.463.994 7.547 2.982 2.083 1.987 3.125 4.387 3.125 7.199 0 2.812-1.042 5.212-3.125 7.2-2.084 1.987-4.599 2.98-7.546 2.98s-5.463-.993-7.546-2.98c-2.083-1.988-3.125-4.388-3.125-7.2 0-2.812 1.042-5.212 3.125-7.2 2.083-1.987 4.599-2.981 7.546-2.981zm.006 1.455c-2.532 0-4.69.851-6.474 2.554-1.785 1.702-2.677 3.761-2.677 6.177 0 2.415.892 4.474 2.677 6.177 1.784 1.703 3.942 2.554 6.474 2.554s4.69-.852 6.474-2.554c1.784-1.703 2.677-3.762 2.677-6.177 0-2.416-.893-4.475-2.677-6.177-1.784-1.703-3.942-2.554-6.474-2.554z"/></g><g filter="url(#53s4n)"><path fill="none" d="M55.41 8.71c2.948 0 5.463.994 7.547 2.982 2.083 1.987 3.125 4.387 3.125 7.199 0 2.812-1.042 5.212-3.125 7.2-2.084 1.987-4.599 2.98-7.546 2.98s-5.463-.993-7.546-2.98c-2.083-1.988-3.125-4.388-3.125-7.2 0-2.812 1.042-5.212 3.125-7.2 2.083-1.987 4.599-2.981 7.546-2.981zm.006 1.455c-2.532 0-4.69.851-6.474 2.554-1.785 1.702-2.677 3.761-2.677 6.177 0 2.415.892 4.474 2.677 6.177 1.784 1.703 3.942 2.554 6.474 2.554s4.69-.852 6.474-2.554c1.784-1.703 2.677-3.762 2.677-6.177 0-2.416-.893-4.475-2.677-6.177-1.784-1.703-3.942-2.554-6.474-2.554z" mask="url(&quot;#53s4o&quot;)"/><path fill-opacity=".5" d="M55.41 8.71c2.948 0 5.463.994 7.547 2.982 2.083 1.987 3.125 4.387 3.125 7.199 0 2.812-1.042 5.212-3.125 7.2-2.084 1.987-4.599 2.98-7.546 2.98s-5.463-.993-7.546-2.98c-2.083-1.988-3.125-4.388-3.125-7.2 0-2.812 1.042-5.212 3.125-7.2 2.083-1.987 4.599-2.981 7.546-2.981zm.006 1.455c-2.532 0-4.69.851-6.474 2.554-1.785 1.702-2.677 3.761-2.677 6.177 0 2.415.892 4.474 2.677 6.177 1.784 1.703 3.942 2.554 6.474 2.554s4.69-.852 6.474-2.554c1.784-1.703 2.677-3.762 2.677-6.177 0-2.416-.893-4.475-2.677-6.177-1.784-1.703-3.942-2.554-6.474-2.554z"/></g><path fill="url(#53s4p)" d="M55.41 8.71c2.948 0 5.463.994 7.547 2.982 2.083 1.987 3.125 4.387 3.125 7.199 0 2.812-1.042 5.212-3.125 7.2-2.084 1.987-4.599 2.98-7.546 2.98s-5.463-.993-7.546-2.98c-2.083-1.988-3.125-4.388-3.125-7.2 0-2.812 1.042-5.212 3.125-7.2 2.083-1.987 4.599-2.981 7.546-2.981zm.006 1.455c-2.532 0-4.69.851-6.474 2.554-1.785 1.702-2.677 3.761-2.677 6.177 0 2.415.892 4.474 2.677 6.177 1.784 1.703 3.942 2.554 6.474 2.554s4.69-.852 6.474-2.554c1.784-1.703 2.677-3.762 2.677-6.177 0-2.416-.893-4.475-2.677-6.177-1.784-1.703-3.942-2.554-6.474-2.554z"/><path fill-opacity=".24" d="M43 32V6h25v26zm4.865-21.308c-2.083 1.987-3.125 4.387-3.125 7.199 0 2.812 1.042 5.212 3.125 7.2 2.083 1.987 4.599 2.98 7.546 2.98s5.462-.993 7.546-2.98c2.083-1.988 3.125-4.388 3.125-7.2 0-2.812-1.042-5.212-3.125-7.2-2.084-1.987-4.599-2.981-7.546-2.981s-5.463.994-7.546 2.982zm14.025 1.027c1.784 1.702 2.677 3.761 2.677 6.177 0 2.415-.893 4.474-2.677 6.177-1.784 1.702-3.942 2.554-6.474 2.554s-4.69-.851-6.474-2.554c-1.785-1.703-2.677-3.762-2.677-6.177 0-2.416.892-4.475 2.677-6.177 1.784-1.703 3.942-2.554 6.474-2.554s4.69.851 6.474 2.554z" filter="url(#53s4q)" mask="url(&quot;#53s4r&quot;)"/><path fill="#e6e6ff" fill-opacity=".24" d="M43.5 31.5v-25h24v25zm4.365-18.808c-2.083 1.987-3.125 4.387-3.125 7.199 0 2.812 1.042 5.212 3.125 7.2 2.083 1.987 4.599 2.98 7.546 2.98s5.462-.993 7.546-2.98c2.083-1.988 3.125-4.388 3.125-7.2 0-2.812-1.042-5.212-3.125-7.2-2.084-1.987-4.599-2.981-7.546-2.981s-5.463.994-7.546 2.982zm14.025 1.027c1.784 1.702 2.677 3.761 2.677 6.177 0 2.415-.893 4.474-2.677 6.177-1.784 1.702-3.942 2.554-6.474 2.554s-4.69-.851-6.474-2.554c-1.785-1.703-2.677-3.762-2.677-6.177 0-2.416.892-4.475 2.677-6.177 1.784-1.703 3.942-2.554 6.474-2.554s4.69.851 6.474 2.554z" filter="url(#53s4s)" mask="url(&quot;#53s4t&quot;)"/><path fill="#e6e6ff" fill-opacity=".24" d="M43.5 31V7h24v24zm4.365-18.808c-2.083 1.987-3.125 4.387-3.125 7.199 0 2.812 1.042 5.212 3.125 7.2 2.083 1.987 4.599 2.98 7.546 2.98s5.462-.993 7.546-2.98c2.083-1.988 3.125-4.388 3.125-7.2 0-2.812-1.042-5.212-3.125-7.2-2.084-1.987-4.599-2.981-7.546-2.981s-5.463.994-7.546 2.982zm14.025 1.027c1.784 1.702 2.677 3.761 2.677 6.177 0 2.415-.893 4.474-2.677 6.177-1.784 1.702-3.942 2.554-6.474 2.554s-4.69-.851-6.474-2.554c-1.785-1.703-2.677-3.762-2.677-6.177 0-2.416.892-4.475 2.677-6.177 1.784-1.703 3.942-2.554 6.474-2.554s4.69.851 6.474 2.554z" filter="url(#53s4u)" mask="url(&quot;#53s4v&quot;)"/></g><g><g filter="url(#53s4w)"><path fill="none" d="M23.392 10.164a.754.754 0 0 1-.541-.21.686.686 0 0 1-.221-.517c0-.203.074-.376.221-.516a.754.754 0 0 1 .541-.211H43.21c.213 0 .393.07.54.21.148.141.222.314.222.517a.686.686 0 0 1-.221.517.754.754 0 0 1-.541.21h-9.147v18.18a.686.686 0 0 1-.221.517.754.754 0 0 1-.541.21.754.754 0 0 1-.541-.21.686.686 0 0 1-.221-.516v-18.18z" mask="url(&quot;#53s4x&quot;)"/><path fill-opacity=".24" d="M23.392 10.164a.754.754 0 0 1-.541-.21.686.686 0 0 1-.221-.517c0-.203.074-.376.221-.516a.754.754 0 0 1 .541-.211H43.21c.213 0 .393.07.54.21.148.141.222.314.222.517a.686.686 0 0 1-.221.517.754.754 0 0 1-.541.21h-9.147v18.18a.686.686 0 0 1-.221.517.754.754 0 0 1-.541.21.754.754 0 0 1-.541-.21.686.686 0 0 1-.221-.516v-18.18z"/></g><g filter="url(#53s4y)"><path fill="none" d="M23.392 10.164a.754.754 0 0 1-.541-.21.686.686 0 0 1-.221-.517c0-.203.074-.376.221-.516a.754.754 0 0 1 .541-.211H43.21c.213 0 .393.07.54.21.148.141.222.314.222.517a.686.686 0 0 1-.221.517.754.754 0 0 1-.541.21h-9.147v18.18a.686.686 0 0 1-.221.517.754.754 0 0 1-.541.21.754.754 0 0 1-.541-.21.686.686 0 0 1-.221-.516v-18.18z" mask="url(&quot;#53s4z&quot;)"/><path fill-opacity=".5" d="M23.392 10.164a.754.754 0 0 1-.541-.21.686.686 0 0 1-.221-.517c0-.203.074-.376.221-.516a.754.754 0 0 1 .541-.211H43.21c.213 0 .393.07.54.21.148.141.222.314.222.517a.686.686 0 0 1-.221.517.754.754 0 0 1-.541.21h-9.147v18.18a.686.686 0 0 1-.221.517.754.754 0 0 1-.541.21.754.754 0 0 1-.541-.21.686.686 0 0 1-.221-.516v-18.18z"/></g><path fill="url(#53s4A)" d="M23.392 10.164a.754.754 0 0 1-.541-.21.686.686 0 0 1-.221-.517c0-.203.074-.376.221-.516a.754.754 0 0 1 .541-.211H43.21c.213 0 .393.07.54.21.148.141.222.314.222.517a.686.686 0 0 1-.221.517.754.754 0 0 1-.541.21h-9.147v18.18a.686.686 0 0 1-.221.517.754.754 0 0 1-.541.21.754.754 0 0 1-.541-.21.686.686 0 0 1-.221-.516v-18.18z"/><path fill-opacity=".24" d="M21 32V6h24v26zM32.539 9.164v18.18c0 .204.073.376.22.517.148.14.328.21.542.21.213 0 .394-.07.541-.21a.686.686 0 0 0 .221-.516V9.165h9.147c.213 0 .393-.07.54-.211a.686.686 0 0 0 .222-.517.686.686 0 0 0-.221-.516.754.754 0 0 0-.541-.211H23.392a.754.754 0 0 0-.541.21.686.686 0 0 0-.221.517c0 .204.074.376.221.517.147.14.328.21.541.21z" filter="url(#53s4B)" mask="url(&quot;#53s4C&quot;)"/><path fill="#e6e6ff" fill-opacity=".24" d="M21.5 31.5v-25h23v25zm11.039-20.336v18.18c0 .204.073.376.22.517.148.14.328.21.542.21.213 0 .394-.07.541-.21a.686.686 0 0 0 .221-.516v-18.18h9.147c.213 0 .393-.07.54-.211a.686.686 0 0 0 .222-.517.686.686 0 0 0-.221-.516.754.754 0 0 0-.541-.211H23.392a.754.754 0 0 0-.541.21.686.686 0 0 0-.221.517c0 .204.074.376.221.517.147.14.328.21.541.21z" filter="url(#53s4D)" mask="url(&quot;#53s4E&quot;)"/><path fill="#e6e6ff" fill-opacity=".24" d="M21.5 31V7h23v24zm11.039-20.336v18.18c0 .204.073.376.22.517.148.14.328.21.542.21.213 0 .394-.07.541-.21a.686.686 0 0 0 .221-.516v-18.18h9.147c.213 0 .393-.07.54-.211a.686.686 0 0 0 .222-.517.686.686 0 0 0-.221-.516.754.754 0 0 0-.541-.211H23.392a.754.754 0 0 0-.541.21.686.686 0 0 0-.221.517c0 .204.074.376.221.517.147.14.328.21.541.21z" filter="url(#53s4F)" mask="url(&quot;#53s4G&quot;)"/></g><g><g filter="url(#53s4H)"><path fill="none" d="M4.958 28.742a.767.767 0 0 1-.655.35.754.754 0 0 1-.542-.212.686.686 0 0 1-.221-.516c0-.194.087-.351.183-.51l9.824-18.703c.047-.09.086-.18.146-.247.141-.151.32-.204.533-.204.214 0 .396.068.549.204.071.077.127.16.168.247 5.72 10.86 8.976 17.05 9.765 18.567.124.24.097.176.162.307.057.096.057.218.057.295a.686.686 0 0 1-.22.516.754.754 0 0 1-.542.211.716.716 0 0 1-.533-.218c-.153-.136-.188-.263-.29-.465l-1.54-2.924-7.553-14.347L6.696 25.44z" mask="url(&quot;#53s4I&quot;)"/><path fill-opacity=".24" d="M4.958 28.742a.767.767 0 0 1-.655.35.754.754 0 0 1-.542-.212.686.686 0 0 1-.221-.516c0-.194.087-.351.183-.51l9.824-18.703c.047-.09.086-.18.146-.247.141-.151.32-.204.533-.204.214 0 .396.068.549.204.071.077.127.16.168.247 5.72 10.86 8.976 17.05 9.765 18.567.124.24.097.176.162.307.057.096.057.218.057.295a.686.686 0 0 1-.22.516.754.754 0 0 1-.542.211.716.716 0 0 1-.533-.218c-.153-.136-.188-.263-.29-.465l-1.54-2.924-7.553-14.347L6.696 25.44z"/></g><g filter="url(#53s4J)"><path fill="none" d="M4.958 28.742a.767.767 0 0 1-.655.35.754.754 0 0 1-.542-.212.686.686 0 0 1-.221-.516c0-.194.087-.351.183-.51l9.824-18.703c.047-.09.086-.18.146-.247.141-.151.32-.204.533-.204.214 0 .396.068.549.204.071.077.127.16.168.247 5.72 10.86 8.976 17.05 9.765 18.567.124.24.097.176.162.307.057.096.057.218.057.295a.686.686 0 0 1-.22.516.754.754 0 0 1-.542.211.716.716 0 0 1-.533-.218c-.153-.136-.188-.263-.29-.465l-1.54-2.924-7.553-14.347L6.696 25.44z" mask="url(&quot;#53s4K&quot;)"/><path fill-opacity=".5" d="M4.958 28.742a.767.767 0 0 1-.655.35.754.754 0 0 1-.542-.212.686.686 0 0 1-.221-.516c0-.194.087-.351.183-.51l9.824-18.703c.047-.09.086-.18.146-.247.141-.151.32-.204.533-.204.214 0 .396.068.549.204.071.077.127.16.168.247 5.72 10.86 8.976 17.05 9.765 18.567.124.24.097.176.162.307.057.096.057.218.057.295a.686.686 0 0 1-.22.516.754.754 0 0 1-.542.211.716.716 0 0 1-.533-.218c-.153-.136-.188-.263-.29-.465l-1.54-2.924-7.553-14.347L6.696 25.44z"/></g><path fill="url(#53s4L)" d="M4.958 28.742a.767.767 0 0 1-.655.35.754.754 0 0 1-.542-.212.686.686 0 0 1-.221-.516c0-.194.087-.351.183-.51l9.824-18.703c.047-.09.086-.18.146-.247.141-.151.32-.204.533-.204.214 0 .396.068.549.204.071.077.127.16.168.247 5.72 10.86 8.976 17.05 9.765 18.567.124.24.097.176.162.307.057.096.057.218.057.295a.686.686 0 0 1-.22.516.754.754 0 0 1-.542.211.716.716 0 0 1-.533-.218c-.153-.136-.188-.263-.29-.465l-1.54-2.924-7.553-14.347L6.696 25.44z"/><path fill-opacity=".24" d="M2 32V6h24v26zm4.696-7.56l7.553-14.347 7.553 14.347 1.54 2.924c.102.202.137.33.29.465.142.146.32.218.533.218.214 0 .394-.07.541-.21a.686.686 0 0 0 .221-.517c0-.077 0-.199-.057-.295-.065-.13-.038-.068-.162-.307-.79-1.517-4.044-7.706-9.765-18.567a.975.975 0 0 0-.168-.247.797.797 0 0 0-.549-.204c-.213 0-.392.053-.533.204-.06.068-.1.157-.146.247L3.723 26.855c-.096.158-.183.315-.183.509 0 .203.074.375.221.516.147.14.328.211.541.211a.767.767 0 0 0 .656-.35z" filter="url(#53s4M)" mask="url(&quot;#53s4N&quot;)"/><path fill="#e6e6ff" fill-opacity=".24" d="M2.5 31.5v-25h23v25zm4.196-5.06l7.553-14.347 7.553 14.347 1.54 2.924c.102.202.137.33.29.465.142.146.32.218.533.218.214 0 .394-.07.541-.21a.686.686 0 0 0 .221-.517c0-.077 0-.199-.057-.295-.065-.13-.038-.068-.162-.307-.79-1.517-4.044-7.706-9.765-18.567a.975.975 0 0 0-.168-.247.797.797 0 0 0-.549-.204c-.213 0-.392.053-.533.204-.06.068-.1.157-.146.247L3.723 28.855c-.096.158-.183.315-.183.509 0 .203.074.375.221.516.147.14.328.211.541.211a.767.767 0 0 0 .656-.35z" filter="url(#53s4O)" mask="url(&quot;#53s4P&quot;)"/><path fill="#e6e6ff" fill-opacity=".24" d="M2.5 31V7h23v24zm4.196-5.06l7.553-14.347 7.553 14.347 1.54 2.924c.102.202.137.33.29.465.142.146.32.218.533.218.214 0 .394-.07.541-.21a.686.686 0 0 0 .221-.517c0-.077 0-.199-.057-.295-.065-.13-.038-.068-.162-.307-.79-1.517-4.044-7.706-9.765-18.567a.975.975 0 0 0-.168-.247.797.797 0 0 0-.549-.204c-.213 0-.392.053-.533.204-.06.068-.1.157-.146.247L3.723 28.355c-.096.158-.183.315-.183.509 0 .203.074.375.221.516.147.14.328.211.541.211a.767.767 0 0 0 .656-.35z" filter="url(#53s4Q)" mask="url(&quot;#53s4R&quot;)"/></g><g opacity=".5"><path fill="url(#53s4S)" d="M99.63 8.106a3.742 3.742 0 0 1-1.676.906c-.043 3.814-3.724 8.14-9.468 11.395 6.704-3.33 11.108-8.124 11.144-12.301zM69.91 5.7a38.561 38.561 0 0 1 5.225-2.127c7.41-2.411 14.54-2.36 18.804-.268.301-.454.698-.84 1.161-1.126C90.791.323 83.93.367 76.81 2.684a37.647 37.647 0 0 0-6.9 3.017z"/></g><g><g filter="url(#53s4T)"><path fill="none" d="M97.07 2.12c.898 0 1.664.317 2.298.951.635.635.952 1.4.952 2.298a3.13 3.13 0 0 1-.952 2.297c-.634.634-1.4.952-2.298.952a3.132 3.132 0 0 1-2.298-.952 3.13 3.13 0 0 1-.952-2.297c0-.898.317-1.663.952-2.298a3.132 3.132 0 0 1 2.298-.951z" mask="url(&quot;#53s4U&quot;)"/><path fill-opacity=".24" d="M97.07 2.12c.898 0 1.664.317 2.298.951.635.635.952 1.4.952 2.298a3.13 3.13 0 0 1-.952 2.297c-.634.634-1.4.952-2.298.952a3.132 3.132 0 0 1-2.298-.952 3.13 3.13 0 0 1-.952-2.297c0-.898.317-1.663.952-2.298a3.132 3.132 0 0 1 2.298-.951z"/></g><g filter="url(#53s4V)"><path fill="none" d="M97.07 2.12c.898 0 1.664.317 2.298.951.635.635.952 1.4.952 2.298a3.13 3.13 0 0 1-.952 2.297c-.634.634-1.4.952-2.298.952a3.132 3.132 0 0 1-2.298-.952 3.13 3.13 0 0 1-.952-2.297c0-.898.317-1.663.952-2.298a3.132 3.132 0 0 1 2.298-.951z" mask="url(&quot;#53s4W&quot;)"/><path fill-opacity=".5" d="M97.07 2.12c.898 0 1.664.317 2.298.951.635.635.952 1.4.952 2.298a3.13 3.13 0 0 1-.952 2.297c-.634.634-1.4.952-2.298.952a3.132 3.132 0 0 1-2.298-.952 3.13 3.13 0 0 1-.952-2.297c0-.898.317-1.663.952-2.298a3.132 3.132 0 0 1 2.298-.951z"/></g><path fill="url(#53s4X)" d="M97.07 2.12c.898 0 1.664.317 2.298.951.635.635.952 1.4.952 2.298a3.13 3.13 0 0 1-.952 2.297c-.634.634-1.4.952-2.298.952a3.132 3.132 0 0 1-2.298-.952 3.13 3.13 0 0 1-.952-2.297c0-.898.317-1.663.952-2.298a3.132 3.132 0 0 1 2.298-.951z"/><path fill-opacity=".24" d="M92 11V0h10v11zm2.772-8.929a3.13 3.13 0 0 0-.952 2.298c0 .897.317 1.663.952 2.297.634.634 1.4.952 2.298.952.898 0 1.664-.318 2.298-.952a3.13 3.13 0 0 0 .952-2.297 3.13 3.13 0 0 0-.952-2.298 3.132 3.132 0 0 0-2.298-.951c-.898 0-1.664.317-2.298.951z" filter="url(#53s4Y)" mask="url(&quot;#53s4Z&quot;)"/><path fill="#e6e6ff" fill-opacity=".24" d="M92.5 10.5V.5h9v10zm2.272-6.429a3.13 3.13 0 0 0-.952 2.298c0 .897.317 1.663.952 2.297.634.634 1.4.952 2.298.952.898 0 1.664-.318 2.298-.952a3.13 3.13 0 0 0 .952-2.297 3.13 3.13 0 0 0-.952-2.298 3.132 3.132 0 0 0-2.298-.951c-.898 0-1.664.317-2.298.951z" filter="url(#53s4aa)" mask="url(&quot;#53s4ab&quot;)"/><path fill="#e6e6ff" fill-opacity=".24" d="M92.5 10V1h9v9zm2.272-6.429a3.13 3.13 0 0 0-.952 2.298c0 .897.317 1.663.952 2.297.634.634 1.4.952 2.298.952.898 0 1.664-.318 2.298-.952a3.13 3.13 0 0 0 .952-2.297 3.13 3.13 0 0 0-.952-2.298 3.132 3.132 0 0 0-2.298-.951c-.898 0-1.664.317-2.298.951z" filter="url(#53s4ac)" mask="url(&quot;#53s4ad&quot;)"/></g></g></svg>