<svg xmlns="http://www.w3.org/2000/svg" width="76" height="15" viewBox="0 0 76 15"><defs><mask id="6skgb" width="2" height="2" x="-1" y="-1"><path fill="#fff" d="M3 3h70v10H3z"/><path d="M71.043 12.198V4.885l-1.58.44-.327-1.26 2.37-.757h1.067v8.89zm-11.369.063l-3.667-8.89h1.714l2.659 6.785 2.646-6.785h1.676l-3.654 8.89zm-12.844-.063V3.371h1.437l4.725 6.104V3.37h1.525v8.827h-1.298l-4.864-6.28v6.28zm-8.419 0V3.371h6.538v1.387h-4.988v2.295h4.421v1.388h-4.421v2.37h5.051v1.387zM28.113 4.784H26.38v6.012h1.733c1.847 0 3.054-1.25 3.054-2.98V7.79c0-1.73-1.207-3.006-3.054-3.006zm-3.285 7.414V3.371h3.289c2.772 0 4.687 1.904 4.687 4.389v.025c0 2.484-1.915 4.413-4.687 4.413zm-6.456-1.286c1.75 0 2.972-1.387 2.972-3.102v-.025c0-1.715-1.247-3.14-2.998-3.14-1.75 0-2.972 1.4-2.972 3.115v.025c0 1.715 1.247 3.127 2.998 3.127zm-.02 1.438c-2.713 0-4.606-2.056-4.606-4.54v-.025c0-2.484 1.918-4.565 4.63-4.565 2.713 0 4.606 2.055 4.606 4.54v.025c0 2.484-1.918 4.565-4.63 4.565zM3.22 12.198V3.371h1.65l2.685 4.174 2.684-4.174h1.651v8.827h-1.55v-6.33L7.555 10.03h-.05l-2.76-4.136v6.305z"/></mask><filter id="6skga" width="96" height="36" x="-10" y="-10" filterUnits="userSpaceOnUse"><feOffset in="SourceGraphic" result="FeOffset1357Out"/><feGaussianBlur in="FeOffset1357Out" result="FeGaussianBlur1358Out" stdDeviation="1.2 1.2"/></filter><mask id="6skgd" width="2" height="2" x="-1" y="-1"><path fill="#fff" d="M3 3h70v10H3z"/><path d="M71.043 12.198V4.885l-1.58.44-.327-1.26 2.37-.757h1.067v8.89zm-11.369.063l-3.667-8.89h1.714l2.659 6.785 2.646-6.785h1.676l-3.654 8.89zm-12.844-.063V3.371h1.437l4.725 6.104V3.37h1.525v8.827h-1.298l-4.864-6.28v6.28zm-8.419 0V3.371h6.538v1.387h-4.988v2.295h4.421v1.388h-4.421v2.37h5.051v1.387zM28.113 4.784H26.38v6.012h1.733c1.847 0 3.054-1.25 3.054-2.98V7.79c0-1.73-1.207-3.006-3.054-3.006zm-3.285 7.414V3.371h3.289c2.772 0 4.687 1.904 4.687 4.389v.025c0 2.484-1.915 4.413-4.687 4.413zm-6.456-1.286c1.75 0 2.972-1.387 2.972-3.102v-.025c0-1.715-1.247-3.14-2.998-3.14-1.75 0-2.972 1.4-2.972 3.115v.025c0 1.715 1.247 3.127 2.998 3.127zm-.02 1.438c-2.713 0-4.606-2.056-4.606-4.54v-.025c0-2.484 1.918-4.565 4.63-4.565 2.713 0 4.606 2.055 4.606 4.54v.025c0 2.484-1.918 4.565-4.63 4.565zM3.22 12.198V3.371h1.65l2.685 4.174 2.684-4.174h1.651v8.827h-1.55v-6.33L7.555 10.03h-.05l-2.76-4.136v6.305z"/></mask><filter id="6skgc" width="92" height="32" x="-8" y="-8" filterUnits="userSpaceOnUse"><feOffset in="SourceGraphic" result="FeOffset1368Out"/><feGaussianBlur in="FeOffset1368Out" result="FeGaussianBlur1369Out" stdDeviation="0.4 0.4"/></filter><filter id="6skge" width="200%" height="200%" x="-50%" y="-50%"><feGaussianBlur in="SourceGraphic" result="FeGaussianBlur1374Out" stdDeviation="0.5 0.5"/></filter><mask id="6skgf"><path fill="#fff" d="M71.043 12.198V4.885l-1.58.44-.327-1.26 2.37-.757h1.067v8.89zm-11.369.063l-3.667-8.89h1.714l2.659 6.785 2.646-6.785h1.676l-3.654 8.89zm-12.844-.063V3.371h1.437l4.725 6.104V3.37h1.525v8.827h-1.298l-4.864-6.28v6.28zm-8.419 0V3.371h6.538v1.387h-4.988v2.295h4.421v1.388h-4.421v2.37h5.051v1.387zM28.113 4.784H26.38v6.012h1.733c1.847 0 3.054-1.25 3.054-2.98V7.79c0-1.73-1.207-3.006-3.054-3.006zm-3.285 7.414V3.371h3.289c2.772 0 4.687 1.904 4.687 4.389v.025c0 2.484-1.915 4.413-4.687 4.413zm-6.456-1.286c1.75 0 2.972-1.387 2.972-3.102v-.025c0-1.715-1.247-3.14-2.998-3.14-1.75 0-2.972 1.4-2.972 3.115v.025c0 1.715 1.247 3.127 2.998 3.127zm-.02 1.438c-2.713 0-4.606-2.056-4.606-4.54v-.025c0-2.484 1.918-4.565 4.63-4.565 2.713 0 4.606 2.055 4.606 4.54v.025c0 2.484-1.918 4.565-4.63 4.565zM3.22 12.198V3.371h1.65l2.685 4.174 2.684-4.174h1.651v8.827h-1.55v-6.33L7.555 10.03h-.05l-2.76-4.136v6.305z"/></mask></defs><g><g><g filter="url(#6skga)"><path fill="none" d="M71.043 12.198V4.885l-1.58.44-.327-1.26 2.37-.757h1.067v8.89zm-11.369.063l-3.667-8.89h1.714l2.659 6.785 2.646-6.785h1.676l-3.654 8.89zm-12.844-.063V3.371h1.437l4.725 6.104V3.37h1.525v8.827h-1.298l-4.864-6.28v6.28zm-8.419 0V3.371h6.538v1.387h-4.988v2.295h4.421v1.388h-4.421v2.37h5.051v1.387zM28.113 4.784H26.38v6.012h1.733c1.847 0 3.054-1.25 3.054-2.98V7.79c0-1.73-1.207-3.006-3.054-3.006zm-3.285 7.414V3.371h3.289c2.772 0 4.687 1.904 4.687 4.389v.025c0 2.484-1.915 4.413-4.687 4.413zm-6.456-1.286c1.75 0 2.972-1.387 2.972-3.102v-.025c0-1.715-1.247-3.14-2.998-3.14-1.75 0-2.972 1.4-2.972 3.115v.025c0 1.715 1.247 3.127 2.998 3.127zm-.02 1.438c-2.713 0-4.606-2.056-4.606-4.54v-.025c0-2.484 1.918-4.565 4.63-4.565 2.713 0 4.606 2.055 4.606 4.54v.025c0 2.484-1.918 4.565-4.63 4.565zM3.22 12.198V3.371h1.65l2.685 4.174 2.684-4.174h1.651v8.827h-1.55v-6.33L7.555 10.03h-.05l-2.76-4.136v6.305z" mask="url(&quot;#6skgb&quot;)"/><path d="M71.043 12.198V4.885l-1.58.44-.327-1.26 2.37-.757h1.067v8.89zm-11.369.063l-3.667-8.89h1.714l2.659 6.785 2.646-6.785h1.676l-3.654 8.89zm-12.844-.063V3.371h1.437l4.725 6.104V3.37h1.525v8.827h-1.298l-4.864-6.28v6.28zm-8.419 0V3.371h6.538v1.387h-4.988v2.295h4.421v1.388h-4.421v2.37h5.051v1.387zM28.113 4.784H26.38v6.012h1.733c1.847 0 3.054-1.25 3.054-2.98V7.79c0-1.73-1.207-3.006-3.054-3.006zm-3.285 7.414V3.371h3.289c2.772 0 4.687 1.904 4.687 4.389v.025c0 2.484-1.915 4.413-4.687 4.413zm-6.456-1.286c1.75 0 2.972-1.387 2.972-3.102v-.025c0-1.715-1.247-3.14-2.998-3.14-1.75 0-2.972 1.4-2.972 3.115v.025c0 1.715 1.247 3.127 2.998 3.127zm-.02 1.438c-2.713 0-4.606-2.056-4.606-4.54v-.025c0-2.484 1.918-4.565 4.63-4.565 2.713 0 4.606 2.055 4.606 4.54v.025c0 2.484-1.918 4.565-4.63 4.565zM3.22 12.198V3.371h1.65l2.685 4.174 2.684-4.174h1.651v8.827h-1.55v-6.33L7.555 10.03h-.05l-2.76-4.136v6.305z"/></g><g filter="url(#6skgc)"><path fill="none" d="M71.043 12.198V4.885l-1.58.44-.327-1.26 2.37-.757h1.067v8.89zm-11.369.063l-3.667-8.89h1.714l2.659 6.785 2.646-6.785h1.676l-3.654 8.89zm-12.844-.063V3.371h1.437l4.725 6.104V3.37h1.525v8.827h-1.298l-4.864-6.28v6.28zm-8.419 0V3.371h6.538v1.387h-4.988v2.295h4.421v1.388h-4.421v2.37h5.051v1.387zM28.113 4.784H26.38v6.012h1.733c1.847 0 3.054-1.25 3.054-2.98V7.79c0-1.73-1.207-3.006-3.054-3.006zm-3.285 7.414V3.371h3.289c2.772 0 4.687 1.904 4.687 4.389v.025c0 2.484-1.915 4.413-4.687 4.413zm-6.456-1.286c1.75 0 2.972-1.387 2.972-3.102v-.025c0-1.715-1.247-3.14-2.998-3.14-1.75 0-2.972 1.4-2.972 3.115v.025c0 1.715 1.247 3.127 2.998 3.127zm-.02 1.438c-2.713 0-4.606-2.056-4.606-4.54v-.025c0-2.484 1.918-4.565 4.63-4.565 2.713 0 4.606 2.055 4.606 4.54v.025c0 2.484-1.918 4.565-4.63 4.565zM3.22 12.198V3.371h1.65l2.685 4.174 2.684-4.174h1.651v8.827h-1.55v-6.33L7.555 10.03h-.05l-2.76-4.136v6.305z" mask="url(&quot;#6skgd&quot;)"/><path d="M71.043 12.198V4.885l-1.58.44-.327-1.26 2.37-.757h1.067v8.89zm-11.369.063l-3.667-8.89h1.714l2.659 6.785 2.646-6.785h1.676l-3.654 8.89zm-12.844-.063V3.371h1.437l4.725 6.104V3.37h1.525v8.827h-1.298l-4.864-6.28v6.28zm-8.419 0V3.371h6.538v1.387h-4.988v2.295h4.421v1.388h-4.421v2.37h5.051v1.387zM28.113 4.784H26.38v6.012h1.733c1.847 0 3.054-1.25 3.054-2.98V7.79c0-1.73-1.207-3.006-3.054-3.006zm-3.285 7.414V3.371h3.289c2.772 0 4.687 1.904 4.687 4.389v.025c0 2.484-1.915 4.413-4.687 4.413zm-6.456-1.286c1.75 0 2.972-1.387 2.972-3.102v-.025c0-1.715-1.247-3.14-2.998-3.14-1.75 0-2.972 1.4-2.972 3.115v.025c0 1.715 1.247 3.127 2.998 3.127zm-.02 1.438c-2.713 0-4.606-2.056-4.606-4.54v-.025c0-2.484 1.918-4.565 4.63-4.565 2.713 0 4.606 2.055 4.606 4.54v.025c0 2.484-1.918 4.565-4.63 4.565zM3.22 12.198V3.371h1.65l2.685 4.174 2.684-4.174h1.651v8.827h-1.55v-6.33L7.555 10.03h-.05l-2.76-4.136v6.305z"/></g><path fill="#d5d5d5" d="M71.043 12.198V4.885l-1.58.44-.327-1.26 2.37-.757h1.067v8.89zm-11.369.063l-3.667-8.89h1.714l2.659 6.785 2.646-6.785h1.676l-3.654 8.89zm-12.844-.063V3.371h1.437l4.725 6.104V3.37h1.525v8.827h-1.298l-4.864-6.28v6.28zm-8.419 0V3.371h6.538v1.387h-4.988v2.295h4.421v1.388h-4.421v2.37h5.051v1.387zM28.113 4.784H26.38v6.012h1.733c1.847 0 3.054-1.25 3.054-2.98V7.79c0-1.73-1.207-3.006-3.054-3.006zm-3.285 7.414V3.371h3.289c2.772 0 4.687 1.904 4.687 4.389v.025c0 2.484-1.915 4.413-4.687 4.413zm-6.456-1.286c1.75 0 2.972-1.387 2.972-3.102v-.025c0-1.715-1.247-3.14-2.998-3.14-1.75 0-2.972 1.4-2.972 3.115v.025c0 1.715 1.247 3.127 2.998 3.127zm-.02 1.438c-2.713 0-4.606-2.056-4.606-4.54v-.025c0-2.484 1.918-4.565 4.63-4.565 2.713 0 4.606 2.055 4.606 4.54v.025c0 2.484-1.918 4.565-4.63 4.565zM3.22 12.198V3.371h1.65l2.685 4.174 2.684-4.174h1.651v8.827h-1.55v-6.33L7.555 10.03h-.05l-2.76-4.136v6.305z"/><path fill-opacity=".5" d="M2 14.5v-13h72v13zm70.573-2.802v-8.89h-1.066l-2.371.757.326 1.26 1.58-.44v7.313zm-11.525.063l3.654-8.89h-1.676L60.38 9.656 57.72 2.87h-1.713l3.667 8.89zm-12.693-.063v-6.28l4.864 6.28h1.298V2.871h-1.525v6.104L48.267 2.87H46.83v8.827zm-3.343 0v-1.387h-5.051v-2.37h4.421V6.553h-4.421V4.258h4.988V2.871h-6.538v8.827zM31.167 7.29v.025c0 1.73-1.207 2.981-3.054 2.981H26.38V4.284h1.733c1.847 0 3.054 1.275 3.054 3.006zm-3.05 4.408c2.772 0 4.687-1.929 4.687-4.413V7.26c0-2.485-1.915-4.389-4.687-4.389h-3.29v8.827zM15.374 7.285V7.26c0-1.715 1.222-3.115 2.972-3.115 1.751 0 2.998 1.425 2.998 3.14v.025c0 1.715-1.222 3.102-2.972 3.102-1.751 0-2.998-1.412-2.998-3.127zm7.608 0V7.26c0-2.485-1.893-4.54-4.605-4.54-2.713 0-4.63 2.08-4.63 4.565v.025c0 2.484 1.892 4.54 4.604 4.54 2.713 0 4.63-2.08 4.63-4.565zM4.745 11.698V5.393l2.76 4.136h.05l2.785-4.16v6.33h1.55V2.87h-1.65L7.554 7.045 4.871 2.871H3.22v8.827z" filter="url(#6skge)" mask="url(&quot;#6skgf&quot;)"/></g></g></svg>