<svg xmlns="http://www.w3.org/2000/svg" width="79" height="15" viewBox="0 0 79 15"><defs><mask id="qmzzb" width="2" height="2" x="-1" y="-1"><path fill="#fff" d="M3 3h73v10H3z"/><path d="M69.436 12.302V11.08l3.04-2.585C73.687 7.46 74.13 6.905 74.13 6.11c0-.87-.618-1.375-1.426-1.375-.807 0-1.362.441-2.03 1.324l-1.11-.87c.844-1.173 1.677-1.841 3.254-1.841 1.728 0 2.914 1.06 2.914 2.635v.026c0 1.387-.732 2.143-2.296 3.417l-1.817 1.513h4.201v1.362zm-9.766.07L56 3.481h1.715l2.662 6.784 2.649-6.785h1.677l-3.658 8.89zm-12.846-.064V3.481h1.438l4.73 6.104V3.48h1.527v8.827H53.22l-4.87-6.28v6.28zm-8.418 0V3.481h6.547v1.387h-4.995v2.295h4.428v1.388h-4.428v2.37h5.058v1.387zM28.114 4.894h-1.738v6.012h1.738c1.85 0 3.059-1.25 3.059-2.98V7.9c0-1.73-1.209-3.006-3.06-3.006zm-3.29 7.414V3.481h3.293c2.775 0 4.693 1.904 4.693 4.389v.025c0 2.484-1.918 4.413-4.693 4.413zm-6.45-1.286c1.754 0 2.978-1.387 2.978-3.102v-.025c0-1.715-1.25-3.14-3.003-3.14-1.753 0-2.977 1.4-2.977 3.115v.025c0 1.715 1.249 3.127 3.002 3.127zm-.02 1.438c-2.715 0-4.61-2.056-4.61-4.54v-.025c0-2.484 1.92-4.565 4.636-4.565 2.715 0 4.609 2.055 4.609 4.54v.025c0 2.484-1.92 4.565-4.635 4.565zM3.22 12.308V3.481h1.653L7.56 7.655l2.687-4.174h1.652v8.827h-1.552v-6.33L7.56 10.14h-.05L4.745 6.003v6.305z"/></mask><filter id="qmzza" width="99" height="36" x="-10" y="-10" filterUnits="userSpaceOnUse"><feOffset in="SourceGraphic" result="FeOffset1452Out"/><feGaussianBlur in="FeOffset1452Out" result="FeGaussianBlur1453Out" stdDeviation="1.2 1.2"/></filter><mask id="qmzzd" width="2" height="2" x="-1" y="-1"><path fill="#fff" d="M3 3h73v10H3z"/><path d="M69.436 12.302V11.08l3.04-2.585C73.687 7.46 74.13 6.905 74.13 6.11c0-.87-.618-1.375-1.426-1.375-.807 0-1.362.441-2.03 1.324l-1.11-.87c.844-1.173 1.677-1.841 3.254-1.841 1.728 0 2.914 1.06 2.914 2.635v.026c0 1.387-.732 2.143-2.296 3.417l-1.817 1.513h4.201v1.362zm-9.766.07L56 3.481h1.715l2.662 6.784 2.649-6.785h1.677l-3.658 8.89zm-12.846-.064V3.481h1.438l4.73 6.104V3.48h1.527v8.827H53.22l-4.87-6.28v6.28zm-8.418 0V3.481h6.547v1.387h-4.995v2.295h4.428v1.388h-4.428v2.37h5.058v1.387zM28.114 4.894h-1.738v6.012h1.738c1.85 0 3.059-1.25 3.059-2.98V7.9c0-1.73-1.209-3.006-3.06-3.006zm-3.29 7.414V3.481h3.293c2.775 0 4.693 1.904 4.693 4.389v.025c0 2.484-1.918 4.413-4.693 4.413zm-6.45-1.286c1.754 0 2.978-1.387 2.978-3.102v-.025c0-1.715-1.25-3.14-3.003-3.14-1.753 0-2.977 1.4-2.977 3.115v.025c0 1.715 1.249 3.127 3.002 3.127zm-.02 1.438c-2.715 0-4.61-2.056-4.61-4.54v-.025c0-2.484 1.92-4.565 4.636-4.565 2.715 0 4.609 2.055 4.609 4.54v.025c0 2.484-1.92 4.565-4.635 4.565zM3.22 12.308V3.481h1.653L7.56 7.655l2.687-4.174h1.652v8.827h-1.552v-6.33L7.56 10.14h-.05L4.745 6.003v6.305z"/></mask><filter id="qmzzc" width="95" height="32" x="-8" y="-8" filterUnits="userSpaceOnUse"><feOffset in="SourceGraphic" result="FeOffset1463Out"/><feGaussianBlur in="FeOffset1463Out" result="FeGaussianBlur1464Out" stdDeviation="0.4 0.4"/></filter><filter id="qmzze" width="200%" height="200%" x="-50%" y="-50%"><feGaussianBlur in="SourceGraphic" result="FeGaussianBlur1469Out" stdDeviation="0.5 0.5"/></filter><mask id="qmzzf"><path fill="#fff" d="M69.436 12.302V11.08l3.04-2.585C73.687 7.46 74.13 6.905 74.13 6.11c0-.87-.618-1.375-1.426-1.375-.807 0-1.362.441-2.03 1.324l-1.11-.87c.844-1.173 1.677-1.841 3.254-1.841 1.728 0 2.914 1.06 2.914 2.635v.026c0 1.387-.732 2.143-2.296 3.417l-1.817 1.513h4.201v1.362zm-9.766.07L56 3.481h1.715l2.662 6.784 2.649-6.785h1.677l-3.658 8.89zm-12.846-.064V3.481h1.438l4.73 6.104V3.48h1.527v8.827H53.22l-4.87-6.28v6.28zm-8.418 0V3.481h6.547v1.387h-4.995v2.295h4.428v1.388h-4.428v2.37h5.058v1.387zM28.114 4.894h-1.738v6.012h1.738c1.85 0 3.059-1.25 3.059-2.98V7.9c0-1.73-1.209-3.006-3.06-3.006zm-3.29 7.414V3.481h3.293c2.775 0 4.693 1.904 4.693 4.389v.025c0 2.484-1.918 4.413-4.693 4.413zm-6.45-1.286c1.754 0 2.978-1.387 2.978-3.102v-.025c0-1.715-1.25-3.14-3.003-3.14-1.753 0-2.977 1.4-2.977 3.115v.025c0 1.715 1.249 3.127 3.002 3.127zm-.02 1.438c-2.715 0-4.61-2.056-4.61-4.54v-.025c0-2.484 1.92-4.565 4.636-4.565 2.715 0 4.609 2.055 4.609 4.54v.025c0 2.484-1.92 4.565-4.635 4.565zM3.22 12.308V3.481h1.653L7.56 7.655l2.687-4.174h1.652v8.827h-1.552v-6.33L7.56 10.14h-.05L4.745 6.003v6.305z"/></mask></defs><g><g><g filter="url(#qmzza)"><path fill="none" d="M69.436 12.302V11.08l3.04-2.585C73.687 7.46 74.13 6.905 74.13 6.11c0-.87-.618-1.375-1.426-1.375-.807 0-1.362.441-2.03 1.324l-1.11-.87c.844-1.173 1.677-1.841 3.254-1.841 1.728 0 2.914 1.06 2.914 2.635v.026c0 1.387-.732 2.143-2.296 3.417l-1.817 1.513h4.201v1.362zm-9.766.07L56 3.481h1.715l2.662 6.784 2.649-6.785h1.677l-3.658 8.89zm-12.846-.064V3.481h1.438l4.73 6.104V3.48h1.527v8.827H53.22l-4.87-6.28v6.28zm-8.418 0V3.481h6.547v1.387h-4.995v2.295h4.428v1.388h-4.428v2.37h5.058v1.387zM28.114 4.894h-1.738v6.012h1.738c1.85 0 3.059-1.25 3.059-2.98V7.9c0-1.73-1.209-3.006-3.06-3.006zm-3.29 7.414V3.481h3.293c2.775 0 4.693 1.904 4.693 4.389v.025c0 2.484-1.918 4.413-4.693 4.413zm-6.45-1.286c1.754 0 2.978-1.387 2.978-3.102v-.025c0-1.715-1.25-3.14-3.003-3.14-1.753 0-2.977 1.4-2.977 3.115v.025c0 1.715 1.249 3.127 3.002 3.127zm-.02 1.438c-2.715 0-4.61-2.056-4.61-4.54v-.025c0-2.484 1.92-4.565 4.636-4.565 2.715 0 4.609 2.055 4.609 4.54v.025c0 2.484-1.92 4.565-4.635 4.565zM3.22 12.308V3.481h1.653L7.56 7.655l2.687-4.174h1.652v8.827h-1.552v-6.33L7.56 10.14h-.05L4.745 6.003v6.305z" mask="url(&quot;#qmzzb&quot;)"/><path d="M69.436 12.302V11.08l3.04-2.585C73.687 7.46 74.13 6.905 74.13 6.11c0-.87-.618-1.375-1.426-1.375-.807 0-1.362.441-2.03 1.324l-1.11-.87c.844-1.173 1.677-1.841 3.254-1.841 1.728 0 2.914 1.06 2.914 2.635v.026c0 1.387-.732 2.143-2.296 3.417l-1.817 1.513h4.201v1.362zm-9.766.07L56 3.481h1.715l2.662 6.784 2.649-6.785h1.677l-3.658 8.89zm-12.846-.064V3.481h1.438l4.73 6.104V3.48h1.527v8.827H53.22l-4.87-6.28v6.28zm-8.418 0V3.481h6.547v1.387h-4.995v2.295h4.428v1.388h-4.428v2.37h5.058v1.387zM28.114 4.894h-1.738v6.012h1.738c1.85 0 3.059-1.25 3.059-2.98V7.9c0-1.73-1.209-3.006-3.06-3.006zm-3.29 7.414V3.481h3.293c2.775 0 4.693 1.904 4.693 4.389v.025c0 2.484-1.918 4.413-4.693 4.413zm-6.45-1.286c1.754 0 2.978-1.387 2.978-3.102v-.025c0-1.715-1.25-3.14-3.003-3.14-1.753 0-2.977 1.4-2.977 3.115v.025c0 1.715 1.249 3.127 3.002 3.127zm-.02 1.438c-2.715 0-4.61-2.056-4.61-4.54v-.025c0-2.484 1.92-4.565 4.636-4.565 2.715 0 4.609 2.055 4.609 4.54v.025c0 2.484-1.92 4.565-4.635 4.565zM3.22 12.308V3.481h1.653L7.56 7.655l2.687-4.174h1.652v8.827h-1.552v-6.33L7.56 10.14h-.05L4.745 6.003v6.305z"/></g><g filter="url(#qmzzc)"><path fill="none" d="M69.436 12.302V11.08l3.04-2.585C73.687 7.46 74.13 6.905 74.13 6.11c0-.87-.618-1.375-1.426-1.375-.807 0-1.362.441-2.03 1.324l-1.11-.87c.844-1.173 1.677-1.841 3.254-1.841 1.728 0 2.914 1.06 2.914 2.635v.026c0 1.387-.732 2.143-2.296 3.417l-1.817 1.513h4.201v1.362zm-9.766.07L56 3.481h1.715l2.662 6.784 2.649-6.785h1.677l-3.658 8.89zm-12.846-.064V3.481h1.438l4.73 6.104V3.48h1.527v8.827H53.22l-4.87-6.28v6.28zm-8.418 0V3.481h6.547v1.387h-4.995v2.295h4.428v1.388h-4.428v2.37h5.058v1.387zM28.114 4.894h-1.738v6.012h1.738c1.85 0 3.059-1.25 3.059-2.98V7.9c0-1.73-1.209-3.006-3.06-3.006zm-3.29 7.414V3.481h3.293c2.775 0 4.693 1.904 4.693 4.389v.025c0 2.484-1.918 4.413-4.693 4.413zm-6.45-1.286c1.754 0 2.978-1.387 2.978-3.102v-.025c0-1.715-1.25-3.14-3.003-3.14-1.753 0-2.977 1.4-2.977 3.115v.025c0 1.715 1.249 3.127 3.002 3.127zm-.02 1.438c-2.715 0-4.61-2.056-4.61-4.54v-.025c0-2.484 1.92-4.565 4.636-4.565 2.715 0 4.609 2.055 4.609 4.54v.025c0 2.484-1.92 4.565-4.635 4.565zM3.22 12.308V3.481h1.653L7.56 7.655l2.687-4.174h1.652v8.827h-1.552v-6.33L7.56 10.14h-.05L4.745 6.003v6.305z" mask="url(&quot;#qmzzd&quot;)"/><path d="M69.436 12.302V11.08l3.04-2.585C73.687 7.46 74.13 6.905 74.13 6.11c0-.87-.618-1.375-1.426-1.375-.807 0-1.362.441-2.03 1.324l-1.11-.87c.844-1.173 1.677-1.841 3.254-1.841 1.728 0 2.914 1.06 2.914 2.635v.026c0 1.387-.732 2.143-2.296 3.417l-1.817 1.513h4.201v1.362zm-9.766.07L56 3.481h1.715l2.662 6.784 2.649-6.785h1.677l-3.658 8.89zm-12.846-.064V3.481h1.438l4.73 6.104V3.48h1.527v8.827H53.22l-4.87-6.28v6.28zm-8.418 0V3.481h6.547v1.387h-4.995v2.295h4.428v1.388h-4.428v2.37h5.058v1.387zM28.114 4.894h-1.738v6.012h1.738c1.85 0 3.059-1.25 3.059-2.98V7.9c0-1.73-1.209-3.006-3.06-3.006zm-3.29 7.414V3.481h3.293c2.775 0 4.693 1.904 4.693 4.389v.025c0 2.484-1.918 4.413-4.693 4.413zm-6.45-1.286c1.754 0 2.978-1.387 2.978-3.102v-.025c0-1.715-1.25-3.14-3.003-3.14-1.753 0-2.977 1.4-2.977 3.115v.025c0 1.715 1.249 3.127 3.002 3.127zm-.02 1.438c-2.715 0-4.61-2.056-4.61-4.54v-.025c0-2.484 1.92-4.565 4.636-4.565 2.715 0 4.609 2.055 4.609 4.54v.025c0 2.484-1.92 4.565-4.635 4.565zM3.22 12.308V3.481h1.653L7.56 7.655l2.687-4.174h1.652v8.827h-1.552v-6.33L7.56 10.14h-.05L4.745 6.003v6.305z"/></g><path fill="#d5d5d5" d="M69.436 12.302V11.08l3.04-2.585C73.687 7.46 74.13 6.905 74.13 6.11c0-.87-.618-1.375-1.426-1.375-.807 0-1.362.441-2.03 1.324l-1.11-.87c.844-1.173 1.677-1.841 3.254-1.841 1.728 0 2.914 1.06 2.914 2.635v.026c0 1.387-.732 2.143-2.296 3.417l-1.817 1.513h4.201v1.362zm-9.766.07L56 3.481h1.715l2.662 6.784 2.649-6.785h1.677l-3.658 8.89zm-12.846-.064V3.481h1.438l4.73 6.104V3.48h1.527v8.827H53.22l-4.87-6.28v6.28zm-8.418 0V3.481h6.547v1.387h-4.995v2.295h4.428v1.388h-4.428v2.37h5.058v1.387zM28.114 4.894h-1.738v6.012h1.738c1.85 0 3.059-1.25 3.059-2.98V7.9c0-1.73-1.209-3.006-3.06-3.006zm-3.29 7.414V3.481h3.293c2.775 0 4.693 1.904 4.693 4.389v.025c0 2.484-1.918 4.413-4.693 4.413zm-6.45-1.286c1.754 0 2.978-1.387 2.978-3.102v-.025c0-1.715-1.25-3.14-3.003-3.14-1.753 0-2.977 1.4-2.977 3.115v.025c0 1.715 1.249 3.127 3.002 3.127zm-.02 1.438c-2.715 0-4.61-2.056-4.61-4.54v-.025c0-2.484 1.92-4.565 4.636-4.565 2.715 0 4.609 2.055 4.609 4.54v.025c0 2.484-1.92 4.565-4.635 4.565zM3.22 12.308V3.481h1.653L7.56 7.655l2.687-4.174h1.652v8.827h-1.552v-6.33L7.56 10.14h-.05L4.745 6.003v6.305z"/><path fill-opacity=".5" d="M2 14.5v-13h75v13zm73.82-2.698V10.44h-4.202l1.817-1.513c1.564-1.274 2.296-2.03 2.296-3.417v-.026c0-1.576-1.186-2.635-2.914-2.635-1.577 0-2.41.668-3.255 1.841l1.11.87c.669-.883 1.224-1.324 2.031-1.324.808 0 1.426.504 1.426 1.375 0 .794-.442 1.349-1.653 2.383l-3.04 2.585v1.223zm-14.775.07l3.658-8.89h-1.677l-2.65 6.784-2.661-6.785h-1.716l3.671 8.89zm-12.694-.064v-6.28l4.869 6.28h1.3V2.981h-1.527v6.104l-4.73-6.104h-1.439v8.827zm-3.335 0v-1.387h-5.058v-2.37h4.428V6.663h-4.428V4.368h4.995V2.981h-6.547v8.827zM31.173 7.4v.025c0 1.73-1.209 2.981-3.06 2.981h-1.737V4.394h1.738c1.85 0 3.059 1.275 3.059 3.006zm-3.056 4.408c2.775 0 4.693-1.929 4.693-4.413V7.37c0-2.485-1.918-4.389-4.693-4.389h-3.292v8.827zM15.372 7.395V7.37c0-1.715 1.224-3.115 2.977-3.115 1.754 0 3.003 1.425 3.003 3.14v.025c0 1.715-1.224 3.102-2.978 3.102-1.753 0-3.002-1.412-3.002-3.127zm7.617 0V7.37c0-2.485-1.894-4.54-4.61-4.54-2.715 0-4.634 2.08-4.634 4.565v.025c0 2.484 1.894 4.54 4.61 4.54 2.714 0 4.634-2.08 4.634-4.565zM4.746 11.808V5.503L7.51 9.64h.05l2.788-4.16v6.33H11.9V2.98h-1.652L7.56 7.155 4.873 2.981H3.22v8.827z" filter="url(#qmzze)" mask="url(&quot;#qmzzf&quot;)"/></g></g></svg>