<svg xmlns="http://www.w3.org/2000/svg" width="42" height="42" viewBox="0 0 42 42"><defs><mask id="wsiec" width="2" height="2" x="-1" y="-1"><path fill="#fff" d="M13 13h16v16H13z"/><path d="M13 15a2 2 0 0 1 2-2h12a2 2 0 0 1 2 2v12a2 2 0 0 1-2 2H15a2 2 0 0 1-2-2zm1 12a1 1 0 0 0 1 1h12a1 1 0 0 0 1-1v-5.372l-.905-1.478-1.499 4.01-3.406-5.817-1.935 7.937-3.649-6.12-1.51 3.972-1.096-1.8zm14-12a1 1 0 0 0-1-1H15a1 1 0 0 0-1 1v5.405l.887 1.462 1.52-3.994 3.455 5.796 1.942-7.964 3.592 6.134 1.479-3.955L28 19.713z"/></mask><filter id="wsieb" width="64" height="64" x="-11" y="-11" filterUnits="userSpaceOnUse"><feOffset in="SourceGraphic" result="FeOffset1317Out"/><feGaussianBlur in="FeOffset1317Out" result="FeGaussianBlur1318Out" stdDeviation="5.6 5.6"/></filter><filter id="wsiea" width="160%" height="160%" x="-20%" y="-20%" filterUnits="objectBoundingBox"><feGaussianBlur in="SourceGraphic" result="FeGaussianBlur1321Out" stdDeviation="0.7561383928571429 0.7561383928571429"/></filter><mask id="wsief" width="2" height="2" x="-1" y="-1"><path fill="#fff" d="M13 13h16v16H13z"/><path d="M13 15a2 2 0 0 1 2-2h12a2 2 0 0 1 2 2v12a2 2 0 0 1-2 2H15a2 2 0 0 1-2-2zm1 12a1 1 0 0 0 1 1h12a1 1 0 0 0 1-1v-5.372l-.905-1.478-1.499 4.01-3.406-5.817-1.935 7.937-3.649-6.12-1.51 3.972-1.096-1.8zm14-12a1 1 0 0 0-1-1H15a1 1 0 0 0-1 1v5.405l.887 1.462 1.52-3.994 3.455 5.796 1.942-7.964 3.592 6.134 1.479-3.955L28 19.713z"/></mask><filter id="wsiee" width="44" height="44" x="-1" y="-1" filterUnits="userSpaceOnUse"><feOffset in="SourceGraphic" result="FeOffset1335Out"/><feGaussianBlur in="FeOffset1335Out" result="FeGaussianBlur1336Out" stdDeviation="1.6 1.6"/></filter><filter id="wsied" width="160%" height="160%" x="-20%" y="-20%" filterUnits="objectBoundingBox"><feGaussianBlur in="SourceGraphic" result="FeGaussianBlur1339Out" stdDeviation="0.7561383928571429 0.7561383928571429"/></filter><filter id="wsieg" width="200%" height="200%" x="-50%" y="-50%"><feGaussianBlur in="SourceGraphic" result="FeGaussianBlur1348Out" stdDeviation="0.025 0.025"/></filter><mask id="wsieh"><path fill="#fff" d="M13 15a2 2 0 0 1 2-2h12a2 2 0 0 1 2 2v12a2 2 0 0 1-2 2H15a2 2 0 0 1-2-2zm1 12a1 1 0 0 0 1 1h12a1 1 0 0 0 1-1v-5.372l-.905-1.478-1.499 4.01-3.406-5.817-1.935 7.937-3.649-6.12-1.51 3.972-1.096-1.8zm14-12a1 1 0 0 0-1-1H15a1 1 0 0 0-1 1v5.405l.887 1.462 1.52-3.994 3.455 5.796 1.942-7.964 3.592 6.134 1.479-3.955L28 19.713z"/></mask></defs><g><g filter="url(#wsiea)"><g filter="url(#wsieb)"><path fill="none" d="M13 15a2 2 0 0 1 2-2h12a2 2 0 0 1 2 2v12a2 2 0 0 1-2 2H15a2 2 0 0 1-2-2zm1 12a1 1 0 0 0 1 1h12a1 1 0 0 0 1-1v-5.372l-.905-1.478-1.499 4.01-3.406-5.817-1.935 7.937-3.649-6.12-1.51 3.972-1.096-1.8zm14-12a1 1 0 0 0-1-1H15a1 1 0 0 0-1 1v5.405l.887 1.462 1.52-3.994 3.455 5.796 1.942-7.964 3.592 6.134 1.479-3.955L28 19.713z" mask="url(&quot;#wsiec&quot;)"/><path fill="#db2235" d="M13 15a2 2 0 0 1 2-2h12a2 2 0 0 1 2 2v12a2 2 0 0 1-2 2H15a2 2 0 0 1-2-2zm1 12a1 1 0 0 0 1 1h12a1 1 0 0 0 1-1v-5.372l-.905-1.478-1.499 4.01-3.406-5.817-1.935 7.937-3.649-6.12-1.51 3.972-1.096-1.8zm14-12a1 1 0 0 0-1-1H15a1 1 0 0 0-1 1v5.405l.887 1.462 1.52-3.994 3.455 5.796 1.942-7.964 3.592 6.134 1.479-3.955L28 19.713z"/></g><path fill="#db2235" d="M13 15a2 2 0 0 1 2-2h12a2 2 0 0 1 2 2v12a2 2 0 0 1-2 2H15a2 2 0 0 1-2-2zm1 12a1 1 0 0 0 1 1h12a1 1 0 0 0 1-1v-5.372l-.905-1.478-1.499 4.01-3.406-5.817-1.935 7.937-3.649-6.12-1.51 3.972-1.096-1.8zm14-12a1 1 0 0 0-1-1H15a1 1 0 0 0-1 1v5.405l.887 1.462 1.52-3.994 3.455 5.796 1.942-7.964 3.592 6.134 1.479-3.955L28 19.713z"/></g><g filter="url(#wsied)"><g filter="url(#wsiee)"><path fill="none" d="M13 15a2 2 0 0 1 2-2h12a2 2 0 0 1 2 2v12a2 2 0 0 1-2 2H15a2 2 0 0 1-2-2zm1 12a1 1 0 0 0 1 1h12a1 1 0 0 0 1-1v-5.372l-.905-1.478-1.499 4.01-3.406-5.817-1.935 7.937-3.649-6.12-1.51 3.972-1.096-1.8zm14-12a1 1 0 0 0-1-1H15a1 1 0 0 0-1 1v5.405l.887 1.462 1.52-3.994 3.455 5.796 1.942-7.964 3.592 6.134 1.479-3.955L28 19.713z" mask="url(&quot;#wsief&quot;)"/><path fill="#db2235" d="M13 15a2 2 0 0 1 2-2h12a2 2 0 0 1 2 2v12a2 2 0 0 1-2 2H15a2 2 0 0 1-2-2zm1 12a1 1 0 0 0 1 1h12a1 1 0 0 0 1-1v-5.372l-.905-1.478-1.499 4.01-3.406-5.817-1.935 7.937-3.649-6.12-1.51 3.972-1.096-1.8zm14-12a1 1 0 0 0-1-1H15a1 1 0 0 0-1 1v5.405l.887 1.462 1.52-3.994 3.455 5.796 1.942-7.964 3.592 6.134 1.479-3.955L28 19.713z"/></g><path fill="#db2235" d="M13 15a2 2 0 0 1 2-2h12a2 2 0 0 1 2 2v12a2 2 0 0 1-2 2H15a2 2 0 0 1-2-2zm1 12a1 1 0 0 0 1 1h12a1 1 0 0 0 1-1v-5.372l-.905-1.478-1.499 4.01-3.406-5.817-1.935 7.937-3.649-6.12-1.51 3.972-1.096-1.8zm14-12a1 1 0 0 0-1-1H15a1 1 0 0 0-1 1v5.405l.887 1.462 1.52-3.994 3.455 5.796 1.942-7.964 3.592 6.134 1.479-3.955L28 19.713z"/></g><g><path fill="#fff" d="M13 15a2 2 0 0 1 2-2h12a2 2 0 0 1 2 2v12a2 2 0 0 1-2 2H15a2 2 0 0 1-2-2zm1 12a1 1 0 0 0 1 1h12a1 1 0 0 0 1-1v-5.372l-.905-1.478-1.499 4.01-3.406-5.817-1.935 7.937-3.649-6.12-1.51 3.972-1.096-1.8zm14-12a1 1 0 0 0-1-1H15a1 1 0 0 0-1 1v5.405l.887 1.462 1.52-3.994 3.455 5.796 1.942-7.964 3.592 6.134 1.479-3.955L28 19.713z"/><path fill="#db2235" d="M12.95 29.05v-16.1h16.1v16.1zM13 27a2 2 0 0 0 2 2h12a2 2 0 0 0 2-2V15a2 2 0 0 0-2-2H15a2 2 0 0 0-2 2zm1-4.668l1.095 1.8 1.511-3.971 3.65 6.12 1.934-7.938 3.406 5.817 1.5-4.01.904 1.478V27a1 1 0 0 1-1 1H15a1 1 0 0 1-1-1zm14-2.62l-1.125-1.828-1.479 3.955-3.592-6.134-1.942 7.964-3.456-5.796-1.519 3.994L14 20.405V15a1 1 0 0 1 1-1h12a1 1 0 0 1 1 1z" filter="url(#wsieg)" mask="url(&quot;#wsieh&quot;)"/></g></g></svg>