<svg xmlns="http://www.w3.org/2000/svg" width="18" height="18" viewBox="0 0 18 18"><defs><mask id="eyorb" width="2" height="2" x="-1" y="-1"><path fill="#fff" d="M1 1h16v16H1z"/><path d="M1 3a2 2 0 0 1 2-2h12a2 2 0 0 1 2 2v12a2 2 0 0 1-2 2H3a2 2 0 0 1-2-2zm1 12a1 1 0 0 0 1 1h12a1 1 0 0 0 1-1V9.628l-.905-1.478-1.499 4.01-3.406-5.817-1.935 7.937-3.649-6.12-1.51 3.972L2 10.332zM16 3a1 1 0 0 0-1-1H3a1 1 0 0 0-1 1v5.405l.887 1.462 1.52-3.994 3.455 5.796 1.942-7.964 3.592 6.134 1.479-3.955L16 7.713z"/></mask><filter id="eyora" width="38" height="38.5" x="-10" y="-10" filterUnits="userSpaceOnUse"><feOffset dy=".5" in="SourceGraphic" result="FeOffset1281Out"/><feGaussianBlur in="FeOffset1281Out" result="FeGaussianBlur1282Out" stdDeviation="0.4 0.4"/></filter><mask id="eyord" width="2" height="2" x="-1" y="-1"><path fill="#fff" d="M1 1h16v16H1z"/><path d="M1 3a2 2 0 0 1 2-2h12a2 2 0 0 1 2 2v12a2 2 0 0 1-2 2H3a2 2 0 0 1-2-2zm1 12a1 1 0 0 0 1 1h12a1 1 0 0 0 1-1V9.628l-.905-1.478-1.499 4.01-3.406-5.817-1.935 7.937-3.649-6.12-1.51 3.972L2 10.332zM16 3a1 1 0 0 0-1-1H3a1 1 0 0 0-1 1v5.405l.887 1.462 1.52-3.994 3.455 5.796 1.942-7.964 3.592 6.134 1.479-3.955L16 7.713z"/></mask><filter id="eyorc" width="38" height="38.5" x="-10" y="-10.5" filterUnits="userSpaceOnUse"><feOffset dy="-.5" in="SourceGraphic" result="FeOffset1292Out"/><feGaussianBlur in="FeOffset1292Out" result="FeGaussianBlur1293Out" stdDeviation="0.4 0.4"/></filter><filter id="eyore" width="200%" height="200%" x="-50%" y="-50%"><feGaussianBlur in="SourceGraphic" result="FeGaussianBlur1298Out" stdDeviation="1 1"/></filter><mask id="eyorf"><path fill="#fff" d="M1 3a2 2 0 0 1 2-2h12a2 2 0 0 1 2 2v12a2 2 0 0 1-2 2H3a2 2 0 0 1-2-2zm1 12a1 1 0 0 0 1 1h12a1 1 0 0 0 1-1V9.628l-.905-1.478-1.499 4.01-3.406-5.817-1.935 7.937-3.649-6.12-1.51 3.972L2 10.332zM16 3a1 1 0 0 0-1-1H3a1 1 0 0 0-1 1v5.405l.887 1.462 1.52-3.994 3.455 5.796 1.942-7.964 3.592 6.134 1.479-3.955L16 7.713z"/></mask></defs><g><g><g filter="url(#eyora)"><path fill="none" d="M1 3a2 2 0 0 1 2-2h12a2 2 0 0 1 2 2v12a2 2 0 0 1-2 2H3a2 2 0 0 1-2-2zm1 12a1 1 0 0 0 1 1h12a1 1 0 0 0 1-1V9.628l-.905-1.478-1.499 4.01-3.406-5.817-1.935 7.937-3.649-6.12-1.51 3.972L2 10.332zM16 3a1 1 0 0 0-1-1H3a1 1 0 0 0-1 1v5.405l.887 1.462 1.52-3.994 3.455 5.796 1.942-7.964 3.592 6.134 1.479-3.955L16 7.713z" mask="url(&quot;#eyorb&quot;)"/><path fill="#fff" fill-opacity=".24" d="M1 3a2 2 0 0 1 2-2h12a2 2 0 0 1 2 2v12a2 2 0 0 1-2 2H3a2 2 0 0 1-2-2zm1 12a1 1 0 0 0 1 1h12a1 1 0 0 0 1-1V9.628l-.905-1.478-1.499 4.01-3.406-5.817-1.935 7.937-3.649-6.12-1.51 3.972L2 10.332zM16 3a1 1 0 0 0-1-1H3a1 1 0 0 0-1 1v5.405l.887 1.462 1.52-3.994 3.455 5.796 1.942-7.964 3.592 6.134 1.479-3.955L16 7.713z"/></g><g filter="url(#eyorc)"><path fill="none" d="M1 3a2 2 0 0 1 2-2h12a2 2 0 0 1 2 2v12a2 2 0 0 1-2 2H3a2 2 0 0 1-2-2zm1 12a1 1 0 0 0 1 1h12a1 1 0 0 0 1-1V9.628l-.905-1.478-1.499 4.01-3.406-5.817-1.935 7.937-3.649-6.12-1.51 3.972L2 10.332zM16 3a1 1 0 0 0-1-1H3a1 1 0 0 0-1 1v5.405l.887 1.462 1.52-3.994 3.455 5.796 1.942-7.964 3.592 6.134 1.479-3.955L16 7.713z" mask="url(&quot;#eyord&quot;)"/><path fill-opacity=".24" d="M1 3a2 2 0 0 1 2-2h12a2 2 0 0 1 2 2v12a2 2 0 0 1-2 2H3a2 2 0 0 1-2-2zm1 12a1 1 0 0 0 1 1h12a1 1 0 0 0 1-1V9.628l-.905-1.478-1.499 4.01-3.406-5.817-1.935 7.937-3.649-6.12-1.51 3.972L2 10.332zM16 3a1 1 0 0 0-1-1H3a1 1 0 0 0-1 1v5.405l.887 1.462 1.52-3.994 3.455 5.796 1.942-7.964 3.592 6.134 1.479-3.955L16 7.713z"/></g><path fill-opacity=".54" d="M1 3a2 2 0 0 1 2-2h12a2 2 0 0 1 2 2v12a2 2 0 0 1-2 2H3a2 2 0 0 1-2-2zm1 12a1 1 0 0 0 1 1h12a1 1 0 0 0 1-1V9.628l-.905-1.478-1.499 4.01-3.406-5.817-1.935 7.937-3.649-6.12-1.51 3.972L2 10.332zM16 3a1 1 0 0 0-1-1H3a1 1 0 0 0-1 1v5.405l.887 1.462 1.52-3.994 3.455 5.796 1.942-7.964 3.592 6.134 1.479-3.955L16 7.713z"/><path fill-opacity=".5" d="M-1 20V-2h20v22zm2-4a2 2 0 0 0 2 2h12a2 2 0 0 0 2-2V4a2 2 0 0 0-2-2H3a2 2 0 0 0-2 2zm1-4.668l1.095 1.8 1.511-3.971 3.65 6.12 1.934-7.938 3.406 5.817 1.5-4.01.904 1.478V16a1 1 0 0 1-1 1H3a1 1 0 0 1-1-1zm14-2.62l-1.125-1.828-1.479 3.955-3.592-6.134-1.942 7.964-3.456-5.796-1.519 3.994L2 9.405V4a1 1 0 0 1 1-1h12a1 1 0 0 1 1 1z" filter="url(#eyore)" mask="url(&quot;#eyorf&quot;)"/></g></g></svg>