<svg xmlns="http://www.w3.org/2000/svg" width="43" height="16" viewBox="0 0 43 16"><defs><mask id="l50mb" width="2" height="2" x="-1" y="-1"><path fill="#fff" d="M3 3h38v10H3z"/><path d="M40.452 9.75v-.025c0-1.613-1.246-2.288-2.567-2.45l2.43-2.5v-1.15h-5.769v1.337h3.775l-2.354 2.513.249.963h.71c1.22 0 2.006.487 2.006 1.35v.024c0 .8-.648 1.326-1.508 1.326-.972 0-1.67-.413-2.292-1.15l-1.072 1c.735.9 1.82 1.537 3.34 1.537 1.818 0 3.052-1.163 3.052-2.775zM29.418 11l-.985-1c-.749.7-1.435 1.125-2.508 1.125-1.671 0-2.881-1.387-2.881-3.1V8c0-1.712 1.222-3.087 2.881-3.087.998 0 1.747.437 2.445 1.087l.986-1.137c-.836-.8-1.809-1.363-3.418-1.363-2.645 0-4.503 2.038-4.503 4.525v.025c0 2.513 1.896 4.5 4.44 4.5 1.635 0 2.633-.6 3.543-1.55zm-9.36-1.095V9.88c0-1.448-.949-2.11-2.795-2.56-1.685-.399-2.084-.698-2.084-1.373v-.025c0-.574.524-1.036 1.423-1.036.798 0 1.584.312 2.37.899l.824-1.161c-.886-.712-1.897-1.099-3.17-1.099-1.734 0-2.982 1.036-2.982 2.535v.025c0 1.61 1.048 2.16 2.908 2.61 1.622.374 1.971.711 1.971 1.335v.025c0 .65-.599 1.099-1.547 1.099-1.073 0-1.922-.412-2.758-1.136l-.923 1.099a5.378 5.378 0 0 0 3.643 1.398c1.835 0 3.12-.974 3.12-2.61zM4.608 8.03v-.025c0-1.703 1.206-3.092 2.935-3.092 1.728 0 2.96 1.414 2.96 3.117v.025c0 1.703-1.207 3.08-2.936 3.08-1.728 0-2.96-1.402-2.96-3.105zm7.512-.005V8c0-2.462-1.869-4.5-4.548-4.5C4.894 3.5 3 5.563 3 8.025v.025c0 2.462 1.869 4.5 4.548 4.5 2.678 0 4.572-2.063 4.572-4.525z"/></mask><filter id="l50ma" width="64" height="36" x="-10" y="-10" filterUnits="userSpaceOnUse"><feOffset in="SourceGraphic" result="FeOffset1095Out"/><feGaussianBlur in="FeOffset1095Out" result="FeGaussianBlur1096Out" stdDeviation="1.2 1.2"/></filter><mask id="l50md" width="2" height="2" x="-1" y="-1"><path fill="#fff" d="M3 3h38v10H3z"/><path d="M40.452 9.75v-.025c0-1.613-1.246-2.288-2.567-2.45l2.43-2.5v-1.15h-5.769v1.337h3.775l-2.354 2.513.249.963h.71c1.22 0 2.006.487 2.006 1.35v.024c0 .8-.648 1.326-1.508 1.326-.972 0-1.67-.413-2.292-1.15l-1.072 1c.735.9 1.82 1.537 3.34 1.537 1.818 0 3.052-1.163 3.052-2.775zM29.418 11l-.985-1c-.749.7-1.435 1.125-2.508 1.125-1.671 0-2.881-1.387-2.881-3.1V8c0-1.712 1.222-3.087 2.881-3.087.998 0 1.747.437 2.445 1.087l.986-1.137c-.836-.8-1.809-1.363-3.418-1.363-2.645 0-4.503 2.038-4.503 4.525v.025c0 2.513 1.896 4.5 4.44 4.5 1.635 0 2.633-.6 3.543-1.55zm-9.36-1.095V9.88c0-1.448-.949-2.11-2.795-2.56-1.685-.399-2.084-.698-2.084-1.373v-.025c0-.574.524-1.036 1.423-1.036.798 0 1.584.312 2.37.899l.824-1.161c-.886-.712-1.897-1.099-3.17-1.099-1.734 0-2.982 1.036-2.982 2.535v.025c0 1.61 1.048 2.16 2.908 2.61 1.622.374 1.971.711 1.971 1.335v.025c0 .65-.599 1.099-1.547 1.099-1.073 0-1.922-.412-2.758-1.136l-.923 1.099a5.378 5.378 0 0 0 3.643 1.398c1.835 0 3.12-.974 3.12-2.61zM4.608 8.03v-.025c0-1.703 1.206-3.092 2.935-3.092 1.728 0 2.96 1.414 2.96 3.117v.025c0 1.703-1.207 3.08-2.936 3.08-1.728 0-2.96-1.402-2.96-3.105zm7.512-.005V8c0-2.462-1.869-4.5-4.548-4.5C4.894 3.5 3 5.563 3 8.025v.025c0 2.462 1.869 4.5 4.548 4.5 2.678 0 4.572-2.063 4.572-4.525z"/></mask><filter id="l50mc" width="60" height="32" x="-8" y="-8" filterUnits="userSpaceOnUse"><feOffset in="SourceGraphic" result="FeOffset1106Out"/><feGaussianBlur in="FeOffset1106Out" result="FeGaussianBlur1107Out" stdDeviation="0.4 0.4"/></filter><filter id="l50me" width="200%" height="200%" x="-50%" y="-50%"><feGaussianBlur in="SourceGraphic" result="FeGaussianBlur1112Out" stdDeviation="0.5 0.5"/></filter><mask id="l50mf"><path fill="#fff" d="M40.452 9.75v-.025c0-1.613-1.246-2.288-2.567-2.45l2.43-2.5v-1.15h-5.769v1.337h3.775l-2.354 2.513.249.963h.71c1.22 0 2.006.487 2.006 1.35v.024c0 .8-.648 1.326-1.508 1.326-.972 0-1.67-.413-2.292-1.15l-1.072 1c.735.9 1.82 1.537 3.34 1.537 1.818 0 3.052-1.163 3.052-2.775zM29.418 11l-.985-1c-.749.7-1.435 1.125-2.508 1.125-1.671 0-2.881-1.387-2.881-3.1V8c0-1.712 1.222-3.087 2.881-3.087.998 0 1.747.437 2.445 1.087l.986-1.137c-.836-.8-1.809-1.363-3.418-1.363-2.645 0-4.503 2.038-4.503 4.525v.025c0 2.513 1.896 4.5 4.44 4.5 1.635 0 2.633-.6 3.543-1.55zm-9.36-1.095V9.88c0-1.448-.949-2.11-2.795-2.56-1.685-.399-2.084-.698-2.084-1.373v-.025c0-.574.524-1.036 1.423-1.036.798 0 1.584.312 2.37.899l.824-1.161c-.886-.712-1.897-1.099-3.17-1.099-1.734 0-2.982 1.036-2.982 2.535v.025c0 1.61 1.048 2.16 2.908 2.61 1.622.374 1.971.711 1.971 1.335v.025c0 .65-.599 1.099-1.547 1.099-1.073 0-1.922-.412-2.758-1.136l-.923 1.099a5.378 5.378 0 0 0 3.643 1.398c1.835 0 3.12-.974 3.12-2.61zM4.608 8.03v-.025c0-1.703 1.206-3.092 2.935-3.092 1.728 0 2.96 1.414 2.96 3.117v.025c0 1.703-1.207 3.08-2.936 3.08-1.728 0-2.96-1.402-2.96-3.105zm7.512-.005V8c0-2.462-1.869-4.5-4.548-4.5C4.894 3.5 3 5.563 3 8.025v.025c0 2.462 1.869 4.5 4.548 4.5 2.678 0 4.572-2.063 4.572-4.525z"/></mask></defs><g><g><g filter="url(#l50ma)"><path fill="none" d="M40.452 9.75v-.025c0-1.613-1.246-2.288-2.567-2.45l2.43-2.5v-1.15h-5.769v1.337h3.775l-2.354 2.513.249.963h.71c1.22 0 2.006.487 2.006 1.35v.024c0 .8-.648 1.326-1.508 1.326-.972 0-1.67-.413-2.292-1.15l-1.072 1c.735.9 1.82 1.537 3.34 1.537 1.818 0 3.052-1.163 3.052-2.775zM29.418 11l-.985-1c-.749.7-1.435 1.125-2.508 1.125-1.671 0-2.881-1.387-2.881-3.1V8c0-1.712 1.222-3.087 2.881-3.087.998 0 1.747.437 2.445 1.087l.986-1.137c-.836-.8-1.809-1.363-3.418-1.363-2.645 0-4.503 2.038-4.503 4.525v.025c0 2.513 1.896 4.5 4.44 4.5 1.635 0 2.633-.6 3.543-1.55zm-9.36-1.095V9.88c0-1.448-.949-2.11-2.795-2.56-1.685-.399-2.084-.698-2.084-1.373v-.025c0-.574.524-1.036 1.423-1.036.798 0 1.584.312 2.37.899l.824-1.161c-.886-.712-1.897-1.099-3.17-1.099-1.734 0-2.982 1.036-2.982 2.535v.025c0 1.61 1.048 2.16 2.908 2.61 1.622.374 1.971.711 1.971 1.335v.025c0 .65-.599 1.099-1.547 1.099-1.073 0-1.922-.412-2.758-1.136l-.923 1.099a5.378 5.378 0 0 0 3.643 1.398c1.835 0 3.12-.974 3.12-2.61zM4.608 8.03v-.025c0-1.703 1.206-3.092 2.935-3.092 1.728 0 2.96 1.414 2.96 3.117v.025c0 1.703-1.207 3.08-2.936 3.08-1.728 0-2.96-1.402-2.96-3.105zm7.512-.005V8c0-2.462-1.869-4.5-4.548-4.5C4.894 3.5 3 5.563 3 8.025v.025c0 2.462 1.869 4.5 4.548 4.5 2.678 0 4.572-2.063 4.572-4.525z" mask="url(&quot;#l50mb&quot;)"/><path d="M40.452 9.75v-.025c0-1.613-1.246-2.288-2.567-2.45l2.43-2.5v-1.15h-5.769v1.337h3.775l-2.354 2.513.249.963h.71c1.22 0 2.006.487 2.006 1.35v.024c0 .8-.648 1.326-1.508 1.326-.972 0-1.67-.413-2.292-1.15l-1.072 1c.735.9 1.82 1.537 3.34 1.537 1.818 0 3.052-1.163 3.052-2.775zM29.418 11l-.985-1c-.749.7-1.435 1.125-2.508 1.125-1.671 0-2.881-1.387-2.881-3.1V8c0-1.712 1.222-3.087 2.881-3.087.998 0 1.747.437 2.445 1.087l.986-1.137c-.836-.8-1.809-1.363-3.418-1.363-2.645 0-4.503 2.038-4.503 4.525v.025c0 2.513 1.896 4.5 4.44 4.5 1.635 0 2.633-.6 3.543-1.55zm-9.36-1.095V9.88c0-1.448-.949-2.11-2.795-2.56-1.685-.399-2.084-.698-2.084-1.373v-.025c0-.574.524-1.036 1.423-1.036.798 0 1.584.312 2.37.899l.824-1.161c-.886-.712-1.897-1.099-3.17-1.099-1.734 0-2.982 1.036-2.982 2.535v.025c0 1.61 1.048 2.16 2.908 2.61 1.622.374 1.971.711 1.971 1.335v.025c0 .65-.599 1.099-1.547 1.099-1.073 0-1.922-.412-2.758-1.136l-.923 1.099a5.378 5.378 0 0 0 3.643 1.398c1.835 0 3.12-.974 3.12-2.61zM4.608 8.03v-.025c0-1.703 1.206-3.092 2.935-3.092 1.728 0 2.96 1.414 2.96 3.117v.025c0 1.703-1.207 3.08-2.936 3.08-1.728 0-2.96-1.402-2.96-3.105zm7.512-.005V8c0-2.462-1.869-4.5-4.548-4.5C4.894 3.5 3 5.563 3 8.025v.025c0 2.462 1.869 4.5 4.548 4.5 2.678 0 4.572-2.063 4.572-4.525z"/></g><g filter="url(#l50mc)"><path fill="none" d="M40.452 9.75v-.025c0-1.613-1.246-2.288-2.567-2.45l2.43-2.5v-1.15h-5.769v1.337h3.775l-2.354 2.513.249.963h.71c1.22 0 2.006.487 2.006 1.35v.024c0 .8-.648 1.326-1.508 1.326-.972 0-1.67-.413-2.292-1.15l-1.072 1c.735.9 1.82 1.537 3.34 1.537 1.818 0 3.052-1.163 3.052-2.775zM29.418 11l-.985-1c-.749.7-1.435 1.125-2.508 1.125-1.671 0-2.881-1.387-2.881-3.1V8c0-1.712 1.222-3.087 2.881-3.087.998 0 1.747.437 2.445 1.087l.986-1.137c-.836-.8-1.809-1.363-3.418-1.363-2.645 0-4.503 2.038-4.503 4.525v.025c0 2.513 1.896 4.5 4.44 4.5 1.635 0 2.633-.6 3.543-1.55zm-9.36-1.095V9.88c0-1.448-.949-2.11-2.795-2.56-1.685-.399-2.084-.698-2.084-1.373v-.025c0-.574.524-1.036 1.423-1.036.798 0 1.584.312 2.37.899l.824-1.161c-.886-.712-1.897-1.099-3.17-1.099-1.734 0-2.982 1.036-2.982 2.535v.025c0 1.61 1.048 2.16 2.908 2.61 1.622.374 1.971.711 1.971 1.335v.025c0 .65-.599 1.099-1.547 1.099-1.073 0-1.922-.412-2.758-1.136l-.923 1.099a5.378 5.378 0 0 0 3.643 1.398c1.835 0 3.12-.974 3.12-2.61zM4.608 8.03v-.025c0-1.703 1.206-3.092 2.935-3.092 1.728 0 2.96 1.414 2.96 3.117v.025c0 1.703-1.207 3.08-2.936 3.08-1.728 0-2.96-1.402-2.96-3.105zm7.512-.005V8c0-2.462-1.869-4.5-4.548-4.5C4.894 3.5 3 5.563 3 8.025v.025c0 2.462 1.869 4.5 4.548 4.5 2.678 0 4.572-2.063 4.572-4.525z" mask="url(&quot;#l50md&quot;)"/><path d="M40.452 9.75v-.025c0-1.613-1.246-2.288-2.567-2.45l2.43-2.5v-1.15h-5.769v1.337h3.775l-2.354 2.513.249.963h.71c1.22 0 2.006.487 2.006 1.35v.024c0 .8-.648 1.326-1.508 1.326-.972 0-1.67-.413-2.292-1.15l-1.072 1c.735.9 1.82 1.537 3.34 1.537 1.818 0 3.052-1.163 3.052-2.775zM29.418 11l-.985-1c-.749.7-1.435 1.125-2.508 1.125-1.671 0-2.881-1.387-2.881-3.1V8c0-1.712 1.222-3.087 2.881-3.087.998 0 1.747.437 2.445 1.087l.986-1.137c-.836-.8-1.809-1.363-3.418-1.363-2.645 0-4.503 2.038-4.503 4.525v.025c0 2.513 1.896 4.5 4.44 4.5 1.635 0 2.633-.6 3.543-1.55zm-9.36-1.095V9.88c0-1.448-.949-2.11-2.795-2.56-1.685-.399-2.084-.698-2.084-1.373v-.025c0-.574.524-1.036 1.423-1.036.798 0 1.584.312 2.37.899l.824-1.161c-.886-.712-1.897-1.099-3.17-1.099-1.734 0-2.982 1.036-2.982 2.535v.025c0 1.61 1.048 2.16 2.908 2.61 1.622.374 1.971.711 1.971 1.335v.025c0 .65-.599 1.099-1.547 1.099-1.073 0-1.922-.412-2.758-1.136l-.923 1.099a5.378 5.378 0 0 0 3.643 1.398c1.835 0 3.12-.974 3.12-2.61zM4.608 8.03v-.025c0-1.703 1.206-3.092 2.935-3.092 1.728 0 2.96 1.414 2.96 3.117v.025c0 1.703-1.207 3.08-2.936 3.08-1.728 0-2.96-1.402-2.96-3.105zm7.512-.005V8c0-2.462-1.869-4.5-4.548-4.5C4.894 3.5 3 5.563 3 8.025v.025c0 2.462 1.869 4.5 4.548 4.5 2.678 0 4.572-2.063 4.572-4.525z"/></g><path fill="#d5d5d5" d="M40.452 9.75v-.025c0-1.613-1.246-2.288-2.567-2.45l2.43-2.5v-1.15h-5.769v1.337h3.775l-2.354 2.513.249.963h.71c1.22 0 2.006.487 2.006 1.35v.024c0 .8-.648 1.326-1.508 1.326-.972 0-1.67-.413-2.292-1.15l-1.072 1c.735.9 1.82 1.537 3.34 1.537 1.818 0 3.052-1.163 3.052-2.775zM29.418 11l-.985-1c-.749.7-1.435 1.125-2.508 1.125-1.671 0-2.881-1.387-2.881-3.1V8c0-1.712 1.222-3.087 2.881-3.087.998 0 1.747.437 2.445 1.087l.986-1.137c-.836-.8-1.809-1.363-3.418-1.363-2.645 0-4.503 2.038-4.503 4.525v.025c0 2.513 1.896 4.5 4.44 4.5 1.635 0 2.633-.6 3.543-1.55zm-9.36-1.095V9.88c0-1.448-.949-2.11-2.795-2.56-1.685-.399-2.084-.698-2.084-1.373v-.025c0-.574.524-1.036 1.423-1.036.798 0 1.584.312 2.37.899l.824-1.161c-.886-.712-1.897-1.099-3.17-1.099-1.734 0-2.982 1.036-2.982 2.535v.025c0 1.61 1.048 2.16 2.908 2.61 1.622.374 1.971.711 1.971 1.335v.025c0 .65-.599 1.099-1.547 1.099-1.073 0-1.922-.412-2.758-1.136l-.923 1.099a5.378 5.378 0 0 0 3.643 1.398c1.835 0 3.12-.974 3.12-2.61zM4.608 8.03v-.025c0-1.703 1.206-3.092 2.935-3.092 1.728 0 2.96 1.414 2.96 3.117v.025c0 1.703-1.207 3.08-2.936 3.08-1.728 0-2.96-1.402-2.96-3.105zm7.512-.005V8c0-2.462-1.869-4.5-4.548-4.5C4.894 3.5 3 5.563 3 8.025v.025c0 2.462 1.869 4.5 4.548 4.5 2.678 0 4.572-2.063 4.572-4.525z"/><path fill-opacity=".5" d="M2 14.5v-13h40v13zm38.452-5.25v-.025c0-1.613-1.246-2.288-2.567-2.45l2.43-2.5v-1.15h-5.769v1.337h3.775l-2.354 2.513.249.963h.71c1.22 0 2.006.487 2.006 1.35v.024c0 .8-.648 1.326-1.508 1.326-.972 0-1.67-.413-2.292-1.15l-1.072 1c.735.9 1.82 1.537 3.34 1.537 1.818 0 3.052-1.163 3.052-2.775zM29.418 10.5l-.985-1c-.749.7-1.435 1.125-2.508 1.125-1.671 0-2.881-1.387-2.881-3.1V7.5c0-1.712 1.222-3.087 2.881-3.087.998 0 1.747.437 2.445 1.087l.986-1.137C28.52 3.563 27.547 3 25.938 3c-2.645 0-4.503 2.038-4.503 4.525v.025c0 2.513 1.896 4.5 4.44 4.5 1.635 0 2.633-.6 3.543-1.55zm-9.36-1.12c0-1.448-.949-2.11-2.795-2.56-1.685-.399-2.084-.698-2.084-1.373v-.025c0-.574.524-1.036 1.423-1.036.798 0 1.584.312 2.37.899l.824-1.161c-.886-.712-1.897-1.099-3.17-1.099-1.734 0-2.982 1.036-2.982 2.535v.025c0 1.61 1.048 2.16 2.908 2.61 1.622.374 1.971.711 1.971 1.335v.025c0 .65-.599 1.099-1.547 1.099-1.073 0-1.922-.412-2.758-1.136l-.923 1.099a5.378 5.378 0 0 0 3.643 1.398c1.835 0 3.12-.974 3.12-2.61zM4.608 7.53v-.025c0-1.703 1.206-3.092 2.935-3.092 1.728 0 2.96 1.414 2.96 3.117v.025c0 1.703-1.207 3.08-2.936 3.08-1.728 0-2.96-1.402-2.96-3.105zm7.512-.005V7.5c0-2.462-1.869-4.5-4.548-4.5C4.894 3 3 5.063 3 7.525v.025c0 2.463 1.869 4.5 4.548 4.5 2.678 0 4.572-2.063 4.572-4.525z" filter="url(#l50me)" mask="url(&quot;#l50mf&quot;)"/></g></g></svg>