<svg xmlns="http://www.w3.org/2000/svg" width="41" height="15" viewBox="0 0 41 15"><defs><mask id="8ywxb" width="2" height="2" x="-1" y="-1"><path fill="#fff" d="M3 3h35v9H3z"/><path d="M38 11.85V3.088h-1.08l-2.403.746.33 1.243 1.602-.435v7.21zm-8.055-1.391l-1.004-.995c-.763.696-1.462 1.119-2.555 1.119-1.704 0-2.937-1.38-2.937-3.083v-.025c0-1.703 1.246-3.07 2.937-3.07 1.017 0 1.78.435 2.491 1.081l1.005-1.131C29.03 3.559 28.038 3 26.399 3c-2.695 0-4.59 2.026-4.59 4.5v.025c0 2.498 1.933 4.475 4.526 4.475 1.665 0 2.682-.597 3.61-1.541zm-9.55-1.075V9.36c0-1.443-.967-2.103-2.848-2.55-1.716-.4-2.123-.698-2.123-1.37v-.025c0-.572.534-1.033 1.45-1.033.813 0 1.614.311 2.414.896l.84-1.157c-.903-.71-1.933-1.095-3.23-1.095-1.767 0-3.038 1.033-3.038 2.526v.025c0 1.605 1.068 2.153 2.962 2.601 1.653.373 2.009.71 2.009 1.332v.025c0 .647-.61 1.095-1.577 1.095-1.093 0-1.957-.411-2.809-1.133l-.94 1.095a5.549 5.549 0 0 0 3.711 1.394c1.869 0 3.178-.97 3.178-2.6zM4.64 7.5v-.025c0-1.69 1.233-3.07 3-3.07s3.026 1.404 3.026 3.095v.025c0 1.69-1.234 3.058-3 3.058-1.768 0-3.026-1.392-3.026-3.083zm7.665 0v-.025C12.305 5.026 10.4 3 7.665 3 4.932 3 3 5.051 3 7.5v.025C3 9.974 4.907 12 7.64 12c2.733 0 4.665-2.051 4.665-4.5z"/></mask><filter id="8ywxa" width="61" height="35" x="-10" y="-10" filterUnits="userSpaceOnUse"><feOffset in="SourceGraphic" result="FeOffset1023Out"/><feGaussianBlur in="FeOffset1023Out" result="FeGaussianBlur1024Out" stdDeviation="1.2 1.2"/></filter><mask id="8ywxd" width="2" height="2" x="-1" y="-1"><path fill="#fff" d="M3 3h35v9H3z"/><path d="M38 11.85V3.088h-1.08l-2.403.746.33 1.243 1.602-.435v7.21zm-8.055-1.391l-1.004-.995c-.763.696-1.462 1.119-2.555 1.119-1.704 0-2.937-1.38-2.937-3.083v-.025c0-1.703 1.246-3.07 2.937-3.07 1.017 0 1.78.435 2.491 1.081l1.005-1.131C29.03 3.559 28.038 3 26.399 3c-2.695 0-4.59 2.026-4.59 4.5v.025c0 2.498 1.933 4.475 4.526 4.475 1.665 0 2.682-.597 3.61-1.541zm-9.55-1.075V9.36c0-1.443-.967-2.103-2.848-2.55-1.716-.4-2.123-.698-2.123-1.37v-.025c0-.572.534-1.033 1.45-1.033.813 0 1.614.311 2.414.896l.84-1.157c-.903-.71-1.933-1.095-3.23-1.095-1.767 0-3.038 1.033-3.038 2.526v.025c0 1.605 1.068 2.153 2.962 2.601 1.653.373 2.009.71 2.009 1.332v.025c0 .647-.61 1.095-1.577 1.095-1.093 0-1.957-.411-2.809-1.133l-.94 1.095a5.549 5.549 0 0 0 3.711 1.394c1.869 0 3.178-.97 3.178-2.6zM4.64 7.5v-.025c0-1.69 1.233-3.07 3-3.07s3.026 1.404 3.026 3.095v.025c0 1.69-1.234 3.058-3 3.058-1.768 0-3.026-1.392-3.026-3.083zm7.665 0v-.025C12.305 5.026 10.4 3 7.665 3 4.932 3 3 5.051 3 7.5v.025C3 9.974 4.907 12 7.64 12c2.733 0 4.665-2.051 4.665-4.5z"/></mask><filter id="8ywxc" width="57" height="31" x="-8" y="-8" filterUnits="userSpaceOnUse"><feOffset in="SourceGraphic" result="FeOffset1034Out"/><feGaussianBlur in="FeOffset1034Out" result="FeGaussianBlur1035Out" stdDeviation="0.4 0.4"/></filter><filter id="8ywxe" width="200%" height="200%" x="-50%" y="-50%"><feGaussianBlur in="SourceGraphic" result="FeGaussianBlur1040Out" stdDeviation="0.5 0.5"/></filter><mask id="8ywxf"><path fill="#fff" d="M38 11.85V3.088h-1.08l-2.403.746.33 1.243 1.602-.435v7.21zm-8.055-1.391l-1.004-.995c-.763.696-1.462 1.119-2.555 1.119-1.704 0-2.937-1.38-2.937-3.083v-.025c0-1.703 1.246-3.07 2.937-3.07 1.017 0 1.78.435 2.491 1.081l1.005-1.131C29.03 3.559 28.038 3 26.399 3c-2.695 0-4.59 2.026-4.59 4.5v.025c0 2.498 1.933 4.475 4.526 4.475 1.665 0 2.682-.597 3.61-1.541zm-9.55-1.075V9.36c0-1.443-.967-2.103-2.848-2.55-1.716-.4-2.123-.698-2.123-1.37v-.025c0-.572.534-1.033 1.45-1.033.813 0 1.614.311 2.414.896l.84-1.157c-.903-.71-1.933-1.095-3.23-1.095-1.767 0-3.038 1.033-3.038 2.526v.025c0 1.605 1.068 2.153 2.962 2.601 1.653.373 2.009.71 2.009 1.332v.025c0 .647-.61 1.095-1.577 1.095-1.093 0-1.957-.411-2.809-1.133l-.94 1.095a5.549 5.549 0 0 0 3.711 1.394c1.869 0 3.178-.97 3.178-2.6zM4.64 7.5v-.025c0-1.69 1.233-3.07 3-3.07s3.026 1.404 3.026 3.095v.025c0 1.69-1.234 3.058-3 3.058-1.768 0-3.026-1.392-3.026-3.083zm7.665 0v-.025C12.305 5.026 10.4 3 7.665 3 4.932 3 3 5.051 3 7.5v.025C3 9.974 4.907 12 7.64 12c2.733 0 4.665-2.051 4.665-4.5z"/></mask></defs><g><g><g filter="url(#8ywxa)"><path fill="none" d="M38 11.85V3.088h-1.08l-2.403.746.33 1.243 1.602-.435v7.21zm-8.055-1.391l-1.004-.995c-.763.696-1.462 1.119-2.555 1.119-1.704 0-2.937-1.38-2.937-3.083v-.025c0-1.703 1.246-3.07 2.937-3.07 1.017 0 1.78.435 2.491 1.081l1.005-1.131C29.03 3.559 28.038 3 26.399 3c-2.695 0-4.59 2.026-4.59 4.5v.025c0 2.498 1.933 4.475 4.526 4.475 1.665 0 2.682-.597 3.61-1.541zm-9.55-1.075V9.36c0-1.443-.967-2.103-2.848-2.55-1.716-.4-2.123-.698-2.123-1.37v-.025c0-.572.534-1.033 1.45-1.033.813 0 1.614.311 2.414.896l.84-1.157c-.903-.71-1.933-1.095-3.23-1.095-1.767 0-3.038 1.033-3.038 2.526v.025c0 1.605 1.068 2.153 2.962 2.601 1.653.373 2.009.71 2.009 1.332v.025c0 .647-.61 1.095-1.577 1.095-1.093 0-1.957-.411-2.809-1.133l-.94 1.095a5.549 5.549 0 0 0 3.711 1.394c1.869 0 3.178-.97 3.178-2.6zM4.64 7.5v-.025c0-1.69 1.233-3.07 3-3.07s3.026 1.404 3.026 3.095v.025c0 1.69-1.234 3.058-3 3.058-1.768 0-3.026-1.392-3.026-3.083zm7.665 0v-.025C12.305 5.026 10.4 3 7.665 3 4.932 3 3 5.051 3 7.5v.025C3 9.974 4.907 12 7.64 12c2.733 0 4.665-2.051 4.665-4.5z" mask="url(&quot;#8ywxb&quot;)"/><path d="M38 11.85V3.088h-1.08l-2.403.746.33 1.243 1.602-.435v7.21zm-8.055-1.391l-1.004-.995c-.763.696-1.462 1.119-2.555 1.119-1.704 0-2.937-1.38-2.937-3.083v-.025c0-1.703 1.246-3.07 2.937-3.07 1.017 0 1.78.435 2.491 1.081l1.005-1.131C29.03 3.559 28.038 3 26.399 3c-2.695 0-4.59 2.026-4.59 4.5v.025c0 2.498 1.933 4.475 4.526 4.475 1.665 0 2.682-.597 3.61-1.541zm-9.55-1.075V9.36c0-1.443-.967-2.103-2.848-2.55-1.716-.4-2.123-.698-2.123-1.37v-.025c0-.572.534-1.033 1.45-1.033.813 0 1.614.311 2.414.896l.84-1.157c-.903-.71-1.933-1.095-3.23-1.095-1.767 0-3.038 1.033-3.038 2.526v.025c0 1.605 1.068 2.153 2.962 2.601 1.653.373 2.009.71 2.009 1.332v.025c0 .647-.61 1.095-1.577 1.095-1.093 0-1.957-.411-2.809-1.133l-.94 1.095a5.549 5.549 0 0 0 3.711 1.394c1.869 0 3.178-.97 3.178-2.6zM4.64 7.5v-.025c0-1.69 1.233-3.07 3-3.07s3.026 1.404 3.026 3.095v.025c0 1.69-1.234 3.058-3 3.058-1.768 0-3.026-1.392-3.026-3.083zm7.665 0v-.025C12.305 5.026 10.4 3 7.665 3 4.932 3 3 5.051 3 7.5v.025C3 9.974 4.907 12 7.64 12c2.733 0 4.665-2.051 4.665-4.5z"/></g><g filter="url(#8ywxc)"><path fill="none" d="M38 11.85V3.088h-1.08l-2.403.746.33 1.243 1.602-.435v7.21zm-8.055-1.391l-1.004-.995c-.763.696-1.462 1.119-2.555 1.119-1.704 0-2.937-1.38-2.937-3.083v-.025c0-1.703 1.246-3.07 2.937-3.07 1.017 0 1.78.435 2.491 1.081l1.005-1.131C29.03 3.559 28.038 3 26.399 3c-2.695 0-4.59 2.026-4.59 4.5v.025c0 2.498 1.933 4.475 4.526 4.475 1.665 0 2.682-.597 3.61-1.541zm-9.55-1.075V9.36c0-1.443-.967-2.103-2.848-2.55-1.716-.4-2.123-.698-2.123-1.37v-.025c0-.572.534-1.033 1.45-1.033.813 0 1.614.311 2.414.896l.84-1.157c-.903-.71-1.933-1.095-3.23-1.095-1.767 0-3.038 1.033-3.038 2.526v.025c0 1.605 1.068 2.153 2.962 2.601 1.653.373 2.009.71 2.009 1.332v.025c0 .647-.61 1.095-1.577 1.095-1.093 0-1.957-.411-2.809-1.133l-.94 1.095a5.549 5.549 0 0 0 3.711 1.394c1.869 0 3.178-.97 3.178-2.6zM4.64 7.5v-.025c0-1.69 1.233-3.07 3-3.07s3.026 1.404 3.026 3.095v.025c0 1.69-1.234 3.058-3 3.058-1.768 0-3.026-1.392-3.026-3.083zm7.665 0v-.025C12.305 5.026 10.4 3 7.665 3 4.932 3 3 5.051 3 7.5v.025C3 9.974 4.907 12 7.64 12c2.733 0 4.665-2.051 4.665-4.5z" mask="url(&quot;#8ywxd&quot;)"/><path d="M38 11.85V3.088h-1.08l-2.403.746.33 1.243 1.602-.435v7.21zm-8.055-1.391l-1.004-.995c-.763.696-1.462 1.119-2.555 1.119-1.704 0-2.937-1.38-2.937-3.083v-.025c0-1.703 1.246-3.07 2.937-3.07 1.017 0 1.78.435 2.491 1.081l1.005-1.131C29.03 3.559 28.038 3 26.399 3c-2.695 0-4.59 2.026-4.59 4.5v.025c0 2.498 1.933 4.475 4.526 4.475 1.665 0 2.682-.597 3.61-1.541zm-9.55-1.075V9.36c0-1.443-.967-2.103-2.848-2.55-1.716-.4-2.123-.698-2.123-1.37v-.025c0-.572.534-1.033 1.45-1.033.813 0 1.614.311 2.414.896l.84-1.157c-.903-.71-1.933-1.095-3.23-1.095-1.767 0-3.038 1.033-3.038 2.526v.025c0 1.605 1.068 2.153 2.962 2.601 1.653.373 2.009.71 2.009 1.332v.025c0 .647-.61 1.095-1.577 1.095-1.093 0-1.957-.411-2.809-1.133l-.94 1.095a5.549 5.549 0 0 0 3.711 1.394c1.869 0 3.178-.97 3.178-2.6zM4.64 7.5v-.025c0-1.69 1.233-3.07 3-3.07s3.026 1.404 3.026 3.095v.025c0 1.69-1.234 3.058-3 3.058-1.768 0-3.026-1.392-3.026-3.083zm7.665 0v-.025C12.305 5.026 10.4 3 7.665 3 4.932 3 3 5.051 3 7.5v.025C3 9.974 4.907 12 7.64 12c2.733 0 4.665-2.051 4.665-4.5z"/></g><path fill="#d5d5d5" d="M38 11.85V3.088h-1.08l-2.403.746.33 1.243 1.602-.435v7.21zm-8.055-1.391l-1.004-.995c-.763.696-1.462 1.119-2.555 1.119-1.704 0-2.937-1.38-2.937-3.083v-.025c0-1.703 1.246-3.07 2.937-3.07 1.017 0 1.78.435 2.491 1.081l1.005-1.131C29.03 3.559 28.038 3 26.399 3c-2.695 0-4.59 2.026-4.59 4.5v.025c0 2.498 1.933 4.475 4.526 4.475 1.665 0 2.682-.597 3.61-1.541zm-9.55-1.075V9.36c0-1.443-.967-2.103-2.848-2.55-1.716-.4-2.123-.698-2.123-1.37v-.025c0-.572.534-1.033 1.45-1.033.813 0 1.614.311 2.414.896l.84-1.157c-.903-.71-1.933-1.095-3.23-1.095-1.767 0-3.038 1.033-3.038 2.526v.025c0 1.605 1.068 2.153 2.962 2.601 1.653.373 2.009.71 2.009 1.332v.025c0 .647-.61 1.095-1.577 1.095-1.093 0-1.957-.411-2.809-1.133l-.94 1.095a5.549 5.549 0 0 0 3.711 1.394c1.869 0 3.178-.97 3.178-2.6zM4.64 7.5v-.025c0-1.69 1.233-3.07 3-3.07s3.026 1.404 3.026 3.095v.025c0 1.69-1.234 3.058-3 3.058-1.768 0-3.026-1.392-3.026-3.083zm7.665 0v-.025C12.305 5.026 10.4 3 7.665 3 4.932 3 3 5.051 3 7.5v.025C3 9.974 4.907 12 7.64 12c2.733 0 4.665-2.051 4.665-4.5z"/><path fill-opacity=".5" d="M2 13.5v-12h37v12zm36-2.15V2.588h-1.08l-2.403.746.33 1.243 1.602-.435v7.21zM29.945 9.96l-1.004-.995c-.763.696-1.462 1.119-2.555 1.119-1.704 0-2.937-1.38-2.937-3.083v-.025c0-1.703 1.246-3.07 2.937-3.07 1.017 0 1.78.435 2.491 1.081l1.005-1.131C29.03 3.059 28.038 2.5 26.399 2.5c-2.695 0-4.59 2.026-4.59 4.5v.025c0 2.498 1.933 4.475 4.526 4.475 1.665 0 2.682-.597 3.61-1.541zm-9.55-1.1c0-1.443-.967-2.103-2.848-2.55-1.716-.4-2.123-.698-2.123-1.37v-.025c0-.572.534-1.033 1.45-1.033.813 0 1.614.311 2.414.896l.84-1.157c-.903-.71-1.933-1.095-3.23-1.095-1.767 0-3.038 1.033-3.038 2.526v.025c0 1.605 1.068 2.153 2.962 2.601 1.653.373 2.009.71 2.009 1.332v.025c0 .647-.61 1.095-1.577 1.095-1.093 0-1.957-.411-2.809-1.133l-.94 1.095a5.549 5.549 0 0 0 3.711 1.394c1.869 0 3.178-.97 3.178-2.6zM4.64 7v-.025c0-1.69 1.233-3.07 3-3.07S10.666 5.309 10.666 7v.025c0 1.69-1.234 3.058-3 3.058C5.897 10.083 4.64 8.69 4.64 7zm7.665 0v-.025c0-2.449-1.906-4.475-4.64-4.475C4.932 2.5 3 4.551 3 7v.025C3 9.474 4.907 11.5 7.64 11.5c2.733 0 4.665-2.051 4.665-4.5z" filter="url(#8ywxe)" mask="url(&quot;#8ywxf&quot;)"/></g></g></svg>