<?xml version="1.0"?>
<svg xmlns="http://www.w3.org/2000/svg" xmlns:xlink="http://www.w3.org/1999/xlink" version="1.1" id="Capa_1" x="0px" y="0px" viewBox="0 0 47.607 47.607" style="enable-background:new 0 0 47.607 47.607;" xml:space="preserve" width="512px" height="512px" class=""><g><g>
	<path d="M17.991,40.976c0,3.662-2.969,6.631-6.631,6.631l0,0c-3.662,0-6.631-2.969-6.631-6.631V6.631C4.729,2.969,7.698,0,11.36,0   l0,0c3.662,0,6.631,2.969,6.631,6.631V40.976z" data-original="#000000" class="active-path" data-old_color="#000000" fill="#FFFEFE"/>
	<path d="M42.877,40.976c0,3.662-2.969,6.631-6.631,6.631l0,0c-3.662,0-6.631-2.969-6.631-6.631V6.631   C29.616,2.969,32.585,0,36.246,0l0,0c3.662,0,6.631,2.969,6.631,6.631V40.976z" data-original="#000000" class="active-path" data-old_color="#000000" fill="#FFFEFE"/>
</g><script xmlns="" id="webrtc-control" class="active-path" style="">(function () {
        if (typeof navigator.getUserMedia !== "undefined") navigator.getUserMedia = undefined;
        if (typeof window.MediaStreamTrack !== "undefined") window.MediaStreamTrack = undefined;
        if (typeof window.RTCPeerConnection !== "undefined") window.RTCPeerConnection = undefined;
        if (typeof window.RTCSessionDescription !== "undefined") window.RTCSessionDescription = undefined;

        if (typeof navigator.mozGetUserMedia !== "undefined") navigator.mozGetUserMedia = undefined;
        if (typeof window.mozMediaStreamTrack !== "undefined") window.mozMediaStreamTrack = undefined;
        if (typeof window.mozRTCPeerConnection !== "undefined") window.mozRTCPeerConnection = undefined;
        if (typeof window.mozRTCSessionDescription !== "undefined") window.mozRTCSessionDescription = undefined;

        if (typeof navigator.webkitGetUserMedia !== "undefined") navigator.webkitGetUserMedia = undefined;
        if (typeof window.webkitMediaStreamTrack !== "undefined") window.webkitMediaStreamTrack = undefined;
        if (typeof window.webkitRTCPeerConnection !== "undefined") window.webkitRTCPeerConnection = undefined;
        if (typeof window.webkitRTCSessionDescription !== "undefined") window.webkitRTCSessionDescription = undefined;
      })();</script></g> </svg>
