<svg xmlns="http://www.w3.org/2000/svg" width="18" height="18" viewBox="0 0 18 18"><defs><mask id="ssk0b" width="2" height="2" x="-1" y="-1"><path fill="#fff" d="M1 1h16v16H1z"/><path d="M1 3a2 2 0 0 1 2-2h12a2 2 0 0 1 2 2v12a2 2 0 0 1-2 2H3a2 2 0 0 1-2-2zm1 12a1 1 0 0 0 1 1h12a1 1 0 0 0 1-1v-4.67L12.188 6.52l-6.37 6.37h-.001L2 9.073zm9.481-9.188l-.006-.007.707-.707L16 8.916V3a1 1 0 0 0-1-1H3a1 1 0 0 0-1 1v4.659l3.817 3.817z"/></mask><filter id="ssk0a" width="38" height="38.5" x="-10" y="-10" filterUnits="userSpaceOnUse"><feOffset dy=".5" in="SourceGraphic" result="FeOffset1023Out"/><feGaussianBlur in="FeOffset1023Out" result="FeGaussianBlur1024Out" stdDeviation="0.4 0.4"/></filter><mask id="ssk0d" width="2" height="2" x="-1" y="-1"><path fill="#fff" d="M1 1h16v16H1z"/><path d="M1 3a2 2 0 0 1 2-2h12a2 2 0 0 1 2 2v12a2 2 0 0 1-2 2H3a2 2 0 0 1-2-2zm1 12a1 1 0 0 0 1 1h12a1 1 0 0 0 1-1v-4.67L12.188 6.52l-6.37 6.37h-.001L2 9.073zm9.481-9.188l-.006-.007.707-.707L16 8.916V3a1 1 0 0 0-1-1H3a1 1 0 0 0-1 1v4.659l3.817 3.817z"/></mask><filter id="ssk0c" width="38" height="38.5" x="-10" y="-10.5" filterUnits="userSpaceOnUse"><feOffset dy="-.5" in="SourceGraphic" result="FeOffset1034Out"/><feGaussianBlur in="FeOffset1034Out" result="FeGaussianBlur1035Out" stdDeviation="0.4 0.4"/></filter><filter id="ssk0e" width="200%" height="200%" x="-50%" y="-50%"><feGaussianBlur in="SourceGraphic" result="FeGaussianBlur1040Out" stdDeviation="1 1"/></filter><mask id="ssk0f"><path fill="#fff" d="M1 3a2 2 0 0 1 2-2h12a2 2 0 0 1 2 2v12a2 2 0 0 1-2 2H3a2 2 0 0 1-2-2zm1 12a1 1 0 0 0 1 1h12a1 1 0 0 0 1-1v-4.67L12.188 6.52l-6.37 6.37h-.001L2 9.073zm9.481-9.188l-.006-.007.707-.707L16 8.916V3a1 1 0 0 0-1-1H3a1 1 0 0 0-1 1v4.659l3.817 3.817z"/></mask></defs><g><g><g filter="url(#ssk0a)"><path fill="none" d="M1 3a2 2 0 0 1 2-2h12a2 2 0 0 1 2 2v12a2 2 0 0 1-2 2H3a2 2 0 0 1-2-2zm1 12a1 1 0 0 0 1 1h12a1 1 0 0 0 1-1v-4.67L12.188 6.52l-6.37 6.37h-.001L2 9.073zm9.481-9.188l-.006-.007.707-.707L16 8.916V3a1 1 0 0 0-1-1H3a1 1 0 0 0-1 1v4.659l3.817 3.817z" mask="url(&quot;#ssk0b&quot;)"/><path fill="#fff" fill-opacity=".24" d="M1 3a2 2 0 0 1 2-2h12a2 2 0 0 1 2 2v12a2 2 0 0 1-2 2H3a2 2 0 0 1-2-2zm1 12a1 1 0 0 0 1 1h12a1 1 0 0 0 1-1v-4.67L12.188 6.52l-6.37 6.37h-.001L2 9.073zm9.481-9.188l-.006-.007.707-.707L16 8.916V3a1 1 0 0 0-1-1H3a1 1 0 0 0-1 1v4.659l3.817 3.817z"/></g><g filter="url(#ssk0c)"><path fill="none" d="M1 3a2 2 0 0 1 2-2h12a2 2 0 0 1 2 2v12a2 2 0 0 1-2 2H3a2 2 0 0 1-2-2zm1 12a1 1 0 0 0 1 1h12a1 1 0 0 0 1-1v-4.67L12.188 6.52l-6.37 6.37h-.001L2 9.073zm9.481-9.188l-.006-.007.707-.707L16 8.916V3a1 1 0 0 0-1-1H3a1 1 0 0 0-1 1v4.659l3.817 3.817z" mask="url(&quot;#ssk0d&quot;)"/><path fill-opacity=".24" d="M1 3a2 2 0 0 1 2-2h12a2 2 0 0 1 2 2v12a2 2 0 0 1-2 2H3a2 2 0 0 1-2-2zm1 12a1 1 0 0 0 1 1h12a1 1 0 0 0 1-1v-4.67L12.188 6.52l-6.37 6.37h-.001L2 9.073zm9.481-9.188l-.006-.007.707-.707L16 8.916V3a1 1 0 0 0-1-1H3a1 1 0 0 0-1 1v4.659l3.817 3.817z"/></g><path fill-opacity=".54" d="M1 3a2 2 0 0 1 2-2h12a2 2 0 0 1 2 2v12a2 2 0 0 1-2 2H3a2 2 0 0 1-2-2zm1 12a1 1 0 0 0 1 1h12a1 1 0 0 0 1-1v-4.67L12.188 6.52l-6.37 6.37h-.001L2 9.073zm9.481-9.188l-.006-.007.707-.707L16 8.916V3a1 1 0 0 0-1-1H3a1 1 0 0 0-1 1v4.659l3.817 3.817z"/><path fill-opacity=".5" d="M-1 20V-2h20v22zm2-4a2 2 0 0 0 2 2h12a2 2 0 0 0 2-2V4a2 2 0 0 0-2-2H3a2 2 0 0 0-2 2zm1-5.927l3.816 3.816h.002l6.37-6.37L16 11.33V16a1 1 0 0 1-1 1H3a1 1 0 0 1-1-1zm3.817 2.403L2 8.659V4a1 1 0 0 1 1-1h12a1 1 0 0 1 1 1v5.916l-3.818-3.818-.707.707.006.007z" filter="url(#ssk0e)" mask="url(&quot;#ssk0f&quot;)"/></g></g></svg>