<svg xmlns="http://www.w3.org/2000/svg" width="24" height="24" viewBox="0 0 24 24"><defs><mask id="2tvdc" width="2" height="2" x="-1" y="-1"><path fill="#fff" d="M4 4h16v16H4z"/><path d="M4 6a2 2 0 0 1 2-2h12a2 2 0 0 1 2 2v12a2 2 0 0 1-2 2H6a2 2 0 0 1-2-2zm1 12a1 1 0 0 0 1 1h12a1 1 0 0 0 1-1v-4.67L15.188 9.52l-6.37 6.37h-.001L5 12.073zm9.481-9.188l-.006-.007.707-.707L19 11.916V6a1 1 0 0 0-1-1H6a1 1 0 0 0-1 1v4.659l3.817 3.817z"/></mask><filter id="2tvdb" width="44" height="44" x="-10" y="-10" filterUnits="userSpaceOnUse"><feOffset in="SourceGraphic" result="FeOffset1059Out"/><feGaussianBlur in="FeOffset1059Out" result="FeGaussianBlur1060Out" stdDeviation="1.6 1.6"/></filter><filter id="2tvda" width="160%" height="160%" x="-20%" y="-20%" filterUnits="objectBoundingBox"><feGaussianBlur in="SourceGraphic" result="FeGaussianBlur1063Out" stdDeviation="0.7561383928571429 0.7561383928571429"/></filter><mask id="2tvdf" width="2" height="2" x="-1" y="-1"><path fill="#fff" d="M4 4h16v16H4z"/><path d="M4 6a2 2 0 0 1 2-2h12a2 2 0 0 1 2 2v12a2 2 0 0 1-2 2H6a2 2 0 0 1-2-2zm1 12a1 1 0 0 0 1 1h12a1 1 0 0 0 1-1v-4.67L15.188 9.52l-6.37 6.37h-.001L5 12.073zm9.481-9.188l-.006-.007.707-.707L19 11.916V6a1 1 0 0 0-1-1H6a1 1 0 0 0-1 1v4.659l3.817 3.817z"/></mask><filter id="2tvde" width="44" height="44" x="-10" y="-10" filterUnits="userSpaceOnUse"><feOffset in="SourceGraphic" result="FeOffset1077Out"/><feGaussianBlur in="FeOffset1077Out" result="FeGaussianBlur1078Out" stdDeviation="1.6 1.6"/></filter><filter id="2tvdd" width="160%" height="160%" x="-20%" y="-20%" filterUnits="objectBoundingBox"><feGaussianBlur in="SourceGraphic" result="FeGaussianBlur1081Out" stdDeviation="0.7561383928571429 0.7561383928571429"/></filter><filter id="2tvdg" width="200%" height="200%" x="-50%" y="-50%"><feGaussianBlur in="SourceGraphic" result="FeGaussianBlur1090Out" stdDeviation="0.025 0.025"/></filter><mask id="2tvdh"><path fill="#fff" d="M4 6a2 2 0 0 1 2-2h12a2 2 0 0 1 2 2v12a2 2 0 0 1-2 2H6a2 2 0 0 1-2-2zm1 12a1 1 0 0 0 1 1h12a1 1 0 0 0 1-1v-4.67L15.188 9.52l-6.37 6.37h-.001L5 12.073zm9.481-9.188l-.006-.007.707-.707L19 11.916V6a1 1 0 0 0-1-1H6a1 1 0 0 0-1 1v4.659l3.817 3.817z"/></mask></defs><g><g filter="url(#2tvda)"><g filter="url(#2tvdb)"><path fill="none" d="M4 6a2 2 0 0 1 2-2h12a2 2 0 0 1 2 2v12a2 2 0 0 1-2 2H6a2 2 0 0 1-2-2zm1 12a1 1 0 0 0 1 1h12a1 1 0 0 0 1-1v-4.67L15.188 9.52l-6.37 6.37h-.001L5 12.073zm9.481-9.188l-.006-.007.707-.707L19 11.916V6a1 1 0 0 0-1-1H6a1 1 0 0 0-1 1v4.659l3.817 3.817z" mask="url(&quot;#2tvdc&quot;)"/><path fill="#db2235" d="M4 6a2 2 0 0 1 2-2h12a2 2 0 0 1 2 2v12a2 2 0 0 1-2 2H6a2 2 0 0 1-2-2zm1 12a1 1 0 0 0 1 1h12a1 1 0 0 0 1-1v-4.67L15.188 9.52l-6.37 6.37h-.001L5 12.073zm9.481-9.188l-.006-.007.707-.707L19 11.916V6a1 1 0 0 0-1-1H6a1 1 0 0 0-1 1v4.659l3.817 3.817z"/></g><path fill="#db2235" d="M4 6a2 2 0 0 1 2-2h12a2 2 0 0 1 2 2v12a2 2 0 0 1-2 2H6a2 2 0 0 1-2-2zm1 12a1 1 0 0 0 1 1h12a1 1 0 0 0 1-1v-4.67L15.188 9.52l-6.37 6.37h-.001L5 12.073zm9.481-9.188l-.006-.007.707-.707L19 11.916V6a1 1 0 0 0-1-1H6a1 1 0 0 0-1 1v4.659l3.817 3.817z"/></g><g filter="url(#2tvdd)"><g filter="url(#2tvde)"><path fill="none" d="M4 6a2 2 0 0 1 2-2h12a2 2 0 0 1 2 2v12a2 2 0 0 1-2 2H6a2 2 0 0 1-2-2zm1 12a1 1 0 0 0 1 1h12a1 1 0 0 0 1-1v-4.67L15.188 9.52l-6.37 6.37h-.001L5 12.073zm9.481-9.188l-.006-.007.707-.707L19 11.916V6a1 1 0 0 0-1-1H6a1 1 0 0 0-1 1v4.659l3.817 3.817z" mask="url(&quot;#2tvdf&quot;)"/><path fill="#db2235" d="M4 6a2 2 0 0 1 2-2h12a2 2 0 0 1 2 2v12a2 2 0 0 1-2 2H6a2 2 0 0 1-2-2zm1 12a1 1 0 0 0 1 1h12a1 1 0 0 0 1-1v-4.67L15.188 9.52l-6.37 6.37h-.001L5 12.073zm9.481-9.188l-.006-.007.707-.707L19 11.916V6a1 1 0 0 0-1-1H6a1 1 0 0 0-1 1v4.659l3.817 3.817z"/></g><path fill="#db2235" d="M4 6a2 2 0 0 1 2-2h12a2 2 0 0 1 2 2v12a2 2 0 0 1-2 2H6a2 2 0 0 1-2-2zm1 12a1 1 0 0 0 1 1h12a1 1 0 0 0 1-1v-4.67L15.188 9.52l-6.37 6.37h-.001L5 12.073zm9.481-9.188l-.006-.007.707-.707L19 11.916V6a1 1 0 0 0-1-1H6a1 1 0 0 0-1 1v4.659l3.817 3.817z"/></g><g><path fill="#fff" d="M4 6a2 2 0 0 1 2-2h12a2 2 0 0 1 2 2v12a2 2 0 0 1-2 2H6a2 2 0 0 1-2-2zm1 12a1 1 0 0 0 1 1h12a1 1 0 0 0 1-1v-4.67L15.188 9.52l-6.37 6.37h-.001L5 12.073zm9.481-9.188l-.006-.007.707-.707L19 11.916V6a1 1 0 0 0-1-1H6a1 1 0 0 0-1 1v4.659l3.817 3.817z"/><path fill="#db2235" d="M3.95 20.05V3.95h16.1v16.1zM4 18a2 2 0 0 0 2 2h12a2 2 0 0 0 2-2V6a2 2 0 0 0-2-2H6a2 2 0 0 0-2 2zm1-5.927l3.816 3.816h.002l6.37-6.37L19 13.33V18a1 1 0 0 1-1 1H6a1 1 0 0 1-1-1zm3.817 2.403L5 10.659V6a1 1 0 0 1 1-1h12a1 1 0 0 1 1 1v5.916l-3.818-3.818-.707.707.006.007z" filter="url(#2tvdg)" mask="url(&quot;#2tvdh&quot;)"/></g></g></svg>