<svg xmlns="http://www.w3.org/2000/svg" width="408" height="222" viewBox="0 0 408 222"><defs><mask id="ujnmb" width="2" height="2" x="-1" y="-1"><path fill="#fff" d="M1 0h406v220H1z"/><path d="M1 1a1 1 0 0 1 1-1h404a1 1 0 0 1 1 1v218a1 1 0 0 1-1 1H2a1 1 0 0 1-1-1z"/></mask><filter id="ujnma" width="428" height="243" x="-10" y="-11" filterUnits="userSpaceOnUse"><feOffset dy="1" in="SourceGraphic" result="FeOffset1332Out"/><feGaussianBlur in="FeOffset1332Out" result="FeGaussianBlur1333Out" stdDeviation="0.4 0.4"/></filter><radialGradient id="ujnmc" cx="204" cy="0" r="220" gradientUnits="userSpaceOnUse"><stop offset="0" stop-opacity="0"/><stop offset="1" stop-opacity=".32"/></radialGradient><filter id="ujnmd" width="200%" height="200%" x="-50%" y="-50%"><feGaussianBlur in="SourceGraphic" result="FeGaussianBlur1341Out" stdDeviation="2 2"/></filter><mask id="ujnme"><path fill="#fff" d="M1 1a1 1 0 0 1 1-1h404a1 1 0 0 1 1 1v218a1 1 0 0 1-1 1H2a1 1 0 0 1-1-1z"/></mask><filter id="ujnmf" width="200%" height="200%" x="-50%" y="-50%"><feGaussianBlur in="SourceGraphic" result="FeGaussianBlur1346Out" stdDeviation="1 1"/></filter><mask id="ujnmg"><path fill="#fff" d="M1 1a1 1 0 0 1 1-1h404a1 1 0 0 1 1 1v218a1 1 0 0 1-1 1H2a1 1 0 0 1-1-1z"/></mask></defs><g><g><g filter="url(#ujnma)"><path fill="none" d="M1 1a1 1 0 0 1 1-1h404a1 1 0 0 1 1 1v218a1 1 0 0 1-1 1H2a1 1 0 0 1-1-1z" mask="url(&quot;#ujnmb&quot;)"/><path fill-opacity=".5" d="M1 1a1 1 0 0 1 1-1h404a1 1 0 0 1 1 1v218a1 1 0 0 1-1 1H2a1 1 0 0 1-1-1z"/></g><path fill="url(#ujnmc)" d="M1 1a1 1 0 0 1 1-1h404a1 1 0 0 1 1 1v218a1 1 0 0 1-1 1H2a1 1 0 0 1-1-1z"/><path fill="#e6e6ff" fill-opacity=".24" d="M-3 225V-5h414v230zm4-5a1 1 0 0 0 1 1h404a1 1 0 0 0 1-1V2a1 1 0 0 0-1-1H2a1 1 0 0 0-1 1z" filter="url(#ujnmd)" mask="url(&quot;#ujnme&quot;)"/><path fill-opacity=".8" d="M-1 223V-3h410v226zm2-5a1 1 0 0 0 1 1h404a1 1 0 0 0 1-1V0a1 1 0 0 0-1-1H2a1 1 0 0 0-1 1z" filter="url(#ujnmf)" mask="url(&quot;#ujnmg&quot;)"/></g></g></svg>