<svg xmlns="http://www.w3.org/2000/svg" width="28" height="28" viewBox="0 0 28 28"><defs><mask id="rwegc" width="2" height="2" x="-1" y="-1"><path fill="#fff" d="M12 10h6v6h-6z"/><path d="M28.57-27.5a1 1 0 0 1 1-1h4.246a1 1 0 0 1 0 2H29.57a1 1 0 0 1-1-1z"/></mask><filter id="rwegb" width="34" height="34" x="-2" y="-4" filterUnits="userSpaceOnUse"><feOffset in="SourceGraphic" result="FeOffset1207Out"/><feGaussianBlur in="FeOffset1207Out" result="FeGaussianBlur1208Out" stdDeviation="1.6 1.6"/></filter><filter id="rwega" width="284%" height="284%" x="-82%" y="-82%" filterUnits="objectBoundingBox"><feGaussianBlur in="SourceGraphic" result="FeGaussianBlur1211Out" stdDeviation="2.180246 2.180246"/></filter><mask id="rwegf" width="2" height="2" x="-1" y="-1"><path fill="#fff" d="M12 10h6v6h-6z"/><path d="M28.57-27.5a1 1 0 0 1 1-1h4.246a1 1 0 0 1 0 2H29.57a1 1 0 0 1-1-1z"/></mask><filter id="rwege" width="34" height="34" x="-2" y="-4" filterUnits="userSpaceOnUse"><feOffset in="SourceGraphic" result="FeOffset1225Out"/><feGaussianBlur in="FeOffset1225Out" result="FeGaussianBlur1226Out" stdDeviation="1.6 1.6"/></filter><filter id="rwegd" width="420%" height="420%" x="-150%" y="-150%" filterUnits="objectBoundingBox"><feGaussianBlur in="SourceGraphic" result="FeGaussianBlur1229Out" stdDeviation="4.180246 4.180246"/></filter><mask id="rwegh" width="2" height="2" x="-1" y="-1"><path fill="#fff" d="M12 10h6v6h-6z"/><path d="M28.57-27.5a1 1 0 0 1 1-1h4.246a1 1 0 0 1 0 2H29.57a1 1 0 0 1-1-1z"/></mask><filter id="rwegg" width="34" height="34" x="-2" y="-4" filterUnits="userSpaceOnUse"><feOffset in="SourceGraphic" result="FeOffset1243Out"/><feGaussianBlur in="FeOffset1243Out" result="FeGaussianBlur1244Out" stdDeviation="1.6 1.6"/></filter><filter id="rwegi" width="200%" height="200%" x="-50%" y="-50%"><feGaussianBlur in="SourceGraphic" result="FeGaussianBlur1249Out" stdDeviation="0.5 0.5"/></filter><mask id="rwegj"><path fill="#fff" d="M28.57-27.5a1 1 0 0 1 1-1h4.246a1 1 0 0 1 0 2H29.57a1 1 0 0 1-1-1z"/></mask><mask id="rwegm" width="2" height="2" x="-1" y="-1"><path fill="#fff" d="M12 10h6v6h-6z"/><path d="M28.5-27.5a1 1 0 0 1 1-1h4.435a1 1 0 0 1 0 2H29.5a1 1 0 0 1-1-1z"/></mask><filter id="rwegl" width="34" height="34" x="-2" y="-4" filterUnits="userSpaceOnUse"><feOffset in="SourceGraphic" result="FeOffset1266Out"/><feGaussianBlur in="FeOffset1266Out" result="FeGaussianBlur1267Out" stdDeviation="1.6 1.6"/></filter><filter id="rwegk" width="284%" height="284%" x="-82%" y="-82%" filterUnits="objectBoundingBox"><feGaussianBlur in="SourceGraphic" result="FeGaussianBlur1270Out" stdDeviation="2.180246 2.180246"/></filter><mask id="rwegp" width="2" height="2" x="-1" y="-1"><path fill="#fff" d="M12 10h6v6h-6z"/><path d="M28.5-27.5a1 1 0 0 1 1-1h4.435a1 1 0 0 1 0 2H29.5a1 1 0 0 1-1-1z"/></mask><filter id="rwego" width="34" height="34" x="-2" y="-4" filterUnits="userSpaceOnUse"><feOffset in="SourceGraphic" result="FeOffset1284Out"/><feGaussianBlur in="FeOffset1284Out" result="FeGaussianBlur1285Out" stdDeviation="1.6 1.6"/></filter><filter id="rwegn" width="284%" height="284%" x="-82%" y="-82%" filterUnits="objectBoundingBox"><feGaussianBlur in="SourceGraphic" result="FeGaussianBlur1288Out" stdDeviation="2.180246 2.180246"/></filter><mask id="rwegr" width="2" height="2" x="-1" y="-1"><path fill="#fff" d="M12 10h6v6h-6z"/><path d="M28.5-27.5a1 1 0 0 1 1-1h4.435a1 1 0 0 1 0 2H29.5a1 1 0 0 1-1-1z"/></mask><filter id="rwegq" width="34" height="34" x="-2" y="-4" filterUnits="userSpaceOnUse"><feOffset in="SourceGraphic" result="FeOffset1302Out"/><feGaussianBlur in="FeOffset1302Out" result="FeGaussianBlur1303Out" stdDeviation="1.6 1.6"/></filter><filter id="rwegs" width="200%" height="200%" x="-50%" y="-50%"><feGaussianBlur in="SourceGraphic" result="FeGaussianBlur1308Out" stdDeviation="0.5 0.5"/></filter><mask id="rwegt"><path fill="#fff" d="M28.5-27.5a1 1 0 0 1 1-1h4.435a1 1 0 0 1 0 2H29.5a1 1 0 0 1-1-1z"/></mask><filter id="rwegu" width="200%" height="200%" x="-50%" y="-50%"><feGaussianBlur in="SourceGraphic" result="FeGaussianBlur1313Out" stdDeviation="0.5 0.5"/></filter><mask id="rwegv"><path fill="#fff" d="M28.5-27.5a1 1 0 0 1 1-1h4.435a1 1 0 0 1 0 2H29.5a1 1 0 0 1-1-1z"/></mask></defs><g><g transform="rotate(-45 59.385 16.414)"><g><g filter="url(#rwega)"><g filter="url(#rwegb)"><path fill="none" d="M28.57-27.5a1 1 0 0 1 1-1h4.246a1 1 0 0 1 0 2H29.57a1 1 0 0 1-1-1z" mask="url(&quot;#rwegc&quot;)"/><path fill="#db2235" d="M28.57-27.5a1 1 0 0 1 1-1h4.246a1 1 0 0 1 0 2H29.57a1 1 0 0 1-1-1z"/></g><path fill="#db2235" d="M28.57-27.5a1 1 0 0 1 1-1h4.246a1 1 0 0 1 0 2H29.57a1 1 0 0 1-1-1z"/></g><g filter="url(#rwegd)"><g filter="url(#rwege)"><path fill="none" d="M28.57-27.5a1 1 0 0 1 1-1h4.246a1 1 0 0 1 0 2H29.57a1 1 0 0 1-1-1z" mask="url(&quot;#rwegf&quot;)"/><path fill="#db2235" d="M28.57-27.5a1 1 0 0 1 1-1h4.246a1 1 0 0 1 0 2H29.57a1 1 0 0 1-1-1z"/></g><path fill="#db2235" d="M28.57-27.5a1 1 0 0 1 1-1h4.246a1 1 0 0 1 0 2H29.57a1 1 0 0 1-1-1z"/></g><g><g filter="url(#rwegg)"><path fill="none" d="M28.57-27.5a1 1 0 0 1 1-1h4.246a1 1 0 0 1 0 2H29.57a1 1 0 0 1-1-1z" mask="url(&quot;#rwegh&quot;)"/><path fill="#db2235" d="M28.57-27.5a1 1 0 0 1 1-1h4.246a1 1 0 0 1 0 2H29.57a1 1 0 0 1-1-1z"/></g><path fill="#ffa5ae" d="M28.57-27.5a1 1 0 0 1 1-1h4.246a1 1 0 0 1 0 2H29.57a1 1 0 0 1-1-1z"/><path fill="#db2235" d="M11 17V9h8v8zm17.57-44.5a1 1 0 0 1 1-1h4.246a1 1 0 0 1 0 2H29.57a1 1 0 0 1-1-1z" filter="url(#rwegi)" mask="url(&quot;#rwegj&quot;)"/></g></g><g><g filter="url(#rwegk)"><g filter="url(#rwegl)"><path fill="none" d="M28.5-27.5a1 1 0 0 1 1-1h4.435a1 1 0 0 1 0 2H29.5a1 1 0 0 1-1-1z" mask="url(&quot;#rwegm&quot;)"/><path fill="#db2235" d="M28.5-27.5a1 1 0 0 1 1-1h4.435a1 1 0 0 1 0 2H29.5a1 1 0 0 1-1-1z"/></g><path fill="#db2235" d="M28.5-27.5a1 1 0 0 1 1-1h4.435a1 1 0 0 1 0 2H29.5a1 1 0 0 1-1-1z"/></g><g filter="url(#rwegn)"><g filter="url(#rwego)"><path fill="none" d="M28.5-27.5a1 1 0 0 1 1-1h4.435a1 1 0 0 1 0 2H29.5a1 1 0 0 1-1-1z" mask="url(&quot;#rwegp&quot;)"/><path fill="#db2235" d="M28.5-27.5a1 1 0 0 1 1-1h4.435a1 1 0 0 1 0 2H29.5a1 1 0 0 1-1-1z"/></g><path fill="#db2235" d="M28.5-27.5a1 1 0 0 1 1-1h4.435a1 1 0 0 1 0 2H29.5a1 1 0 0 1-1-1z"/></g><g><g filter="url(#rwegq)"><path fill="none" d="M28.5-27.5a1 1 0 0 1 1-1h4.435a1 1 0 0 1 0 2H29.5a1 1 0 0 1-1-1z" mask="url(&quot;#rwegr&quot;)"/><path fill="#db2235" d="M28.5-27.5a1 1 0 0 1 1-1h4.435a1 1 0 0 1 0 2H29.5a1 1 0 0 1-1-1z"/></g><path fill="#fff" d="M28.5-27.5a1 1 0 0 1 1-1h4.435a1 1 0 0 1 0 2H29.5a1 1 0 0 1-1-1z"/><path fill="#db2235" d="M11 17V9h8v8zm17.5-44.5a1 1 0 0 1 1-1h4.435a1 1 0 0 1 0 2H29.5a1 1 0 0 1-1-1z" filter="url(#rwegs)" mask="url(&quot;#rwegt&quot;)"/><path fill="#db2235" d="M11 17V9h8v8zm17.5-44.5a1 1 0 0 1 1-1h4.435a1 1 0 0 1 0 2H29.5a1 1 0 0 1-1-1z" filter="url(#rwegu)" mask="url(&quot;#rwegv&quot;)"/></g></g></g></g></svg>