<svg xmlns="http://www.w3.org/2000/svg" width="58" height="15" viewBox="0 0 58 15"><defs><mask id="p42wb" width="2" height="2" x="-1" y="-1"><path fill="#fff" d="M2 3h53v9H2z"/><path d="M53.065 9.35c0-.741-.593-1.18-1.82-1.18h-2.463v2.41h2.578c1.061 0 1.705-.414 1.705-1.205zm-.501-3.684v-.025c0-.687-.555-1.113-1.55-1.113h-2.232v2.326H50.9c.996 0 1.664-.388 1.664-1.188zm-5.308 6.282V3.16h3.959c1.008 0 1.803.276 2.307.778.39.39.592.867.592 1.457v.025c0 1.054-.605 1.62-1.26 1.958 1.033.352 1.752.942 1.752 2.135v.025c0 1.57-1.298 2.41-3.265 2.41zm-7.53-4.432h2.27c1.11 0 1.815-.577 1.815-1.468v-.026c0-.941-.68-1.456-1.828-1.456h-2.256zm-1.55 4.432V3.16h3.933c1.11 0 1.98.326 2.547.879.466.477.73 1.13.73 1.896v.025c0 1.443-.869 2.31-2.092 2.661l2.383 3.327h-1.84l-2.169-3.063h-1.941v3.063zm-8.412 0V3.16h6.542v1.381h-4.992v2.285h4.425v1.381h-4.425v2.36h5.055v1.381zm-6.513.063L19.586 3.16H21.3l2.657 6.754L26.6 3.16h1.675l-3.652 8.851zm-11.32-.063V3.16h6.542v1.381h-4.992v2.285h4.425v1.381H13.48v2.36h5.055v1.381zM4.4 7.516h2.274c1.112 0 1.82-.577 1.82-1.468v-.026c0-.941-.682-1.456-1.832-1.456H4.4zM2.85 11.948V3.16h3.933c1.11 0 1.98.326 2.547.879.466.477.73 1.13.73 1.896v.025c0 1.443-.869 2.31-2.092 2.661l2.383 3.327H8.51L6.341 8.885H4.401v3.063z"/></mask><filter id="p42wa" width="79" height="35" x="-11" y="-10" filterUnits="userSpaceOnUse"><feOffset in="SourceGraphic" result="FeOffset1167Out"/><feGaussianBlur in="FeOffset1167Out" result="FeGaussianBlur1168Out" stdDeviation="1.2 1.2"/></filter><mask id="p42wd" width="2" height="2" x="-1" y="-1"><path fill="#fff" d="M2 3h53v9H2z"/><path d="M53.065 9.35c0-.741-.593-1.18-1.82-1.18h-2.463v2.41h2.578c1.061 0 1.705-.414 1.705-1.205zm-.501-3.684v-.025c0-.687-.555-1.113-1.55-1.113h-2.232v2.326H50.9c.996 0 1.664-.388 1.664-1.188zm-5.308 6.282V3.16h3.959c1.008 0 1.803.276 2.307.778.39.39.592.867.592 1.457v.025c0 1.054-.605 1.62-1.26 1.958 1.033.352 1.752.942 1.752 2.135v.025c0 1.57-1.298 2.41-3.265 2.41zm-7.53-4.432h2.27c1.11 0 1.815-.577 1.815-1.468v-.026c0-.941-.68-1.456-1.828-1.456h-2.256zm-1.55 4.432V3.16h3.933c1.11 0 1.98.326 2.547.879.466.477.73 1.13.73 1.896v.025c0 1.443-.869 2.31-2.092 2.661l2.383 3.327h-1.84l-2.169-3.063h-1.941v3.063zm-8.412 0V3.16h6.542v1.381h-4.992v2.285h4.425v1.381h-4.425v2.36h5.055v1.381zm-6.513.063L19.586 3.16H21.3l2.657 6.754L26.6 3.16h1.675l-3.652 8.851zm-11.32-.063V3.16h6.542v1.381h-4.992v2.285h4.425v1.381H13.48v2.36h5.055v1.381zM4.4 7.516h2.274c1.112 0 1.82-.577 1.82-1.468v-.026c0-.941-.682-1.456-1.832-1.456H4.4zM2.85 11.948V3.16h3.933c1.11 0 1.98.326 2.547.879.466.477.73 1.13.73 1.896v.025c0 1.443-.869 2.31-2.092 2.661l2.383 3.327H8.51L6.341 8.885H4.401v3.063z"/></mask><filter id="p42wc" width="75" height="31" x="-9" y="-8" filterUnits="userSpaceOnUse"><feOffset in="SourceGraphic" result="FeOffset1178Out"/><feGaussianBlur in="FeOffset1178Out" result="FeGaussianBlur1179Out" stdDeviation="0.4 0.4"/></filter><filter id="p42we" width="200%" height="200%" x="-50%" y="-50%"><feGaussianBlur in="SourceGraphic" result="FeGaussianBlur1184Out" stdDeviation="0.5 0.5"/></filter><mask id="p42wf"><path fill="#fff" d="M53.065 9.35c0-.741-.593-1.18-1.82-1.18h-2.463v2.41h2.578c1.061 0 1.705-.414 1.705-1.205zm-.501-3.684v-.025c0-.687-.555-1.113-1.55-1.113h-2.232v2.326H50.9c.996 0 1.664-.388 1.664-1.188zm-5.308 6.282V3.16h3.959c1.008 0 1.803.276 2.307.778.39.39.592.867.592 1.457v.025c0 1.054-.605 1.62-1.26 1.958 1.033.352 1.752.942 1.752 2.135v.025c0 1.57-1.298 2.41-3.265 2.41zm-7.53-4.432h2.27c1.11 0 1.815-.577 1.815-1.468v-.026c0-.941-.68-1.456-1.828-1.456h-2.256zm-1.55 4.432V3.16h3.933c1.11 0 1.98.326 2.547.879.466.477.73 1.13.73 1.896v.025c0 1.443-.869 2.31-2.092 2.661l2.383 3.327h-1.84l-2.169-3.063h-1.941v3.063zm-8.412 0V3.16h6.542v1.381h-4.992v2.285h4.425v1.381h-4.425v2.36h5.055v1.381zm-6.513.063L19.586 3.16H21.3l2.657 6.754L26.6 3.16h1.675l-3.652 8.851zm-11.32-.063V3.16h6.542v1.381h-4.992v2.285h4.425v1.381H13.48v2.36h5.055v1.381zM4.4 7.516h2.274c1.112 0 1.82-.577 1.82-1.468v-.026c0-.941-.682-1.456-1.832-1.456H4.4zM2.85 11.948V3.16h3.933c1.11 0 1.98.326 2.547.879.466.477.73 1.13.73 1.896v.025c0 1.443-.869 2.31-2.092 2.661l2.383 3.327H8.51L6.341 8.885H4.401v3.063z"/></mask></defs><g><g><g filter="url(#p42wa)"><path fill="none" d="M53.065 9.35c0-.741-.593-1.18-1.82-1.18h-2.463v2.41h2.578c1.061 0 1.705-.414 1.705-1.205zm-.501-3.684v-.025c0-.687-.555-1.113-1.55-1.113h-2.232v2.326H50.9c.996 0 1.664-.388 1.664-1.188zm-5.308 6.282V3.16h3.959c1.008 0 1.803.276 2.307.778.39.39.592.867.592 1.457v.025c0 1.054-.605 1.62-1.26 1.958 1.033.352 1.752.942 1.752 2.135v.025c0 1.57-1.298 2.41-3.265 2.41zm-7.53-4.432h2.27c1.11 0 1.815-.577 1.815-1.468v-.026c0-.941-.68-1.456-1.828-1.456h-2.256zm-1.55 4.432V3.16h3.933c1.11 0 1.98.326 2.547.879.466.477.73 1.13.73 1.896v.025c0 1.443-.869 2.31-2.092 2.661l2.383 3.327h-1.84l-2.169-3.063h-1.941v3.063zm-8.412 0V3.16h6.542v1.381h-4.992v2.285h4.425v1.381h-4.425v2.36h5.055v1.381zm-6.513.063L19.586 3.16H21.3l2.657 6.754L26.6 3.16h1.675l-3.652 8.851zm-11.32-.063V3.16h6.542v1.381h-4.992v2.285h4.425v1.381H13.48v2.36h5.055v1.381zM4.4 7.516h2.274c1.112 0 1.82-.577 1.82-1.468v-.026c0-.941-.682-1.456-1.832-1.456H4.4zM2.85 11.948V3.16h3.933c1.11 0 1.98.326 2.547.879.466.477.73 1.13.73 1.896v.025c0 1.443-.869 2.31-2.092 2.661l2.383 3.327H8.51L6.341 8.885H4.401v3.063z" mask="url(&quot;#p42wb&quot;)"/><path d="M53.065 9.35c0-.741-.593-1.18-1.82-1.18h-2.463v2.41h2.578c1.061 0 1.705-.414 1.705-1.205zm-.501-3.684v-.025c0-.687-.555-1.113-1.55-1.113h-2.232v2.326H50.9c.996 0 1.664-.388 1.664-1.188zm-5.308 6.282V3.16h3.959c1.008 0 1.803.276 2.307.778.39.39.592.867.592 1.457v.025c0 1.054-.605 1.62-1.26 1.958 1.033.352 1.752.942 1.752 2.135v.025c0 1.57-1.298 2.41-3.265 2.41zm-7.53-4.432h2.27c1.11 0 1.815-.577 1.815-1.468v-.026c0-.941-.68-1.456-1.828-1.456h-2.256zm-1.55 4.432V3.16h3.933c1.11 0 1.98.326 2.547.879.466.477.73 1.13.73 1.896v.025c0 1.443-.869 2.31-2.092 2.661l2.383 3.327h-1.84l-2.169-3.063h-1.941v3.063zm-8.412 0V3.16h6.542v1.381h-4.992v2.285h4.425v1.381h-4.425v2.36h5.055v1.381zm-6.513.063L19.586 3.16H21.3l2.657 6.754L26.6 3.16h1.675l-3.652 8.851zm-11.32-.063V3.16h6.542v1.381h-4.992v2.285h4.425v1.381H13.48v2.36h5.055v1.381zM4.4 7.516h2.274c1.112 0 1.82-.577 1.82-1.468v-.026c0-.941-.682-1.456-1.832-1.456H4.4zM2.85 11.948V3.16h3.933c1.11 0 1.98.326 2.547.879.466.477.73 1.13.73 1.896v.025c0 1.443-.869 2.31-2.092 2.661l2.383 3.327H8.51L6.341 8.885H4.401v3.063z"/></g><g filter="url(#p42wc)"><path fill="none" d="M53.065 9.35c0-.741-.593-1.18-1.82-1.18h-2.463v2.41h2.578c1.061 0 1.705-.414 1.705-1.205zm-.501-3.684v-.025c0-.687-.555-1.113-1.55-1.113h-2.232v2.326H50.9c.996 0 1.664-.388 1.664-1.188zm-5.308 6.282V3.16h3.959c1.008 0 1.803.276 2.307.778.39.39.592.867.592 1.457v.025c0 1.054-.605 1.62-1.26 1.958 1.033.352 1.752.942 1.752 2.135v.025c0 1.57-1.298 2.41-3.265 2.41zm-7.53-4.432h2.27c1.11 0 1.815-.577 1.815-1.468v-.026c0-.941-.68-1.456-1.828-1.456h-2.256zm-1.55 4.432V3.16h3.933c1.11 0 1.98.326 2.547.879.466.477.73 1.13.73 1.896v.025c0 1.443-.869 2.31-2.092 2.661l2.383 3.327h-1.84l-2.169-3.063h-1.941v3.063zm-8.412 0V3.16h6.542v1.381h-4.992v2.285h4.425v1.381h-4.425v2.36h5.055v1.381zm-6.513.063L19.586 3.16H21.3l2.657 6.754L26.6 3.16h1.675l-3.652 8.851zm-11.32-.063V3.16h6.542v1.381h-4.992v2.285h4.425v1.381H13.48v2.36h5.055v1.381zM4.4 7.516h2.274c1.112 0 1.82-.577 1.82-1.468v-.026c0-.941-.682-1.456-1.832-1.456H4.4zM2.85 11.948V3.16h3.933c1.11 0 1.98.326 2.547.879.466.477.73 1.13.73 1.896v.025c0 1.443-.869 2.31-2.092 2.661l2.383 3.327H8.51L6.341 8.885H4.401v3.063z" mask="url(&quot;#p42wd&quot;)"/><path d="M53.065 9.35c0-.741-.593-1.18-1.82-1.18h-2.463v2.41h2.578c1.061 0 1.705-.414 1.705-1.205zm-.501-3.684v-.025c0-.687-.555-1.113-1.55-1.113h-2.232v2.326H50.9c.996 0 1.664-.388 1.664-1.188zm-5.308 6.282V3.16h3.959c1.008 0 1.803.276 2.307.778.39.39.592.867.592 1.457v.025c0 1.054-.605 1.62-1.26 1.958 1.033.352 1.752.942 1.752 2.135v.025c0 1.57-1.298 2.41-3.265 2.41zm-7.53-4.432h2.27c1.11 0 1.815-.577 1.815-1.468v-.026c0-.941-.68-1.456-1.828-1.456h-2.256zm-1.55 4.432V3.16h3.933c1.11 0 1.98.326 2.547.879.466.477.73 1.13.73 1.896v.025c0 1.443-.869 2.31-2.092 2.661l2.383 3.327h-1.84l-2.169-3.063h-1.941v3.063zm-8.412 0V3.16h6.542v1.381h-4.992v2.285h4.425v1.381h-4.425v2.36h5.055v1.381zm-6.513.063L19.586 3.16H21.3l2.657 6.754L26.6 3.16h1.675l-3.652 8.851zm-11.32-.063V3.16h6.542v1.381h-4.992v2.285h4.425v1.381H13.48v2.36h5.055v1.381zM4.4 7.516h2.274c1.112 0 1.82-.577 1.82-1.468v-.026c0-.941-.682-1.456-1.832-1.456H4.4zM2.85 11.948V3.16h3.933c1.11 0 1.98.326 2.547.879.466.477.73 1.13.73 1.896v.025c0 1.443-.869 2.31-2.092 2.661l2.383 3.327H8.51L6.341 8.885H4.401v3.063z"/></g><path fill="#d5d5d5" d="M53.065 9.35c0-.741-.593-1.18-1.82-1.18h-2.463v2.41h2.578c1.061 0 1.705-.414 1.705-1.205zm-.501-3.684v-.025c0-.687-.555-1.113-1.55-1.113h-2.232v2.326H50.9c.996 0 1.664-.388 1.664-1.188zm-5.308 6.282V3.16h3.959c1.008 0 1.803.276 2.307.778.39.39.592.867.592 1.457v.025c0 1.054-.605 1.62-1.26 1.958 1.033.352 1.752.942 1.752 2.135v.025c0 1.57-1.298 2.41-3.265 2.41zm-7.53-4.432h2.27c1.11 0 1.815-.577 1.815-1.468v-.026c0-.941-.68-1.456-1.828-1.456h-2.256zm-1.55 4.432V3.16h3.933c1.11 0 1.98.326 2.547.879.466.477.73 1.13.73 1.896v.025c0 1.443-.869 2.31-2.092 2.661l2.383 3.327h-1.84l-2.169-3.063h-1.941v3.063zm-8.412 0V3.16h6.542v1.381h-4.992v2.285h4.425v1.381h-4.425v2.36h5.055v1.381zm-6.513.063L19.586 3.16H21.3l2.657 6.754L26.6 3.16h1.675l-3.652 8.851zm-11.32-.063V3.16h6.542v1.381h-4.992v2.285h4.425v1.381H13.48v2.36h5.055v1.381zM4.4 7.516h2.274c1.112 0 1.82-.577 1.82-1.468v-.026c0-.941-.682-1.456-1.832-1.456H4.4zM2.85 11.948V3.16h3.933c1.11 0 1.98.326 2.547.879.466.477.73 1.13.73 1.896v.025c0 1.443-.869 2.31-2.092 2.661l2.383 3.327H8.51L6.341 8.885H4.401v3.063z"/><path fill-opacity=".5" d="M1 13.5v-12h55v12zm52.065-4.625c0 .79-.644 1.205-1.705 1.205h-2.578V7.67h2.464c1.226 0 1.82.439 1.82 1.18zm-.501-3.709c0 .8-.668 1.188-1.664 1.188h-2.118V4.028h2.231c.996 0 1.55.426 1.55 1.113zm-1.223 6.282c1.967 0 3.265-.84 3.265-2.41v-.025c0-1.193-.719-1.783-1.752-2.135.655-.339 1.26-.904 1.26-1.958v-.025c0-.59-.201-1.067-.592-1.457-.504-.502-1.299-.778-2.307-.778h-3.959v8.788zM39.727 4.066h2.256c1.147 0 1.828.515 1.828 1.456v.026c0 .891-.706 1.468-1.815 1.468h-2.27zm0 7.382V8.385h1.941l2.168 3.063h1.84l-2.382-3.327c1.223-.351 2.093-1.217 2.093-2.661v-.025c0-.766-.265-1.42-.731-1.896-.568-.553-1.437-.879-2.547-.879h-3.933v8.788zm-3.358 0v-1.38h-5.055V7.706h4.425V6.326h-4.425V4.041h4.992V2.66h-6.542v8.788zm-11.746.063l3.652-8.851H26.6l-2.644 6.754-2.657-6.754h-1.713l3.665 8.851zm-6.087-.063v-1.38h-5.055V7.706h4.425V6.326H13.48V4.041h4.992V2.66H11.93v8.788zM4.401 4.066h2.262c1.15 0 1.832.515 1.832 1.456v.026c0 .891-.708 1.468-1.82 1.468H4.401zm0 7.382V8.385h1.941l2.168 3.063h1.84L7.969 8.121c1.223-.351 2.093-1.217 2.093-2.661v-.025c0-.766-.265-1.42-.731-1.896-.568-.553-1.437-.879-2.547-.879H2.85v8.788z" filter="url(#p42we)" mask="url(&quot;#p42wf&quot;)"/></g></g></svg>