<svg xmlns="http://www.w3.org/2000/svg" width="24" height="24" viewBox="0 0 24 24"><defs><mask id="6p1vc" width="2" height="2" x="-1" y="-1"><path fill="#fff" d="M4 4h16v16H4z"/><path d="M4 6a2 2 0 0 1 2-2h12a2 2 0 0 1 2 2v12a2 2 0 0 1-2 2H6a2 2 0 0 1-2-2zm1 12a1 1 0 0 0 1 1h12a1 1 0 0 0 1-1v-5.347l-3.42 2.86L15 16v-5.855L7.997 16 8 14.695H8V10.14L5 12.65zm14-6.65V6a1 1 0 0 0-1-1H6a1 1 0 0 0-1 1v5.345L8.607 8.33 9 8h.001v1.304H9v4.555l6-5.017v-.006L16 8v.006l.005-.004-.002 1.305-.003.002v4.549z"/></mask><filter id="6p1vb" width="44" height="44" x="-10" y="-10" filterUnits="userSpaceOnUse"><feOffset in="SourceGraphic" result="FeOffset1145Out"/><feGaussianBlur in="FeOffset1145Out" result="FeGaussianBlur1146Out" stdDeviation="1.6 1.6"/></filter><filter id="6p1va" width="160%" height="160%" x="-20%" y="-20%" filterUnits="objectBoundingBox"><feGaussianBlur in="SourceGraphic" result="FeGaussianBlur1149Out" stdDeviation="0.7561383928571429 0.7561383928571429"/></filter><mask id="6p1vf" width="2" height="2" x="-1" y="-1"><path fill="#fff" d="M4 4h16v16H4z"/><path d="M4 6a2 2 0 0 1 2-2h12a2 2 0 0 1 2 2v12a2 2 0 0 1-2 2H6a2 2 0 0 1-2-2zm1 12a1 1 0 0 0 1 1h12a1 1 0 0 0 1-1v-5.347l-3.42 2.86L15 16v-5.855L7.997 16 8 14.695H8V10.14L5 12.65zm14-6.65V6a1 1 0 0 0-1-1H6a1 1 0 0 0-1 1v5.345L8.607 8.33 9 8h.001v1.304H9v4.555l6-5.017v-.006L16 8v.006l.005-.004-.002 1.305-.003.002v4.549z"/></mask><filter id="6p1ve" width="44" height="44" x="-10" y="-10" filterUnits="userSpaceOnUse"><feOffset in="SourceGraphic" result="FeOffset1163Out"/><feGaussianBlur in="FeOffset1163Out" result="FeGaussianBlur1164Out" stdDeviation="1.6 1.6"/></filter><filter id="6p1vd" width="160%" height="160%" x="-20%" y="-20%" filterUnits="objectBoundingBox"><feGaussianBlur in="SourceGraphic" result="FeGaussianBlur1167Out" stdDeviation="0.7561383928571429 0.7561383928571429"/></filter><filter id="6p1vg" width="200%" height="200%" x="-50%" y="-50%"><feGaussianBlur in="SourceGraphic" result="FeGaussianBlur1176Out" stdDeviation="0.025 0.025"/></filter><mask id="6p1vh"><path fill="#fff" d="M4 6a2 2 0 0 1 2-2h12a2 2 0 0 1 2 2v12a2 2 0 0 1-2 2H6a2 2 0 0 1-2-2zm1 12a1 1 0 0 0 1 1h12a1 1 0 0 0 1-1v-5.347l-3.42 2.86L15 16v-5.855L7.997 16 8 14.695H8V10.14L5 12.65zm14-6.65V6a1 1 0 0 0-1-1H6a1 1 0 0 0-1 1v5.345L8.607 8.33 9 8h.001v1.304H9v4.555l6-5.017v-.006L16 8v.006l.005-.004-.002 1.305-.003.002v4.549z"/></mask></defs><g><g filter="url(#6p1va)"><g filter="url(#6p1vb)"><path fill="none" d="M4 6a2 2 0 0 1 2-2h12a2 2 0 0 1 2 2v12a2 2 0 0 1-2 2H6a2 2 0 0 1-2-2zm1 12a1 1 0 0 0 1 1h12a1 1 0 0 0 1-1v-5.347l-3.42 2.86L15 16v-5.855L7.997 16 8 14.695H8V10.14L5 12.65zm14-6.65V6a1 1 0 0 0-1-1H6a1 1 0 0 0-1 1v5.345L8.607 8.33 9 8h.001v1.304H9v4.555l6-5.017v-.006L16 8v.006l.005-.004-.002 1.305-.003.002v4.549z" mask="url(&quot;#6p1vc&quot;)"/><path fill="#db2235" d="M4 6a2 2 0 0 1 2-2h12a2 2 0 0 1 2 2v12a2 2 0 0 1-2 2H6a2 2 0 0 1-2-2zm1 12a1 1 0 0 0 1 1h12a1 1 0 0 0 1-1v-5.347l-3.42 2.86L15 16v-5.855L7.997 16 8 14.695H8V10.14L5 12.65zm14-6.65V6a1 1 0 0 0-1-1H6a1 1 0 0 0-1 1v5.345L8.607 8.33 9 8h.001v1.304H9v4.555l6-5.017v-.006L16 8v.006l.005-.004-.002 1.305-.003.002v4.549z"/></g><path fill="#db2235" d="M4 6a2 2 0 0 1 2-2h12a2 2 0 0 1 2 2v12a2 2 0 0 1-2 2H6a2 2 0 0 1-2-2zm1 12a1 1 0 0 0 1 1h12a1 1 0 0 0 1-1v-5.347l-3.42 2.86L15 16v-5.855L7.997 16 8 14.695H8V10.14L5 12.65zm14-6.65V6a1 1 0 0 0-1-1H6a1 1 0 0 0-1 1v5.345L8.607 8.33 9 8h.001v1.304H9v4.555l6-5.017v-.006L16 8v.006l.005-.004-.002 1.305-.003.002v4.549z"/></g><g filter="url(#6p1vd)"><g filter="url(#6p1ve)"><path fill="none" d="M4 6a2 2 0 0 1 2-2h12a2 2 0 0 1 2 2v12a2 2 0 0 1-2 2H6a2 2 0 0 1-2-2zm1 12a1 1 0 0 0 1 1h12a1 1 0 0 0 1-1v-5.347l-3.42 2.86L15 16v-5.855L7.997 16 8 14.695H8V10.14L5 12.65zm14-6.65V6a1 1 0 0 0-1-1H6a1 1 0 0 0-1 1v5.345L8.607 8.33 9 8h.001v1.304H9v4.555l6-5.017v-.006L16 8v.006l.005-.004-.002 1.305-.003.002v4.549z" mask="url(&quot;#6p1vf&quot;)"/><path fill="#db2235" d="M4 6a2 2 0 0 1 2-2h12a2 2 0 0 1 2 2v12a2 2 0 0 1-2 2H6a2 2 0 0 1-2-2zm1 12a1 1 0 0 0 1 1h12a1 1 0 0 0 1-1v-5.347l-3.42 2.86L15 16v-5.855L7.997 16 8 14.695H8V10.14L5 12.65zm14-6.65V6a1 1 0 0 0-1-1H6a1 1 0 0 0-1 1v5.345L8.607 8.33 9 8h.001v1.304H9v4.555l6-5.017v-.006L16 8v.006l.005-.004-.002 1.305-.003.002v4.549z"/></g><path fill="#db2235" d="M4 6a2 2 0 0 1 2-2h12a2 2 0 0 1 2 2v12a2 2 0 0 1-2 2H6a2 2 0 0 1-2-2zm1 12a1 1 0 0 0 1 1h12a1 1 0 0 0 1-1v-5.347l-3.42 2.86L15 16v-5.855L7.997 16 8 14.695H8V10.14L5 12.65zm14-6.65V6a1 1 0 0 0-1-1H6a1 1 0 0 0-1 1v5.345L8.607 8.33 9 8h.001v1.304H9v4.555l6-5.017v-.006L16 8v.006l.005-.004-.002 1.305-.003.002v4.549z"/></g><g><path fill="#fff" d="M4 6a2 2 0 0 1 2-2h12a2 2 0 0 1 2 2v12a2 2 0 0 1-2 2H6a2 2 0 0 1-2-2zm1 12a1 1 0 0 0 1 1h12a1 1 0 0 0 1-1v-5.347l-3.42 2.86L15 16v-5.855L7.997 16 8 14.695H8V10.14L5 12.65zm14-6.65V6a1 1 0 0 0-1-1H6a1 1 0 0 0-1 1v5.345L8.607 8.33 9 8h.001v1.304H9v4.555l6-5.017v-.006L16 8v.006l.005-.004-.002 1.305-.003.002v4.549z"/><path fill="#db2235" d="M3.95 20.05V3.95h16.1v16.1zM4 18a2 2 0 0 0 2 2h12a2 2 0 0 0 2-2V6a2 2 0 0 0-2-2H6a2 2 0 0 0-2 2zm1-5.351l3-2.509v4.555L7.996 16 15 10.145V16l.58-.487 3.42-2.86V18a1 1 0 0 1-1 1H6a1 1 0 0 1-1-1zm11 1.209V9.309l.003-.002.002-1.305-.005.004V8l-1 .836v.006l-6 5.017V9.304L9.001 8H9l-.393.33L5 11.344V6a1 1 0 0 1 1-1h12a1 1 0 0 1 1 1v5.35z" filter="url(#6p1vg)" mask="url(&quot;#6p1vh&quot;)"/></g></g></svg>