<svg xmlns="http://www.w3.org/2000/svg" width="18" height="18" viewBox="0 0 18 18"><defs><mask id="9fv9b" width="2" height="2" x="-1" y="-1"><path fill="#fff" d="M1 1h16v16H1z"/><path d="M1 3a2 2 0 0 1 2-2h12a2 2 0 0 1 2 2v12a2 2 0 0 1-2 2H3a2 2 0 0 1-2-2zm1 12a1 1 0 0 0 1 1h12a1 1 0 0 0 1-1V9.653l-3.42 2.86L12 13V7.145L4.997 13 5 11.695H5V7.14L2 9.65zm14-6.65V3a1 1 0 0 0-1-1H3a1 1 0 0 0-1 1v5.345L5.607 5.33 6 5h.001v1.304H6v4.555l6-5.017v-.006L13 5v.006l.005-.004-.002 1.305-.003.002v4.549z"/></mask><filter id="9fv9a" width="38" height="38.5" x="-10" y="-10" filterUnits="userSpaceOnUse"><feOffset dy=".5" in="SourceGraphic" result="FeOffset1109Out"/><feGaussianBlur in="FeOffset1109Out" result="FeGaussianBlur1110Out" stdDeviation="0.4 0.4"/></filter><mask id="9fv9d" width="2" height="2" x="-1" y="-1"><path fill="#fff" d="M1 1h16v16H1z"/><path d="M1 3a2 2 0 0 1 2-2h12a2 2 0 0 1 2 2v12a2 2 0 0 1-2 2H3a2 2 0 0 1-2-2zm1 12a1 1 0 0 0 1 1h12a1 1 0 0 0 1-1V9.653l-3.42 2.86L12 13V7.145L4.997 13 5 11.695H5V7.14L2 9.65zm14-6.65V3a1 1 0 0 0-1-1H3a1 1 0 0 0-1 1v5.345L5.607 5.33 6 5h.001v1.304H6v4.555l6-5.017v-.006L13 5v.006l.005-.004-.002 1.305-.003.002v4.549z"/></mask><filter id="9fv9c" width="38" height="38.5" x="-10" y="-10.5" filterUnits="userSpaceOnUse"><feOffset dy="-.5" in="SourceGraphic" result="FeOffset1120Out"/><feGaussianBlur in="FeOffset1120Out" result="FeGaussianBlur1121Out" stdDeviation="0.4 0.4"/></filter><filter id="9fv9e" width="200%" height="200%" x="-50%" y="-50%"><feGaussianBlur in="SourceGraphic" result="FeGaussianBlur1126Out" stdDeviation="1 1"/></filter><mask id="9fv9f"><path fill="#fff" d="M1 3a2 2 0 0 1 2-2h12a2 2 0 0 1 2 2v12a2 2 0 0 1-2 2H3a2 2 0 0 1-2-2zm1 12a1 1 0 0 0 1 1h12a1 1 0 0 0 1-1V9.653l-3.42 2.86L12 13V7.145L4.997 13 5 11.695H5V7.14L2 9.65zm14-6.65V3a1 1 0 0 0-1-1H3a1 1 0 0 0-1 1v5.345L5.607 5.33 6 5h.001v1.304H6v4.555l6-5.017v-.006L13 5v.006l.005-.004-.002 1.305-.003.002v4.549z"/></mask></defs><g><g><g filter="url(#9fv9a)"><path fill="none" d="M1 3a2 2 0 0 1 2-2h12a2 2 0 0 1 2 2v12a2 2 0 0 1-2 2H3a2 2 0 0 1-2-2zm1 12a1 1 0 0 0 1 1h12a1 1 0 0 0 1-1V9.653l-3.42 2.86L12 13V7.145L4.997 13 5 11.695H5V7.14L2 9.65zm14-6.65V3a1 1 0 0 0-1-1H3a1 1 0 0 0-1 1v5.345L5.607 5.33 6 5h.001v1.304H6v4.555l6-5.017v-.006L13 5v.006l.005-.004-.002 1.305-.003.002v4.549z" mask="url(&quot;#9fv9b&quot;)"/><path fill="#fff" fill-opacity=".24" d="M1 3a2 2 0 0 1 2-2h12a2 2 0 0 1 2 2v12a2 2 0 0 1-2 2H3a2 2 0 0 1-2-2zm1 12a1 1 0 0 0 1 1h12a1 1 0 0 0 1-1V9.653l-3.42 2.86L12 13V7.145L4.997 13 5 11.695H5V7.14L2 9.65zm14-6.65V3a1 1 0 0 0-1-1H3a1 1 0 0 0-1 1v5.345L5.607 5.33 6 5h.001v1.304H6v4.555l6-5.017v-.006L13 5v.006l.005-.004-.002 1.305-.003.002v4.549z"/></g><g filter="url(#9fv9c)"><path fill="none" d="M1 3a2 2 0 0 1 2-2h12a2 2 0 0 1 2 2v12a2 2 0 0 1-2 2H3a2 2 0 0 1-2-2zm1 12a1 1 0 0 0 1 1h12a1 1 0 0 0 1-1V9.653l-3.42 2.86L12 13V7.145L4.997 13 5 11.695H5V7.14L2 9.65zm14-6.65V3a1 1 0 0 0-1-1H3a1 1 0 0 0-1 1v5.345L5.607 5.33 6 5h.001v1.304H6v4.555l6-5.017v-.006L13 5v.006l.005-.004-.002 1.305-.003.002v4.549z" mask="url(&quot;#9fv9d&quot;)"/><path fill-opacity=".24" d="M1 3a2 2 0 0 1 2-2h12a2 2 0 0 1 2 2v12a2 2 0 0 1-2 2H3a2 2 0 0 1-2-2zm1 12a1 1 0 0 0 1 1h12a1 1 0 0 0 1-1V9.653l-3.42 2.86L12 13V7.145L4.997 13 5 11.695H5V7.14L2 9.65zm14-6.65V3a1 1 0 0 0-1-1H3a1 1 0 0 0-1 1v5.345L5.607 5.33 6 5h.001v1.304H6v4.555l6-5.017v-.006L13 5v.006l.005-.004-.002 1.305-.003.002v4.549z"/></g><path fill-opacity=".54" d="M1 3a2 2 0 0 1 2-2h12a2 2 0 0 1 2 2v12a2 2 0 0 1-2 2H3a2 2 0 0 1-2-2zm1 12a1 1 0 0 0 1 1h12a1 1 0 0 0 1-1V9.653l-3.42 2.86L12 13V7.145L4.997 13 5 11.695H5V7.14L2 9.65zm14-6.65V3a1 1 0 0 0-1-1H3a1 1 0 0 0-1 1v5.345L5.607 5.33 6 5h.001v1.304H6v4.555l6-5.017v-.006L13 5v.006l.005-.004-.002 1.305-.003.002v4.549z"/><path fill-opacity=".5" d="M-1 20V-2h20v22zm2-4a2 2 0 0 0 2 2h12a2 2 0 0 0 2-2V4a2 2 0 0 0-2-2H3a2 2 0 0 0-2 2zm1-5.351L5 8.14v4.555L4.996 14 12 8.145V14l.58-.487 3.42-2.86V16a1 1 0 0 1-1 1H3a1 1 0 0 1-1-1zm11 1.209V7.309l.003-.002.002-1.305-.005.004V6l-1 .836v.006l-6 5.017V7.304L6.001 6H6l-.393.33L2 9.344V4a1 1 0 0 1 1-1h12a1 1 0 0 1 1 1v5.35z" filter="url(#9fv9e)" mask="url(&quot;#9fv9f&quot;)"/></g></g></svg>