<svg xmlns="http://www.w3.org/2000/svg" width="24" height="24" viewBox="0 0 24 24"><defs><mask id="i04dc" width="2" height="2" x="-1" y="-1"><path fill="#fff" d="M4 4h16v16H4z"/><path d="M4 6a2 2 0 0 1 2-2h12a2 2 0 0 1 2 2v12a2 2 0 0 1-2 2H6a2 2 0 0 1-2-2v-7.5h1v4.932a2 2 0 0 0 1.5-1.976V11.5s0-.19.034-.453a3 3 0 0 1 5.966.452V13.5a2 2 0 1 0 4 0V11.5s0-.14.02-.355A3.002 3.002 0 0 1 19 8.541V6a1 1 0 0 0-1-1H6a1 1 0 0 0-1 1v4.495H4zm13.5 5.5v1.995s0 .146-.024.385a3 3 0 0 1-5.915.228c-.061-.358-.061-.606-.061-.606v-2.001a2 2 0 1 0-4 0v2l-.01.232A3.001 3.001 0 0 1 5 16.453V18a1 1 0 0 0 1 1h12a1 1 0 0 0 1-1V9.563a2 2 0 0 0-1.5 1.937z"/></mask><filter id="i04db" width="44" height="44" x="-10" y="-10" filterUnits="userSpaceOnUse"><feOffset in="SourceGraphic" result="FeOffset1073Out"/><feGaussianBlur in="FeOffset1073Out" result="FeGaussianBlur1074Out" stdDeviation="1.6 1.6"/></filter><filter id="i04da" width="160%" height="160%" x="-20%" y="-20%" filterUnits="objectBoundingBox"><feGaussianBlur in="SourceGraphic" result="FeGaussianBlur1077Out" stdDeviation="0.7561383928571429 0.7561383928571429"/></filter><mask id="i04df" width="2" height="2" x="-1" y="-1"><path fill="#fff" d="M4 4h16v16H4z"/><path d="M4 6a2 2 0 0 1 2-2h12a2 2 0 0 1 2 2v12a2 2 0 0 1-2 2H6a2 2 0 0 1-2-2v-7.5h1v4.932a2 2 0 0 0 1.5-1.976V11.5s0-.19.034-.453a3 3 0 0 1 5.966.452V13.5a2 2 0 1 0 4 0V11.5s0-.14.02-.355A3.002 3.002 0 0 1 19 8.541V6a1 1 0 0 0-1-1H6a1 1 0 0 0-1 1v4.495H4zm13.5 5.5v1.995s0 .146-.024.385a3 3 0 0 1-5.915.228c-.061-.358-.061-.606-.061-.606v-2.001a2 2 0 1 0-4 0v2l-.01.232A3.001 3.001 0 0 1 5 16.453V18a1 1 0 0 0 1 1h12a1 1 0 0 0 1-1V9.563a2 2 0 0 0-1.5 1.937z"/></mask><filter id="i04de" width="44" height="44" x="-10" y="-10" filterUnits="userSpaceOnUse"><feOffset in="SourceGraphic" result="FeOffset1091Out"/><feGaussianBlur in="FeOffset1091Out" result="FeGaussianBlur1092Out" stdDeviation="1.6 1.6"/></filter><filter id="i04dd" width="160%" height="160%" x="-20%" y="-20%" filterUnits="objectBoundingBox"><feGaussianBlur in="SourceGraphic" result="FeGaussianBlur1095Out" stdDeviation="0.7561383928571429 0.7561383928571429"/></filter><filter id="i04dg" width="200%" height="200%" x="-50%" y="-50%"><feGaussianBlur in="SourceGraphic" result="FeGaussianBlur1104Out" stdDeviation="0.025 0.025"/></filter><mask id="i04dh"><path fill="#fff" d="M4 6a2 2 0 0 1 2-2h12a2 2 0 0 1 2 2v12a2 2 0 0 1-2 2H6a2 2 0 0 1-2-2v-7.5h1v4.932a2 2 0 0 0 1.5-1.976V11.5s0-.19.034-.453a3 3 0 0 1 5.966.452V13.5a2 2 0 1 0 4 0V11.5s0-.14.02-.355A3.002 3.002 0 0 1 19 8.541V6a1 1 0 0 0-1-1H6a1 1 0 0 0-1 1v4.495H4zm1 12a1 1 0 0 0 1 1h12a1 1 0 0 0 1-1V9.563a2 2 0 0 0-1.5 1.976v1.956s0 .146-.024.385a3 3 0 0 1-5.915.228c-.061-.358-.061-.606-.061-.606v-2.001a2 2 0 1 0-4 0v2l-.01.232A3.001 3.001 0 0 1 5 16.453z"/></mask></defs><g><g filter="url(#i04da)"><g filter="url(#i04db)"><path fill="none" d="M4 6a2 2 0 0 1 2-2h12a2 2 0 0 1 2 2v12a2 2 0 0 1-2 2H6a2 2 0 0 1-2-2v-7.5h1v4.932a2 2 0 0 0 1.5-1.976V11.5s0-.19.034-.453a3 3 0 0 1 5.966.452V13.5a2 2 0 1 0 4 0V11.5s0-.14.02-.355A3.002 3.002 0 0 1 19 8.541V6a1 1 0 0 0-1-1H6a1 1 0 0 0-1 1v4.495H4zm13.5 5.5v1.995s0 .146-.024.385a3 3 0 0 1-5.915.228c-.061-.358-.061-.606-.061-.606v-2.001a2 2 0 1 0-4 0v2l-.01.232A3.001 3.001 0 0 1 5 16.453V18a1 1 0 0 0 1 1h12a1 1 0 0 0 1-1V9.563a2 2 0 0 0-1.5 1.937z" mask="url(&quot;#i04dc&quot;)"/><path fill="#db2235" d="M4 6a2 2 0 0 1 2-2h12a2 2 0 0 1 2 2v12a2 2 0 0 1-2 2H6a2 2 0 0 1-2-2v-7.5h1v4.932a2 2 0 0 0 1.5-1.976V11.5s0-.19.034-.453a3 3 0 0 1 5.966.452V13.5a2 2 0 1 0 4 0V11.5s0-.14.02-.355A3.002 3.002 0 0 1 19 8.541V6a1 1 0 0 0-1-1H6a1 1 0 0 0-1 1v4.495H4zm13.5 5.5v1.995s0 .146-.024.385a3 3 0 0 1-5.915.228c-.061-.358-.061-.606-.061-.606v-2.001a2 2 0 1 0-4 0v2l-.01.232A3.001 3.001 0 0 1 5 16.453V18a1 1 0 0 0 1 1h12a1 1 0 0 0 1-1V9.563a2 2 0 0 0-1.5 1.937z"/></g><path fill="#db2235" d="M4 6a2 2 0 0 1 2-2h12a2 2 0 0 1 2 2v12a2 2 0 0 1-2 2H6a2 2 0 0 1-2-2v-7.5h1v4.932a2 2 0 0 0 1.5-1.976V11.5s0-.19.034-.453a3 3 0 0 1 5.966.452V13.5a2 2 0 1 0 4 0V11.5s0-.14.02-.355A3.002 3.002 0 0 1 19 8.541V6a1 1 0 0 0-1-1H6a1 1 0 0 0-1 1v4.495H4zm13.5 5.5v1.995s0 .146-.024.385a3 3 0 0 1-5.915.228c-.061-.358-.061-.606-.061-.606v-2.001a2 2 0 1 0-4 0v2l-.01.232A3.001 3.001 0 0 1 5 16.453V18a1 1 0 0 0 1 1h12a1 1 0 0 0 1-1V9.563a2 2 0 0 0-1.5 1.937z"/></g><g filter="url(#i04dd)"><g filter="url(#i04de)"><path fill="none" d="M4 6a2 2 0 0 1 2-2h12a2 2 0 0 1 2 2v12a2 2 0 0 1-2 2H6a2 2 0 0 1-2-2v-7.5h1v4.932a2 2 0 0 0 1.5-1.976V11.5s0-.19.034-.453a3 3 0 0 1 5.966.452V13.5a2 2 0 1 0 4 0V11.5s0-.14.02-.355A3.002 3.002 0 0 1 19 8.541V6a1 1 0 0 0-1-1H6a1 1 0 0 0-1 1v4.495H4zm13.5 5.5v1.995s0 .146-.024.385a3 3 0 0 1-5.915.228c-.061-.358-.061-.606-.061-.606v-2.001a2 2 0 1 0-4 0v2l-.01.232A3.001 3.001 0 0 1 5 16.453V18a1 1 0 0 0 1 1h12a1 1 0 0 0 1-1V9.563a2 2 0 0 0-1.5 1.937z" mask="url(&quot;#i04df&quot;)"/><path fill="#db2235" d="M4 6a2 2 0 0 1 2-2h12a2 2 0 0 1 2 2v12a2 2 0 0 1-2 2H6a2 2 0 0 1-2-2v-7.5h1v4.932a2 2 0 0 0 1.5-1.976V11.5s0-.19.034-.453a3 3 0 0 1 5.966.452V13.5a2 2 0 1 0 4 0V11.5s0-.14.02-.355A3.002 3.002 0 0 1 19 8.541V6a1 1 0 0 0-1-1H6a1 1 0 0 0-1 1v4.495H4zm13.5 5.5v1.995s0 .146-.024.385a3 3 0 0 1-5.915.228c-.061-.358-.061-.606-.061-.606v-2.001a2 2 0 1 0-4 0v2l-.01.232A3.001 3.001 0 0 1 5 16.453V18a1 1 0 0 0 1 1h12a1 1 0 0 0 1-1V9.563a2 2 0 0 0-1.5 1.937z"/></g><path fill="#db2235" d="M4 6a2 2 0 0 1 2-2h12a2 2 0 0 1 2 2v12a2 2 0 0 1-2 2H6a2 2 0 0 1-2-2v-7.5h1v4.932a2 2 0 0 0 1.5-1.976V11.5s0-.19.034-.453a3 3 0 0 1 5.966.452V13.5a2 2 0 1 0 4 0V11.5s0-.14.02-.355A3.002 3.002 0 0 1 19 8.541V6a1 1 0 0 0-1-1H6a1 1 0 0 0-1 1v4.495H4zm13.5 5.5v1.995s0 .146-.024.385a3 3 0 0 1-5.915.228c-.061-.358-.061-.606-.061-.606v-2.001a2 2 0 1 0-4 0v2l-.01.232A3.001 3.001 0 0 1 5 16.453V18a1 1 0 0 0 1 1h12a1 1 0 0 0 1-1V9.563a2 2 0 0 0-1.5 1.937z"/></g><g><path fill="#fff" d="M4 6a2 2 0 0 1 2-2h12a2 2 0 0 1 2 2v12a2 2 0 0 1-2 2H6a2 2 0 0 1-2-2v-7.5h1v4.932a2 2 0 0 0 1.5-1.976V11.5s0-.19.034-.453a3 3 0 0 1 5.966.452V13.5a2 2 0 1 0 4 0V11.5s0-.14.02-.355A3.002 3.002 0 0 1 19 8.541V6a1 1 0 0 0-1-1H6a1 1 0 0 0-1 1v4.495H4zm1 12a1 1 0 0 0 1 1h12a1 1 0 0 0 1-1V9.563a2 2 0 0 0-1.5 1.976v1.956s0 .146-.024.385a3 3 0 0 1-5.915.228c-.061-.358-.061-.606-.061-.606v-2.001a2 2 0 1 0-4 0v2l-.01.232A3.001 3.001 0 0 1 5 16.453z"/><path fill="#db2235" d="M3.95 20.05V3.95h16.1v16.1zM4 10.495h1V6a1 1 0 0 1 1-1h12a1 1 0 0 1 1 1v2.541a3.002 3.002 0 0 0-2.48 2.604c-.02.215-.02.355-.02.355v2a2 2 0 1 1-4 0V11.5s0-.102-.01-.253a3 3 0 0 0-5.956-.2c-.034.264-.034.454-.034.454v1.996A2 2 0 0 1 5 15.431V10.5H4V18a2 2 0 0 0 2 2h12a2 2 0 0 0 2-2V6a2 2 0 0 0-2-2H6a2 2 0 0 0-2 2zm1 5.959a3.001 3.001 0 0 0 2.49-2.72l.01-.233v-2a2 2 0 1 1 4 0v2.001s0 .248.061.606a3.001 3.001 0 0 0 5.915-.228c.024-.24.024-.385.024-.385V11.54 11.5A2 2 0 0 1 19 9.563V18a1 1 0 0 1-1 1H6a1 1 0 0 1-1-1z" filter="url(#i04dg)" mask="url(&quot;#i04dh&quot;)"/></g></g></svg>