<svg xmlns="http://www.w3.org/2000/svg" width="18" height="18" viewBox="0 0 18 18"><defs><mask id="raypb" width="2" height="2" x="-1" y="-1"><path fill="#fff" d="M1 1h16v16H1z"/><path d="M1 3a2 2 0 0 1 2-2h12a2 2 0 0 1 2 2v12a2 2 0 0 1-2 2H3a2 2 0 0 1-2-2V7.5h1v4.932a2 2 0 0 0 1.5-1.976V8.5s0-.19.034-.453a3 3 0 0 1 5.966.452V10.5a2 2 0 1 0 4 0V8.5s0-.14.02-.355A3.002 3.002 0 0 1 16 5.541V3a1 1 0 0 0-1-1H3a1 1 0 0 0-1 1v4.495H1zm13.5 5.5v1.995s0 .146-.024.385a3 3 0 0 1-5.915.228c-.061-.358-.061-.606-.061-.606V8.501a2 2 0 1 0-4 0v2l-.01.232A3.001 3.001 0 0 1 2 13.453V15a1 1 0 0 0 1 1h12a1 1 0 0 0 1-1V6.563A2 2 0 0 0 14.5 8.5z"/></mask><filter id="raypa" width="38" height="38.5" x="-10" y="-10" filterUnits="userSpaceOnUse"><feOffset dy=".5" in="SourceGraphic" result="FeOffset1023Out"/><feGaussianBlur in="FeOffset1023Out" result="FeGaussianBlur1024Out" stdDeviation="0.4 0.4"/></filter><mask id="raypd" width="2" height="2" x="-1" y="-1"><path fill="#fff" d="M1 1h16v16H1z"/><path d="M1 3a2 2 0 0 1 2-2h12a2 2 0 0 1 2 2v12a2 2 0 0 1-2 2H3a2 2 0 0 1-2-2V7.5h1v4.932a2 2 0 0 0 1.5-1.976V8.5s0-.19.034-.453a3 3 0 0 1 5.966.452V10.5a2 2 0 1 0 4 0V8.5s0-.14.02-.355A3.002 3.002 0 0 1 16 5.541V3a1 1 0 0 0-1-1H3a1 1 0 0 0-1 1v4.495H1zm13.5 5.5v1.995s0 .146-.024.385a3 3 0 0 1-5.915.228c-.061-.358-.061-.606-.061-.606V8.501a2 2 0 1 0-4 0v2l-.01.232A3.001 3.001 0 0 1 2 13.453V15a1 1 0 0 0 1 1h12a1 1 0 0 0 1-1V6.563A2 2 0 0 0 14.5 8.5z"/></mask><filter id="raypc" width="38" height="38.5" x="-10" y="-10.5" filterUnits="userSpaceOnUse"><feOffset dy="-.5" in="SourceGraphic" result="FeOffset1034Out"/><feGaussianBlur in="FeOffset1034Out" result="FeGaussianBlur1035Out" stdDeviation="0.4 0.4"/></filter><filter id="raype" width="200%" height="200%" x="-50%" y="-50%"><feGaussianBlur in="SourceGraphic" result="FeGaussianBlur1040Out" stdDeviation="1 1"/></filter><mask id="raypf"><path fill="#fff" d="M1 3a2 2 0 0 1 2-2h12a2 2 0 0 1 2 2v12a2 2 0 0 1-2 2H3a2 2 0 0 1-2-2V7.5h1v4.932a2 2 0 0 0 1.5-1.976V8.5s0-.19.034-.453a3 3 0 0 1 5.966.452V10.5a2 2 0 1 0 4 0V8.5s0-.14.02-.355A3.002 3.002 0 0 1 16 5.541V3a1 1 0 0 0-1-1H3a1 1 0 0 0-1 1v4.495H1zm13.5 5.5v1.995s0 .146-.024.385a3 3 0 0 1-5.915.228c-.061-.358-.061-.606-.061-.606V8.501a2 2 0 1 0-4 0v2l-.01.232A3.001 3.001 0 0 1 2 13.453V15a1 1 0 0 0 1 1h12a1 1 0 0 0 1-1V6.563A2 2 0 0 0 14.5 8.5z"/></mask></defs><g><g><g filter="url(#raypa)"><path fill="none" d="M1 3a2 2 0 0 1 2-2h12a2 2 0 0 1 2 2v12a2 2 0 0 1-2 2H3a2 2 0 0 1-2-2V7.5h1v4.932a2 2 0 0 0 1.5-1.976V8.5s0-.19.034-.453a3 3 0 0 1 5.966.452V10.5a2 2 0 1 0 4 0V8.5s0-.14.02-.355A3.002 3.002 0 0 1 16 5.541V3a1 1 0 0 0-1-1H3a1 1 0 0 0-1 1v4.495H1zm13.5 5.5v1.995s0 .146-.024.385a3 3 0 0 1-5.915.228c-.061-.358-.061-.606-.061-.606V8.501a2 2 0 1 0-4 0v2l-.01.232A3.001 3.001 0 0 1 2 13.453V15a1 1 0 0 0 1 1h12a1 1 0 0 0 1-1V6.563A2 2 0 0 0 14.5 8.5z" mask="url(&quot;#raypb&quot;)"/><path fill="#fff" fill-opacity=".24" d="M1 3a2 2 0 0 1 2-2h12a2 2 0 0 1 2 2v12a2 2 0 0 1-2 2H3a2 2 0 0 1-2-2V7.5h1v4.932a2 2 0 0 0 1.5-1.976V8.5s0-.19.034-.453a3 3 0 0 1 5.966.452V10.5a2 2 0 1 0 4 0V8.5s0-.14.02-.355A3.002 3.002 0 0 1 16 5.541V3a1 1 0 0 0-1-1H3a1 1 0 0 0-1 1v4.495H1zm13.5 5.5v1.995s0 .146-.024.385a3 3 0 0 1-5.915.228c-.061-.358-.061-.606-.061-.606V8.501a2 2 0 1 0-4 0v2l-.01.232A3.001 3.001 0 0 1 2 13.453V15a1 1 0 0 0 1 1h12a1 1 0 0 0 1-1V6.563A2 2 0 0 0 14.5 8.5z"/></g><g filter="url(#raypc)"><path fill="none" d="M1 3a2 2 0 0 1 2-2h12a2 2 0 0 1 2 2v12a2 2 0 0 1-2 2H3a2 2 0 0 1-2-2V7.5h1v4.932a2 2 0 0 0 1.5-1.976V8.5s0-.19.034-.453a3 3 0 0 1 5.966.452V10.5a2 2 0 1 0 4 0V8.5s0-.14.02-.355A3.002 3.002 0 0 1 16 5.541V3a1 1 0 0 0-1-1H3a1 1 0 0 0-1 1v4.495H1zm13.5 5.5v1.995s0 .146-.024.385a3 3 0 0 1-5.915.228c-.061-.358-.061-.606-.061-.606V8.501a2 2 0 1 0-4 0v2l-.01.232A3.001 3.001 0 0 1 2 13.453V15a1 1 0 0 0 1 1h12a1 1 0 0 0 1-1V6.563A2 2 0 0 0 14.5 8.5z" mask="url(&quot;#raypd&quot;)"/><path fill-opacity=".24" d="M1 3a2 2 0 0 1 2-2h12a2 2 0 0 1 2 2v12a2 2 0 0 1-2 2H3a2 2 0 0 1-2-2V7.5h1v4.932a2 2 0 0 0 1.5-1.976V8.5s0-.19.034-.453a3 3 0 0 1 5.966.452V10.5a2 2 0 1 0 4 0V8.5s0-.14.02-.355A3.002 3.002 0 0 1 16 5.541V3a1 1 0 0 0-1-1H3a1 1 0 0 0-1 1v4.495H1zm13.5 5.5v1.995s0 .146-.024.385a3 3 0 0 1-5.915.228c-.061-.358-.061-.606-.061-.606V8.501a2 2 0 1 0-4 0v2l-.01.232A3.001 3.001 0 0 1 2 13.453V15a1 1 0 0 0 1 1h12a1 1 0 0 0 1-1V6.563A2 2 0 0 0 14.5 8.5z"/></g><path fill-opacity=".54" d="M1 3a2 2 0 0 1 2-2h12a2 2 0 0 1 2 2v12a2 2 0 0 1-2 2H3a2 2 0 0 1-2-2V7.5h1v4.932a2 2 0 0 0 1.5-1.976V8.5s0-.19.034-.453a3 3 0 0 1 5.966.452V10.5a2 2 0 1 0 4 0V8.5s0-.14.02-.355A3.002 3.002 0 0 1 16 5.541V3a1 1 0 0 0-1-1H3a1 1 0 0 0-1 1v4.495H1zm13.5 5.5v1.995s0 .146-.024.385a3 3 0 0 1-5.915.228c-.061-.358-.061-.606-.061-.606V8.501a2 2 0 1 0-4 0v2l-.01.232A3.001 3.001 0 0 1 2 13.453V15a1 1 0 0 0 1 1h12a1 1 0 0 0 1-1V6.563A2 2 0 0 0 14.5 8.5z"/><path fill-opacity=".5" d="M-1 20V-2h20v22zM1 8.495h1V4a1 1 0 0 1 1-1h12a1 1 0 0 1 1 1v2.541a3.002 3.002 0 0 0-2.48 2.604c-.02.215-.02.355-.02.355v2a2 2 0 1 1-4 0V9.5s0-.102-.01-.253a3 3 0 0 0-5.956-.2C3.5 9.31 3.5 9.5 3.5 9.5v1.996A2 2 0 0 1 2 13.431V8.5H1V16a2 2 0 0 0 2 2h12a2 2 0 0 0 2-2V4a2 2 0 0 0-2-2H3a2 2 0 0 0-2 2zm15-.932V16a1 1 0 0 1-1 1H3a1 1 0 0 1-1-1v-1.546a3.001 3.001 0 0 0 2.49-2.72l.01-.233v-2a2 2 0 1 1 4 0v2.001s0 .248.061.606a3.001 3.001 0 0 0 5.915-.228c.024-.24.024-.385.024-.385V9.54 9.5A2 2 0 0 1 16 7.563z" filter="url(#raype)" mask="url(&quot;#raypf&quot;)"/></g></g></svg>