<svg xmlns="http://www.w3.org/2000/svg" width="18" height="18" viewBox="0 0 18 18"><defs><mask id="1y9mb" width="2" height="2" x="-1" y="-1"><path fill="#fff" d="M1 1h16v16H1z"/><path d="M1 3a2 2 0 0 1 2-2h12a2 2 0 0 1 2 2v12a2 2 0 0 1-2 2H3a2 2 0 0 1-2-2zm1 12a1 1 0 0 0 1 1h12a1 1 0 0 0 1-1V6h-1v7H9V6H5v7H2zM4 5h6v7h4V5h2V3a1 1 0 0 0-1-1H3a1 1 0 0 0-1 1v9h2z"/></mask><filter id="1y9ma" width="38" height="38.5" x="-10" y="-10" filterUnits="userSpaceOnUse"><feOffset dy=".5" in="SourceGraphic" result="FeOffset1195Out"/><feGaussianBlur in="FeOffset1195Out" result="FeGaussianBlur1196Out" stdDeviation="0.4 0.4"/></filter><mask id="1y9md" width="2" height="2" x="-1" y="-1"><path fill="#fff" d="M1 1h16v16H1z"/><path d="M1 3a2 2 0 0 1 2-2h12a2 2 0 0 1 2 2v12a2 2 0 0 1-2 2H3a2 2 0 0 1-2-2zm1 12a1 1 0 0 0 1 1h12a1 1 0 0 0 1-1V6h-1v7H9V6H5v7H2zM4 5h6v7h4V5h2V3a1 1 0 0 0-1-1H3a1 1 0 0 0-1 1v9h2z"/></mask><filter id="1y9mc" width="38" height="38.5" x="-10" y="-10.5" filterUnits="userSpaceOnUse"><feOffset dy="-.5" in="SourceGraphic" result="FeOffset1206Out"/><feGaussianBlur in="FeOffset1206Out" result="FeGaussianBlur1207Out" stdDeviation="0.4 0.4"/></filter><filter id="1y9me" width="200%" height="200%" x="-50%" y="-50%"><feGaussianBlur in="SourceGraphic" result="FeGaussianBlur1212Out" stdDeviation="1 1"/></filter><mask id="1y9mf"><path fill="#fff" d="M1 3a2 2 0 0 1 2-2h12a2 2 0 0 1 2 2v12a2 2 0 0 1-2 2H3a2 2 0 0 1-2-2zm1 12a1 1 0 0 0 1 1h12a1 1 0 0 0 1-1V6h-1v7H9V6H5v7H2zM4 5h6v7h4V5h2V3a1 1 0 0 0-1-1H3a1 1 0 0 0-1 1v9h2z"/></mask></defs><g><g><g filter="url(#1y9ma)"><path fill="none" d="M1 3a2 2 0 0 1 2-2h12a2 2 0 0 1 2 2v12a2 2 0 0 1-2 2H3a2 2 0 0 1-2-2zm1 12a1 1 0 0 0 1 1h12a1 1 0 0 0 1-1V6h-1v7H9V6H5v7H2zM4 5h6v7h4V5h2V3a1 1 0 0 0-1-1H3a1 1 0 0 0-1 1v9h2z" mask="url(&quot;#1y9mb&quot;)"/><path fill="#fff" fill-opacity=".24" d="M1 3a2 2 0 0 1 2-2h12a2 2 0 0 1 2 2v12a2 2 0 0 1-2 2H3a2 2 0 0 1-2-2zm1 12a1 1 0 0 0 1 1h12a1 1 0 0 0 1-1V6h-1v7H9V6H5v7H2zM4 5h6v7h4V5h2V3a1 1 0 0 0-1-1H3a1 1 0 0 0-1 1v9h2z"/></g><g filter="url(#1y9mc)"><path fill="none" d="M1 3a2 2 0 0 1 2-2h12a2 2 0 0 1 2 2v12a2 2 0 0 1-2 2H3a2 2 0 0 1-2-2zm1 12a1 1 0 0 0 1 1h12a1 1 0 0 0 1-1V6h-1v7H9V6H5v7H2zM4 5h6v7h4V5h2V3a1 1 0 0 0-1-1H3a1 1 0 0 0-1 1v9h2z" mask="url(&quot;#1y9md&quot;)"/><path fill-opacity=".24" d="M1 3a2 2 0 0 1 2-2h12a2 2 0 0 1 2 2v12a2 2 0 0 1-2 2H3a2 2 0 0 1-2-2zm1 12a1 1 0 0 0 1 1h12a1 1 0 0 0 1-1V6h-1v7H9V6H5v7H2zM4 5h6v7h4V5h2V3a1 1 0 0 0-1-1H3a1 1 0 0 0-1 1v9h2z"/></g><path fill-opacity=".54" d="M1 3a2 2 0 0 1 2-2h12a2 2 0 0 1 2 2v12a2 2 0 0 1-2 2H3a2 2 0 0 1-2-2zm1 12a1 1 0 0 0 1 1h12a1 1 0 0 0 1-1V6h-1v7H9V6H5v7H2zM4 5h6v7h4V5h2V3a1 1 0 0 0-1-1H3a1 1 0 0 0-1 1v9h2z"/><path fill-opacity=".5" d="M-1 20V-2h20v22zm2-4a2 2 0 0 0 2 2h12a2 2 0 0 0 2-2V4a2 2 0 0 0-2-2H3a2 2 0 0 0-2 2zm1-2h3V7h4v7h6V7h1v9a1 1 0 0 1-1 1H3a1 1 0 0 1-1-1zm2-1H2V4a1 1 0 0 1 1-1h12a1 1 0 0 1 1 1v2h-2v7h-4V6H4z" filter="url(#1y9me)" mask="url(&quot;#1y9mf&quot;)"/></g></g></svg>