<svg xmlns="http://www.w3.org/2000/svg" width="24" height="24" viewBox="0 0 24 24"><defs><mask id="xttoc" width="2" height="2" x="-1" y="-1"><path fill="#fff" d="M4 4h16v16H4z"/><path d="M4 6a2 2 0 0 1 2-2h12a2 2 0 0 1 2 2v12a2 2 0 0 1-2 2H6a2 2 0 0 1-2-2zm1 12a1 1 0 0 0 1 1h12a1 1 0 0 0 1-1V9h-1v7h-6V9H8v7H5zM7 8h6v7h4V8h2V6a1 1 0 0 0-1-1H6a1 1 0 0 0-1 1v9h2z"/></mask><filter id="xttob" width="44" height="44" x="-10" y="-10" filterUnits="userSpaceOnUse"><feOffset in="SourceGraphic" result="FeOffset1231Out"/><feGaussianBlur in="FeOffset1231Out" result="FeGaussianBlur1232Out" stdDeviation="1.6 1.6"/></filter><filter id="xttoa" width="160%" height="160%" x="-20%" y="-20%" filterUnits="objectBoundingBox"><feGaussianBlur in="SourceGraphic" result="FeGaussianBlur1235Out" stdDeviation="0.7561383928571429 0.7561383928571429"/></filter><mask id="xttof" width="2" height="2" x="-1" y="-1"><path fill="#fff" d="M4 4h16v16H4z"/><path d="M4 6a2 2 0 0 1 2-2h12a2 2 0 0 1 2 2v12a2 2 0 0 1-2 2H6a2 2 0 0 1-2-2zm1 12a1 1 0 0 0 1 1h12a1 1 0 0 0 1-1V9h-1v7h-6V9H8v7H5zM7 8h6v7h4V8h2V6a1 1 0 0 0-1-1H6a1 1 0 0 0-1 1v9h2z"/></mask><filter id="xttoe" width="44" height="44" x="-10" y="-10" filterUnits="userSpaceOnUse"><feOffset in="SourceGraphic" result="FeOffset1249Out"/><feGaussianBlur in="FeOffset1249Out" result="FeGaussianBlur1250Out" stdDeviation="1.6 1.6"/></filter><filter id="xttod" width="160%" height="160%" x="-20%" y="-20%" filterUnits="objectBoundingBox"><feGaussianBlur in="SourceGraphic" result="FeGaussianBlur1253Out" stdDeviation="0.7561383928571429 0.7561383928571429"/></filter><filter id="xttog" width="200%" height="200%" x="-50%" y="-50%"><feGaussianBlur in="SourceGraphic" result="FeGaussianBlur1262Out" stdDeviation="0.025 0.025"/></filter><mask id="xttoh"><path fill="#fff" d="M4 6a2 2 0 0 1 2-2h12a2 2 0 0 1 2 2v12a2 2 0 0 1-2 2H6a2 2 0 0 1-2-2zm1 12a1 1 0 0 0 1 1h12a1 1 0 0 0 1-1V9h-1v7h-6V9H8v7H5zM7 8h6v7h4V8h2V6a1 1 0 0 0-1-1H6a1 1 0 0 0-1 1v9h2z"/></mask></defs><g><g filter="url(#xttoa)"><g filter="url(#xttob)"><path fill="none" d="M4 6a2 2 0 0 1 2-2h12a2 2 0 0 1 2 2v12a2 2 0 0 1-2 2H6a2 2 0 0 1-2-2zm1 12a1 1 0 0 0 1 1h12a1 1 0 0 0 1-1V9h-1v7h-6V9H8v7H5zM7 8h6v7h4V8h2V6a1 1 0 0 0-1-1H6a1 1 0 0 0-1 1v9h2z" mask="url(&quot;#xttoc&quot;)"/><path fill="#db2235" d="M4 6a2 2 0 0 1 2-2h12a2 2 0 0 1 2 2v12a2 2 0 0 1-2 2H6a2 2 0 0 1-2-2zm1 12a1 1 0 0 0 1 1h12a1 1 0 0 0 1-1V9h-1v7h-6V9H8v7H5zM7 8h6v7h4V8h2V6a1 1 0 0 0-1-1H6a1 1 0 0 0-1 1v9h2z"/></g><path fill="#db2235" d="M4 6a2 2 0 0 1 2-2h12a2 2 0 0 1 2 2v12a2 2 0 0 1-2 2H6a2 2 0 0 1-2-2zm1 12a1 1 0 0 0 1 1h12a1 1 0 0 0 1-1V9h-1v7h-6V9H8v7H5zM7 8h6v7h4V8h2V6a1 1 0 0 0-1-1H6a1 1 0 0 0-1 1v9h2z"/></g><g filter="url(#xttod)"><g filter="url(#xttoe)"><path fill="none" d="M4 6a2 2 0 0 1 2-2h12a2 2 0 0 1 2 2v12a2 2 0 0 1-2 2H6a2 2 0 0 1-2-2zm1 12a1 1 0 0 0 1 1h12a1 1 0 0 0 1-1V9h-1v7h-6V9H8v7H5zM7 8h6v7h4V8h2V6a1 1 0 0 0-1-1H6a1 1 0 0 0-1 1v9h2z" mask="url(&quot;#xttof&quot;)"/><path fill="#db2235" d="M4 6a2 2 0 0 1 2-2h12a2 2 0 0 1 2 2v12a2 2 0 0 1-2 2H6a2 2 0 0 1-2-2zm1 12a1 1 0 0 0 1 1h12a1 1 0 0 0 1-1V9h-1v7h-6V9H8v7H5zM7 8h6v7h4V8h2V6a1 1 0 0 0-1-1H6a1 1 0 0 0-1 1v9h2z"/></g><path fill="#db2235" d="M4 6a2 2 0 0 1 2-2h12a2 2 0 0 1 2 2v12a2 2 0 0 1-2 2H6a2 2 0 0 1-2-2zm1 12a1 1 0 0 0 1 1h12a1 1 0 0 0 1-1V9h-1v7h-6V9H8v7H5zM7 8h6v7h4V8h2V6a1 1 0 0 0-1-1H6a1 1 0 0 0-1 1v9h2z"/></g><g><path fill="#fff" d="M4 6a2 2 0 0 1 2-2h12a2 2 0 0 1 2 2v12a2 2 0 0 1-2 2H6a2 2 0 0 1-2-2zm1 12a1 1 0 0 0 1 1h12a1 1 0 0 0 1-1V9h-1v7h-6V9H8v7H5zM7 8h6v7h4V8h2V6a1 1 0 0 0-1-1H6a1 1 0 0 0-1 1v9h2z"/><path fill="#db2235" d="M3.95 20.05V3.95h16.1v16.1zM4 18a2 2 0 0 0 2 2h12a2 2 0 0 0 2-2V6a2 2 0 0 0-2-2H6a2 2 0 0 0-2 2zm1-2h3V9h4v7h6V9h1v9a1 1 0 0 1-1 1H6a1 1 0 0 1-1-1zm2-1H5V6a1 1 0 0 1 1-1h12a1 1 0 0 1 1 1v2h-2v7h-4V8H7z" filter="url(#xttog)" mask="url(&quot;#xttoh&quot;)"/></g></g></svg>