<svg xmlns="http://www.w3.org/2000/svg" width="36" height="47" viewBox="0 0 36 47"><defs><filter id="1sfbb" width="200%" height="200%" x="-50%" y="-50%"><feGaussianBlur in="SourceGraphic" result="FeGaussianBlur1149Out" stdDeviation="4 4"/></filter><mask id="1sfbc"><path fill="#fff" d="M11 17a7 7 0 0 1 14 0v12a7 7 0 0 1-14 0z"/></mask><filter id="1sfba" width="256%" height="200%" x="-68%" y="-40%" filterUnits="objectBoundingBox"><feGaussianBlur in="SourceGraphic" result="FeGaussianBlur1152Out" stdDeviation="4 4"/></filter><linearGradient id="1sfbd" x1="18" x2="18" y1="10" y2="36" gradientUnits="userSpaceOnUse"><stop offset="0" stop-color="#da224c"/><stop offset="1" stop-color="#a409ad"/></linearGradient><filter id="1sfbe" width="200%" height="200%" x="-50%" y="-50%"><feGaussianBlur in="SourceGraphic" result="FeGaussianBlur1164Out" stdDeviation="4 4"/></filter><mask id="1sfbf"><path fill="#fff" d="M11 17a7 7 0 0 1 14 0v12a7 7 0 0 1-14 0z"/></mask><filter id="1sfbg" width="200%" height="200%" x="-50%" y="-50%"><feGaussianBlur in="SourceGraphic" result="FeGaussianBlur1169Out" stdDeviation="6 6"/></filter><mask id="1sfbh"><path fill="#fff" d="M11 17a7 7 0 0 1 14 0v12a7 7 0 0 1-14 0z"/></mask><filter id="1sfbi" width="200%" height="200%" x="-50%" y="-50%"><feGaussianBlur in="SourceGraphic" result="FeGaussianBlur1174Out" stdDeviation="5 5"/></filter><mask id="1sfbj"><path fill="#fff" d="M11 17a7 7 0 0 1 14 0v12a7 7 0 0 1-14 0z"/></mask><filter id="1sfbk" width="200%" height="200%" x="-50%" y="-50%"><feGaussianBlur in="SourceGraphic" result="FeGaussianBlur1179Out" stdDeviation="1.5 1.5"/></filter><mask id="1sfbl"><path fill="#fff" d="M11 17a7 7 0 0 1 14 0v12a7 7 0 0 1-14 0z"/></mask><filter id="1sfbm" width="200%" height="200%" x="-50%" y="-50%"><feGaussianBlur in="SourceGraphic" result="FeGaussianBlur1184Out" stdDeviation="1 1"/></filter><mask id="1sfbn"><path fill="#fff" d="M11 17a7 7 0 0 1 14 0v12a7 7 0 0 1-14 0z"/></mask></defs><g><g filter="url(#1sfba)"><path fill="#db2235" d="M11 17a7 7 0 0 1 14 0v12a7 7 0 0 1-14 0z"/><path fill-opacity=".5" d="M3 48V-2h30v50zm8-15a7 7 0 0 0 14 0V21a7 7 0 0 0-14 0z" filter="url(#1sfbb)" mask="url(&quot;#1sfbc&quot;)"/></g><g><path fill="url(#1sfbd)" d="M11 17a7 7 0 0 1 14 0v12a7 7 0 0 1-14 0z"/><path fill-opacity=".5" d="M3 48V-2h30v50zm8-15a7 7 0 0 0 14 0V21a7 7 0 0 0-14 0z" filter="url(#1sfbe)" mask="url(&quot;#1sfbf&quot;)"/><path fill="#db2235" d="M-1 48V-2h38v50zm12-19a7 7 0 0 0 14 0V17a7 7 0 0 0-14 0z" filter="url(#1sfbg)" mask="url(&quot;#1sfbh&quot;)"/><path fill="#db2235" d="M1 46V0h34v46zm10-17a7 7 0 0 0 14 0V17a7 7 0 0 0-14 0z" filter="url(#1sfbi)" mask="url(&quot;#1sfbj&quot;)"/><path fill="#db2235" d="M8 39V7h20v32zm3-10a7 7 0 0 0 14 0V17a7 7 0 0 0-14 0z" filter="url(#1sfbk)" mask="url(&quot;#1sfbl&quot;)"/><path fill="#db2235" d="M9 38V8h18v30zm2-9a7 7 0 0 0 14 0V17a7 7 0 0 0-14 0z" filter="url(#1sfbm)" mask="url(&quot;#1sfbn&quot;)"/></g></g></svg>