<svg xmlns="http://www.w3.org/2000/svg" width="61" height="15" viewBox="0 0 61 15"><defs><mask id="6fpsb" width="2" height="2" x="-1" y="-1"><path fill="#fff" d="M2 3h56v10H2z"/><path d="M53.983 12.274c-2.754 0-4.564-1.961-4.564-4.527v-.025c0-2.465 1.886-4.552 4.539-4.552 1.534 0 2.477.428 3.382 1.195l-.98 1.17c-.68-.58-1.346-.944-2.465-.944-1.622 0-2.854 1.42-2.854 3.106v.025c0 1.81 1.194 3.144 2.992 3.144.83 0 1.585-.264 2.125-.667V8.552h-2.25V7.207h3.747v3.697a5.612 5.612 0 0 1-3.672 1.37zm-14.086-.15V3.32h1.435l4.721 6.086V3.321h1.524v8.802H46.28l-4.86-6.262v6.262zm-3.868 0V3.32h1.548v8.802zm-5.254.15c-2.568 0-4.482-2-4.482-4.527v-.025c0-2.502 1.876-4.552 4.545-4.552 1.624 0 2.606.566 3.45 1.37l-.995 1.145c-.705-.654-1.46-1.094-2.468-1.094-1.674 0-2.908 1.383-2.908 3.106v.025c0 1.723 1.221 3.119 2.908 3.119 1.083 0 1.775-.428 2.53-1.132l.995 1.006c-.919.956-1.926 1.56-3.575 1.56zm-7.96-.15V3.32h1.548v8.802zm-6.526-1.285c1.75 0 2.972-1.382 2.972-3.092v-.025c0-1.71-1.247-3.13-2.997-3.13-1.75 0-2.97 1.396-2.97 3.105v.025c0 1.71 1.246 3.117 2.995 3.117zm-.03 1.435c-2.703 0-4.59-2.05-4.59-4.527v-.025c0-2.477 1.912-4.552 4.615-4.552 2.704 0 4.59 2.05 4.59 4.527v.025c0 2.477-1.91 4.552-4.615 4.552zm-10.146-.088L2.45 3.321h1.712l2.656 6.765 2.644-6.765h1.675l-3.651 8.865z"/></mask><filter id="6fpsa" width="82" height="36" x="-11" y="-10" filterUnits="userSpaceOnUse"><feOffset in="SourceGraphic" result="FeOffset1023Out"/><feGaussianBlur in="FeOffset1023Out" result="FeGaussianBlur1024Out" stdDeviation="1.2 1.2"/></filter><mask id="6fpsd" width="2" height="2" x="-1" y="-1"><path fill="#fff" d="M2 3h56v10H2z"/><path d="M53.983 12.274c-2.754 0-4.564-1.961-4.564-4.527v-.025c0-2.465 1.886-4.552 4.539-4.552 1.534 0 2.477.428 3.382 1.195l-.98 1.17c-.68-.58-1.346-.944-2.465-.944-1.622 0-2.854 1.42-2.854 3.106v.025c0 1.81 1.194 3.144 2.992 3.144.83 0 1.585-.264 2.125-.667V8.552h-2.25V7.207h3.747v3.697a5.612 5.612 0 0 1-3.672 1.37zm-14.086-.15V3.32h1.435l4.721 6.086V3.321h1.524v8.802H46.28l-4.86-6.262v6.262zm-3.868 0V3.32h1.548v8.802zm-5.254.15c-2.568 0-4.482-2-4.482-4.527v-.025c0-2.502 1.876-4.552 4.545-4.552 1.624 0 2.606.566 3.45 1.37l-.995 1.145c-.705-.654-1.46-1.094-2.468-1.094-1.674 0-2.908 1.383-2.908 3.106v.025c0 1.723 1.221 3.119 2.908 3.119 1.083 0 1.775-.428 2.53-1.132l.995 1.006c-.919.956-1.926 1.56-3.575 1.56zm-7.96-.15V3.32h1.548v8.802zm-6.526-1.285c1.75 0 2.972-1.382 2.972-3.092v-.025c0-1.71-1.247-3.13-2.997-3.13-1.75 0-2.97 1.396-2.97 3.105v.025c0 1.71 1.246 3.117 2.995 3.117zm-.03 1.435c-2.703 0-4.59-2.05-4.59-4.527v-.025c0-2.477 1.912-4.552 4.615-4.552 2.704 0 4.59 2.05 4.59 4.527v.025c0 2.477-1.91 4.552-4.615 4.552zm-10.146-.088L2.45 3.321h1.712l2.656 6.765 2.644-6.765h1.675l-3.651 8.865z"/></mask><filter id="6fpsc" width="78" height="32" x="-9" y="-8" filterUnits="userSpaceOnUse"><feOffset in="SourceGraphic" result="FeOffset1034Out"/><feGaussianBlur in="FeOffset1034Out" result="FeGaussianBlur1035Out" stdDeviation="0.4 0.4"/></filter><filter id="6fpse" width="200%" height="200%" x="-50%" y="-50%"><feGaussianBlur in="SourceGraphic" result="FeGaussianBlur1040Out" stdDeviation="0.5 0.5"/></filter><mask id="6fpsf"><path fill="#fff" d="M53.983 12.274c-2.754 0-4.564-1.961-4.564-4.527v-.025c0-2.465 1.886-4.552 4.539-4.552 1.534 0 2.477.428 3.382 1.195l-.98 1.17c-.68-.58-1.346-.944-2.465-.944-1.622 0-2.854 1.42-2.854 3.106v.025c0 1.81 1.194 3.144 2.992 3.144.83 0 1.585-.264 2.125-.667V8.552h-2.25V7.207h3.747v3.697a5.612 5.612 0 0 1-3.672 1.37zm-14.086-.15V3.32h1.435l4.721 6.086V3.321h1.524v8.802H46.28l-4.86-6.262v6.262zm-3.868 0V3.32h1.548v8.802zm-5.254.15c-2.568 0-4.482-2-4.482-4.527v-.025c0-2.502 1.876-4.552 4.545-4.552 1.624 0 2.606.566 3.45 1.37l-.995 1.145c-.705-.654-1.46-1.094-2.468-1.094-1.674 0-2.908 1.383-2.908 3.106v.025c0 1.723 1.221 3.119 2.908 3.119 1.083 0 1.775-.428 2.53-1.132l.995 1.006c-.919.956-1.926 1.56-3.575 1.56zm-7.96-.15V3.32h1.548v8.802zm-6.526-1.285c1.75 0 2.972-1.382 2.972-3.092v-.025c0-1.71-1.247-3.13-2.997-3.13-1.75 0-2.97 1.396-2.97 3.105v.025c0 1.71 1.246 3.117 2.995 3.117zm-.03 1.435c-2.703 0-4.59-2.05-4.59-4.527v-.025c0-2.477 1.912-4.552 4.615-4.552 2.704 0 4.59 2.05 4.59 4.527v.025c0 2.477-1.91 4.552-4.615 4.552zm-10.146-.088L2.45 3.321h1.712l2.656 6.765 2.644-6.765h1.675l-3.651 8.865z"/></mask></defs><g><g><g filter="url(#6fpsa)"><path fill="none" d="M53.983 12.274c-2.754 0-4.564-1.961-4.564-4.527v-.025c0-2.465 1.886-4.552 4.539-4.552 1.534 0 2.477.428 3.382 1.195l-.98 1.17c-.68-.58-1.346-.944-2.465-.944-1.622 0-2.854 1.42-2.854 3.106v.025c0 1.81 1.194 3.144 2.992 3.144.83 0 1.585-.264 2.125-.667V8.552h-2.25V7.207h3.747v3.697a5.612 5.612 0 0 1-3.672 1.37zm-14.086-.15V3.32h1.435l4.721 6.086V3.321h1.524v8.802H46.28l-4.86-6.262v6.262zm-3.868 0V3.32h1.548v8.802zm-5.254.15c-2.568 0-4.482-2-4.482-4.527v-.025c0-2.502 1.876-4.552 4.545-4.552 1.624 0 2.606.566 3.45 1.37l-.995 1.145c-.705-.654-1.46-1.094-2.468-1.094-1.674 0-2.908 1.383-2.908 3.106v.025c0 1.723 1.221 3.119 2.908 3.119 1.083 0 1.775-.428 2.53-1.132l.995 1.006c-.919.956-1.926 1.56-3.575 1.56zm-7.96-.15V3.32h1.548v8.802zm-6.526-1.285c1.75 0 2.972-1.382 2.972-3.092v-.025c0-1.71-1.247-3.13-2.997-3.13-1.75 0-2.97 1.396-2.97 3.105v.025c0 1.71 1.246 3.117 2.995 3.117zm-.03 1.435c-2.703 0-4.59-2.05-4.59-4.527v-.025c0-2.477 1.912-4.552 4.615-4.552 2.704 0 4.59 2.05 4.59 4.527v.025c0 2.477-1.91 4.552-4.615 4.552zm-10.146-.088L2.45 3.321h1.712l2.656 6.765 2.644-6.765h1.675l-3.651 8.865z" mask="url(&quot;#6fpsb&quot;)"/><path d="M53.983 12.274c-2.754 0-4.564-1.961-4.564-4.527v-.025c0-2.465 1.886-4.552 4.539-4.552 1.534 0 2.477.428 3.382 1.195l-.98 1.17c-.68-.58-1.346-.944-2.465-.944-1.622 0-2.854 1.42-2.854 3.106v.025c0 1.81 1.194 3.144 2.992 3.144.83 0 1.585-.264 2.125-.667V8.552h-2.25V7.207h3.747v3.697a5.612 5.612 0 0 1-3.672 1.37zm-14.086-.15V3.32h1.435l4.721 6.086V3.321h1.524v8.802H46.28l-4.86-6.262v6.262zm-3.868 0V3.32h1.548v8.802zm-5.254.15c-2.568 0-4.482-2-4.482-4.527v-.025c0-2.502 1.876-4.552 4.545-4.552 1.624 0 2.606.566 3.45 1.37l-.995 1.145c-.705-.654-1.46-1.094-2.468-1.094-1.674 0-2.908 1.383-2.908 3.106v.025c0 1.723 1.221 3.119 2.908 3.119 1.083 0 1.775-.428 2.53-1.132l.995 1.006c-.919.956-1.926 1.56-3.575 1.56zm-7.96-.15V3.32h1.548v8.802zm-6.526-1.285c1.75 0 2.972-1.382 2.972-3.092v-.025c0-1.71-1.247-3.13-2.997-3.13-1.75 0-2.97 1.396-2.97 3.105v.025c0 1.71 1.246 3.117 2.995 3.117zm-.03 1.435c-2.703 0-4.59-2.05-4.59-4.527v-.025c0-2.477 1.912-4.552 4.615-4.552 2.704 0 4.59 2.05 4.59 4.527v.025c0 2.477-1.91 4.552-4.615 4.552zm-10.146-.088L2.45 3.321h1.712l2.656 6.765 2.644-6.765h1.675l-3.651 8.865z"/></g><g filter="url(#6fpsc)"><path fill="none" d="M53.983 12.274c-2.754 0-4.564-1.961-4.564-4.527v-.025c0-2.465 1.886-4.552 4.539-4.552 1.534 0 2.477.428 3.382 1.195l-.98 1.17c-.68-.58-1.346-.944-2.465-.944-1.622 0-2.854 1.42-2.854 3.106v.025c0 1.81 1.194 3.144 2.992 3.144.83 0 1.585-.264 2.125-.667V8.552h-2.25V7.207h3.747v3.697a5.612 5.612 0 0 1-3.672 1.37zm-14.086-.15V3.32h1.435l4.721 6.086V3.321h1.524v8.802H46.28l-4.86-6.262v6.262zm-3.868 0V3.32h1.548v8.802zm-5.254.15c-2.568 0-4.482-2-4.482-4.527v-.025c0-2.502 1.876-4.552 4.545-4.552 1.624 0 2.606.566 3.45 1.37l-.995 1.145c-.705-.654-1.46-1.094-2.468-1.094-1.674 0-2.908 1.383-2.908 3.106v.025c0 1.723 1.221 3.119 2.908 3.119 1.083 0 1.775-.428 2.53-1.132l.995 1.006c-.919.956-1.926 1.56-3.575 1.56zm-7.96-.15V3.32h1.548v8.802zm-6.526-1.285c1.75 0 2.972-1.382 2.972-3.092v-.025c0-1.71-1.247-3.13-2.997-3.13-1.75 0-2.97 1.396-2.97 3.105v.025c0 1.71 1.246 3.117 2.995 3.117zm-.03 1.435c-2.703 0-4.59-2.05-4.59-4.527v-.025c0-2.477 1.912-4.552 4.615-4.552 2.704 0 4.59 2.05 4.59 4.527v.025c0 2.477-1.91 4.552-4.615 4.552zm-10.146-.088L2.45 3.321h1.712l2.656 6.765 2.644-6.765h1.675l-3.651 8.865z" mask="url(&quot;#6fpsd&quot;)"/><path d="M53.983 12.274c-2.754 0-4.564-1.961-4.564-4.527v-.025c0-2.465 1.886-4.552 4.539-4.552 1.534 0 2.477.428 3.382 1.195l-.98 1.17c-.68-.58-1.346-.944-2.465-.944-1.622 0-2.854 1.42-2.854 3.106v.025c0 1.81 1.194 3.144 2.992 3.144.83 0 1.585-.264 2.125-.667V8.552h-2.25V7.207h3.747v3.697a5.612 5.612 0 0 1-3.672 1.37zm-14.086-.15V3.32h1.435l4.721 6.086V3.321h1.524v8.802H46.28l-4.86-6.262v6.262zm-3.868 0V3.32h1.548v8.802zm-5.254.15c-2.568 0-4.482-2-4.482-4.527v-.025c0-2.502 1.876-4.552 4.545-4.552 1.624 0 2.606.566 3.45 1.37l-.995 1.145c-.705-.654-1.46-1.094-2.468-1.094-1.674 0-2.908 1.383-2.908 3.106v.025c0 1.723 1.221 3.119 2.908 3.119 1.083 0 1.775-.428 2.53-1.132l.995 1.006c-.919.956-1.926 1.56-3.575 1.56zm-7.96-.15V3.32h1.548v8.802zm-6.526-1.285c1.75 0 2.972-1.382 2.972-3.092v-.025c0-1.71-1.247-3.13-2.997-3.13-1.75 0-2.97 1.396-2.97 3.105v.025c0 1.71 1.246 3.117 2.995 3.117zm-.03 1.435c-2.703 0-4.59-2.05-4.59-4.527v-.025c0-2.477 1.912-4.552 4.615-4.552 2.704 0 4.59 2.05 4.59 4.527v.025c0 2.477-1.91 4.552-4.615 4.552zm-10.146-.088L2.45 3.321h1.712l2.656 6.765 2.644-6.765h1.675l-3.651 8.865z"/></g><path fill="#d5d5d5" d="M53.983 12.274c-2.754 0-4.564-1.961-4.564-4.527v-.025c0-2.465 1.886-4.552 4.539-4.552 1.534 0 2.477.428 3.382 1.195l-.98 1.17c-.68-.58-1.346-.944-2.465-.944-1.622 0-2.854 1.42-2.854 3.106v.025c0 1.81 1.194 3.144 2.992 3.144.83 0 1.585-.264 2.125-.667V8.552h-2.25V7.207h3.747v3.697a5.612 5.612 0 0 1-3.672 1.37zm-14.086-.15V3.32h1.435l4.721 6.086V3.321h1.524v8.802H46.28l-4.86-6.262v6.262zm-3.868 0V3.32h1.548v8.802zm-5.254.15c-2.568 0-4.482-2-4.482-4.527v-.025c0-2.502 1.876-4.552 4.545-4.552 1.624 0 2.606.566 3.45 1.37l-.995 1.145c-.705-.654-1.46-1.094-2.468-1.094-1.674 0-2.908 1.383-2.908 3.106v.025c0 1.723 1.221 3.119 2.908 3.119 1.083 0 1.775-.428 2.53-1.132l.995 1.006c-.919.956-1.926 1.56-3.575 1.56zm-7.96-.15V3.32h1.548v8.802zm-6.526-1.285c1.75 0 2.972-1.382 2.972-3.092v-.025c0-1.71-1.247-3.13-2.997-3.13-1.75 0-2.97 1.396-2.97 3.105v.025c0 1.71 1.246 3.117 2.995 3.117zm-.03 1.435c-2.703 0-4.59-2.05-4.59-4.527v-.025c0-2.477 1.912-4.552 4.615-4.552 2.704 0 4.59 2.05 4.59 4.527v.025c0 2.477-1.91 4.552-4.615 4.552zm-10.146-.088L2.45 3.321h1.712l2.656 6.765 2.644-6.765h1.675l-3.651 8.865z"/><path fill-opacity=".5" d="M1 14.5v-13h58v13zm52.983-2.726c1.56 0 2.804-.629 3.672-1.37V6.707h-3.747v1.345h2.25V9.7c-.54.403-1.295.667-2.125.667-1.798 0-2.992-1.333-2.992-3.144v-.025c0-1.685 1.232-3.106 2.854-3.106 1.12 0 1.786.365 2.465.943l.98-1.17c-.905-.766-1.848-1.194-3.382-1.194-2.653 0-4.54 2.087-4.54 4.552v.025c0 2.565 1.811 4.527 4.565 4.527zm-12.562-.15V5.36l4.86 6.262h1.296V2.821h-1.524v6.086l-4.72-6.086h-1.436v8.802zm-3.844 0V2.82h-1.548v8.802zm-6.802.15c1.65 0 2.656-.603 3.575-1.56l-.994-1.005c-.756.704-1.448 1.132-2.53 1.132-1.688 0-2.909-1.396-2.909-3.119v-.025c0-1.723 1.234-3.106 2.908-3.106 1.007 0 1.763.44 2.468 1.094l.994-1.144c-.843-.805-1.825-1.371-3.45-1.371-2.668 0-4.544 2.05-4.544 4.552v.025c0 2.528 1.914 4.527 4.482 4.527zm-6.412-.15V2.82h-1.548v8.802zm-11.07-4.402v-.025c0-1.71 1.221-3.104 2.971-3.104s2.997 1.42 2.997 3.13v.024c0 1.71-1.222 3.092-2.971 3.092-1.75 0-2.997-1.408-2.997-3.117zm7.582 0v-.025c0-2.477-1.887-4.527-4.59-4.527-2.704 0-4.616 2.075-4.616 4.552v.025c0 2.477 1.887 4.527 4.59 4.527 2.704 0 4.616-2.075 4.616-4.552zm-13.39 4.464l3.652-8.865H9.462L6.818 9.586 4.162 2.821H2.45l3.663 8.865z" filter="url(#6fpse)" mask="url(&quot;#6fpsf&quot;)"/></g></g></svg>