<svg xmlns="http://www.w3.org/2000/svg" width="83" height="15" viewBox="0 0 83 15"><defs><mask id="76seb" width="2" height="2" x="-1" y="-1"><path fill="#fff" d="M3 3h77v10H3z"/><path d="M71.077 12.048V3.221h1.653l2.687 4.174 2.687-4.174h1.652v8.827h-1.551v-6.33L75.417 9.88h-.05l-2.763-4.136v6.305zm-7.535-4.44h2.27c1.11 0 1.817-.583 1.817-1.481V6.1c0-.949-.68-1.467-1.829-1.467h-2.258zm-1.552 4.44V3.221h3.936c1.11 0 1.98.328 2.549.883.466.48.731 1.135.731 1.904v.025c0 1.45-.87 2.32-2.094 2.674l2.384 3.341h-1.841l-2.17-3.076h-1.943v3.076zm-6.45-1.286c1.754 0 2.977-1.387 2.977-3.102v-.025c0-1.715-1.248-3.14-3.002-3.14-1.753 0-2.977 1.4-2.977 3.115v.025c0 1.715 1.249 3.127 3.002 3.127zm-.025 1.438c-2.712 0-4.604-2.056-4.604-4.54v-.025c0-2.484 1.917-4.565 4.63-4.565 2.712 0 4.604 2.055 4.604 4.54v.025c0 2.484-1.918 4.565-4.63 4.565zm-12.38-.152V3.221h6.573v1.413h-5.02v2.408h4.453v1.413h-4.453v3.593zm-8.417 0V3.221h6.547v1.387H36.27v2.295h4.427v1.388H36.27v2.37h5.058v1.387zm-6.51.063l-3.674-8.89h1.717l2.665 6.785 2.652-6.785h1.68l-3.663 8.89zm-9.28-3.568h3.041l-1.526-3.531zm-3.065 3.505l3.886-8.89h1.438l3.885 8.89h-1.64l-.895-2.13H18.36l-.908 2.13zm-9.755.053L3.03 3.221h1.678L6.814 9.76l2.17-6.563h1.312l2.17 6.563 2.107-6.538H16.2l-3.065 8.88h-1.35l-2.17-6.335-2.17 6.335z"/></mask><filter id="76sea" width="103" height="36" x="-10" y="-10" filterUnits="userSpaceOnUse"><feOffset in="SourceGraphic" result="FeOffset1321Out"/><feGaussianBlur in="FeOffset1321Out" result="FeGaussianBlur1322Out" stdDeviation="1.2 1.2"/></filter><mask id="76sed" width="2" height="2" x="-1" y="-1"><path fill="#fff" d="M3 3h77v10H3z"/><path d="M71.077 12.048V3.221h1.653l2.687 4.174 2.687-4.174h1.652v8.827h-1.551v-6.33L75.417 9.88h-.05l-2.763-4.136v6.305zm-7.535-4.44h2.27c1.11 0 1.817-.583 1.817-1.481V6.1c0-.949-.68-1.467-1.829-1.467h-2.258zm-1.552 4.44V3.221h3.936c1.11 0 1.98.328 2.549.883.466.48.731 1.135.731 1.904v.025c0 1.45-.87 2.32-2.094 2.674l2.384 3.341h-1.841l-2.17-3.076h-1.943v3.076zm-6.45-1.286c1.754 0 2.977-1.387 2.977-3.102v-.025c0-1.715-1.248-3.14-3.002-3.14-1.753 0-2.977 1.4-2.977 3.115v.025c0 1.715 1.249 3.127 3.002 3.127zm-.025 1.438c-2.712 0-4.604-2.056-4.604-4.54v-.025c0-2.484 1.917-4.565 4.63-4.565 2.712 0 4.604 2.055 4.604 4.54v.025c0 2.484-1.918 4.565-4.63 4.565zm-12.38-.152V3.221h6.573v1.413h-5.02v2.408h4.453v1.413h-4.453v3.593zm-8.417 0V3.221h6.547v1.387H36.27v2.295h4.427v1.388H36.27v2.37h5.058v1.387zm-6.51.063l-3.674-8.89h1.717l2.665 6.785 2.652-6.785h1.68l-3.663 8.89zm-9.28-3.568h3.041l-1.526-3.531zm-3.065 3.505l3.886-8.89h1.438l3.885 8.89h-1.64l-.895-2.13H18.36l-.908 2.13zm-9.755.053L3.03 3.221h1.678L6.814 9.76l2.17-6.563h1.312l2.17 6.563 2.107-6.538H16.2l-3.065 8.88h-1.35l-2.17-6.335-2.17 6.335z"/></mask><filter id="76sec" width="99" height="32" x="-8" y="-8" filterUnits="userSpaceOnUse"><feOffset in="SourceGraphic" result="FeOffset1332Out"/><feGaussianBlur in="FeOffset1332Out" result="FeGaussianBlur1333Out" stdDeviation="0.4 0.4"/></filter><filter id="76see" width="200%" height="200%" x="-50%" y="-50%"><feGaussianBlur in="SourceGraphic" result="FeGaussianBlur1338Out" stdDeviation="0.5 0.5"/></filter><mask id="76sef"><path fill="#fff" d="M71.077 12.048V3.221h1.653l2.687 4.174 2.687-4.174h1.652v8.827h-1.551v-6.33L75.417 9.88h-.05l-2.763-4.136v6.305zm-7.535-4.44h2.27c1.11 0 1.817-.583 1.817-1.481V6.1c0-.949-.68-1.467-1.829-1.467h-2.258zm-1.552 4.44V3.221h3.936c1.11 0 1.98.328 2.549.883.466.48.731 1.135.731 1.904v.025c0 1.45-.87 2.32-2.094 2.674l2.384 3.341h-1.841l-2.17-3.076h-1.943v3.076zm-6.45-1.286c1.754 0 2.977-1.387 2.977-3.102v-.025c0-1.715-1.248-3.14-3.002-3.14-1.753 0-2.977 1.4-2.977 3.115v.025c0 1.715 1.249 3.127 3.002 3.127zm-.025 1.438c-2.712 0-4.604-2.056-4.604-4.54v-.025c0-2.484 1.917-4.565 4.63-4.565 2.712 0 4.604 2.055 4.604 4.54v.025c0 2.484-1.918 4.565-4.63 4.565zm-12.38-.152V3.221h6.573v1.413h-5.02v2.408h4.453v1.413h-4.453v3.593zm-8.417 0V3.221h6.547v1.387H36.27v2.295h4.427v1.388H36.27v2.37h5.058v1.387zm-6.51.063l-3.674-8.89h1.717l2.665 6.785 2.652-6.785h1.68l-3.663 8.89zm-9.28-3.568h3.041l-1.526-3.531zm-3.065 3.505l3.886-8.89h1.438l3.885 8.89h-1.64l-.895-2.13H18.36l-.908 2.13zm-9.755.053L3.03 3.221h1.678L6.814 9.76l2.17-6.563h1.312l2.17 6.563 2.107-6.538H16.2l-3.065 8.88h-1.35l-2.17-6.335-2.17 6.335z"/></mask></defs><g><g><g filter="url(#76sea)"><path fill="none" d="M71.077 12.048V3.221h1.653l2.687 4.174 2.687-4.174h1.652v8.827h-1.551v-6.33L75.417 9.88h-.05l-2.763-4.136v6.305zm-7.535-4.44h2.27c1.11 0 1.817-.583 1.817-1.481V6.1c0-.949-.68-1.467-1.829-1.467h-2.258zm-1.552 4.44V3.221h3.936c1.11 0 1.98.328 2.549.883.466.48.731 1.135.731 1.904v.025c0 1.45-.87 2.32-2.094 2.674l2.384 3.341h-1.841l-2.17-3.076h-1.943v3.076zm-6.45-1.286c1.754 0 2.977-1.387 2.977-3.102v-.025c0-1.715-1.248-3.14-3.002-3.14-1.753 0-2.977 1.4-2.977 3.115v.025c0 1.715 1.249 3.127 3.002 3.127zm-.025 1.438c-2.712 0-4.604-2.056-4.604-4.54v-.025c0-2.484 1.917-4.565 4.63-4.565 2.712 0 4.604 2.055 4.604 4.54v.025c0 2.484-1.918 4.565-4.63 4.565zm-12.38-.152V3.221h6.573v1.413h-5.02v2.408h4.453v1.413h-4.453v3.593zm-8.417 0V3.221h6.547v1.387H36.27v2.295h4.427v1.388H36.27v2.37h5.058v1.387zm-6.51.063l-3.674-8.89h1.717l2.665 6.785 2.652-6.785h1.68l-3.663 8.89zm-9.28-3.568h3.041l-1.526-3.531zm-3.065 3.505l3.886-8.89h1.438l3.885 8.89h-1.64l-.895-2.13H18.36l-.908 2.13zm-9.755.053L3.03 3.221h1.678L6.814 9.76l2.17-6.563h1.312l2.17 6.563 2.107-6.538H16.2l-3.065 8.88h-1.35l-2.17-6.335-2.17 6.335z" mask="url(&quot;#76seb&quot;)"/><path d="M71.077 12.048V3.221h1.653l2.687 4.174 2.687-4.174h1.652v8.827h-1.551v-6.33L75.417 9.88h-.05l-2.763-4.136v6.305zm-7.535-4.44h2.27c1.11 0 1.817-.583 1.817-1.481V6.1c0-.949-.68-1.467-1.829-1.467h-2.258zm-1.552 4.44V3.221h3.936c1.11 0 1.98.328 2.549.883.466.48.731 1.135.731 1.904v.025c0 1.45-.87 2.32-2.094 2.674l2.384 3.341h-1.841l-2.17-3.076h-1.943v3.076zm-6.45-1.286c1.754 0 2.977-1.387 2.977-3.102v-.025c0-1.715-1.248-3.14-3.002-3.14-1.753 0-2.977 1.4-2.977 3.115v.025c0 1.715 1.249 3.127 3.002 3.127zm-.025 1.438c-2.712 0-4.604-2.056-4.604-4.54v-.025c0-2.484 1.917-4.565 4.63-4.565 2.712 0 4.604 2.055 4.604 4.54v.025c0 2.484-1.918 4.565-4.63 4.565zm-12.38-.152V3.221h6.573v1.413h-5.02v2.408h4.453v1.413h-4.453v3.593zm-8.417 0V3.221h6.547v1.387H36.27v2.295h4.427v1.388H36.27v2.37h5.058v1.387zm-6.51.063l-3.674-8.89h1.717l2.665 6.785 2.652-6.785h1.68l-3.663 8.89zm-9.28-3.568h3.041l-1.526-3.531zm-3.065 3.505l3.886-8.89h1.438l3.885 8.89h-1.64l-.895-2.13H18.36l-.908 2.13zm-9.755.053L3.03 3.221h1.678L6.814 9.76l2.17-6.563h1.312l2.17 6.563 2.107-6.538H16.2l-3.065 8.88h-1.35l-2.17-6.335-2.17 6.335z"/></g><g filter="url(#76sec)"><path fill="none" d="M71.077 12.048V3.221h1.653l2.687 4.174 2.687-4.174h1.652v8.827h-1.551v-6.33L75.417 9.88h-.05l-2.763-4.136v6.305zm-7.535-4.44h2.27c1.11 0 1.817-.583 1.817-1.481V6.1c0-.949-.68-1.467-1.829-1.467h-2.258zm-1.552 4.44V3.221h3.936c1.11 0 1.98.328 2.549.883.466.48.731 1.135.731 1.904v.025c0 1.45-.87 2.32-2.094 2.674l2.384 3.341h-1.841l-2.17-3.076h-1.943v3.076zm-6.45-1.286c1.754 0 2.977-1.387 2.977-3.102v-.025c0-1.715-1.248-3.14-3.002-3.14-1.753 0-2.977 1.4-2.977 3.115v.025c0 1.715 1.249 3.127 3.002 3.127zm-.025 1.438c-2.712 0-4.604-2.056-4.604-4.54v-.025c0-2.484 1.917-4.565 4.63-4.565 2.712 0 4.604 2.055 4.604 4.54v.025c0 2.484-1.918 4.565-4.63 4.565zm-12.38-.152V3.221h6.573v1.413h-5.02v2.408h4.453v1.413h-4.453v3.593zm-8.417 0V3.221h6.547v1.387H36.27v2.295h4.427v1.388H36.27v2.37h5.058v1.387zm-6.51.063l-3.674-8.89h1.717l2.665 6.785 2.652-6.785h1.68l-3.663 8.89zm-9.28-3.568h3.041l-1.526-3.531zm-3.065 3.505l3.886-8.89h1.438l3.885 8.89h-1.64l-.895-2.13H18.36l-.908 2.13zm-9.755.053L3.03 3.221h1.678L6.814 9.76l2.17-6.563h1.312l2.17 6.563 2.107-6.538H16.2l-3.065 8.88h-1.35l-2.17-6.335-2.17 6.335z" mask="url(&quot;#76sed&quot;)"/><path d="M71.077 12.048V3.221h1.653l2.687 4.174 2.687-4.174h1.652v8.827h-1.551v-6.33L75.417 9.88h-.05l-2.763-4.136v6.305zm-7.535-4.44h2.27c1.11 0 1.817-.583 1.817-1.481V6.1c0-.949-.68-1.467-1.829-1.467h-2.258zm-1.552 4.44V3.221h3.936c1.11 0 1.98.328 2.549.883.466.48.731 1.135.731 1.904v.025c0 1.45-.87 2.32-2.094 2.674l2.384 3.341h-1.841l-2.17-3.076h-1.943v3.076zm-6.45-1.286c1.754 0 2.977-1.387 2.977-3.102v-.025c0-1.715-1.248-3.14-3.002-3.14-1.753 0-2.977 1.4-2.977 3.115v.025c0 1.715 1.249 3.127 3.002 3.127zm-.025 1.438c-2.712 0-4.604-2.056-4.604-4.54v-.025c0-2.484 1.917-4.565 4.63-4.565 2.712 0 4.604 2.055 4.604 4.54v.025c0 2.484-1.918 4.565-4.63 4.565zm-12.38-.152V3.221h6.573v1.413h-5.02v2.408h4.453v1.413h-4.453v3.593zm-8.417 0V3.221h6.547v1.387H36.27v2.295h4.427v1.388H36.27v2.37h5.058v1.387zm-6.51.063l-3.674-8.89h1.717l2.665 6.785 2.652-6.785h1.68l-3.663 8.89zm-9.28-3.568h3.041l-1.526-3.531zm-3.065 3.505l3.886-8.89h1.438l3.885 8.89h-1.64l-.895-2.13H18.36l-.908 2.13zm-9.755.053L3.03 3.221h1.678L6.814 9.76l2.17-6.563h1.312l2.17 6.563 2.107-6.538H16.2l-3.065 8.88h-1.35l-2.17-6.335-2.17 6.335z"/></g><path fill="#d5d5d5" d="M71.077 12.048V3.221h1.653l2.687 4.174 2.687-4.174h1.652v8.827h-1.551v-6.33L75.417 9.88h-.05l-2.763-4.136v6.305zm-7.535-4.44h2.27c1.11 0 1.817-.583 1.817-1.481V6.1c0-.949-.68-1.467-1.829-1.467h-2.258zm-1.552 4.44V3.221h3.936c1.11 0 1.98.328 2.549.883.466.48.731 1.135.731 1.904v.025c0 1.45-.87 2.32-2.094 2.674l2.384 3.341h-1.841l-2.17-3.076h-1.943v3.076zm-6.45-1.286c1.754 0 2.977-1.387 2.977-3.102v-.025c0-1.715-1.248-3.14-3.002-3.14-1.753 0-2.977 1.4-2.977 3.115v.025c0 1.715 1.249 3.127 3.002 3.127zm-.025 1.438c-2.712 0-4.604-2.056-4.604-4.54v-.025c0-2.484 1.917-4.565 4.63-4.565 2.712 0 4.604 2.055 4.604 4.54v.025c0 2.484-1.918 4.565-4.63 4.565zm-12.38-.152V3.221h6.573v1.413h-5.02v2.408h4.453v1.413h-4.453v3.593zm-8.417 0V3.221h6.547v1.387H36.27v2.295h4.427v1.388H36.27v2.37h5.058v1.387zm-6.51.063l-3.674-8.89h1.717l2.665 6.785 2.652-6.785h1.68l-3.663 8.89zm-9.28-3.568h3.041l-1.526-3.531zm-3.065 3.505l3.886-8.89h1.438l3.885 8.89h-1.64l-.895-2.13H18.36l-.908 2.13zm-9.755.053L3.03 3.221h1.678L6.814 9.76l2.17-6.563h1.312l2.17 6.563 2.107-6.538H16.2l-3.065 8.88h-1.35l-2.17-6.335-2.17 6.335z"/><path fill-opacity=".5" d="M2 14.5v-13h79v13zm70.604-2.952V5.243l2.762 4.136h.05l2.789-4.16v6.33h1.551V2.72h-1.652l-2.687 4.174-2.687-4.174h-1.653v8.827zm-9.062-7.414H65.8c1.148 0 1.83.518 1.83 1.467v.026c0 .898-.707 1.48-1.817 1.48h-2.27zm0 7.414V8.472h1.943l2.17 3.076h1.841l-2.384-3.341c1.224-.353 2.094-1.223 2.094-2.674v-.025c0-.77-.265-1.425-.731-1.904-.568-.555-1.439-.883-2.549-.883H61.99v8.827zM52.538 7.135V7.11c0-1.715 1.224-3.115 2.977-3.115 1.754 0 3.002 1.425 3.002 3.14v.025c0 1.715-1.223 3.102-2.977 3.102-1.753 0-3.002-1.412-3.002-3.127zm7.607 0V7.11c0-2.485-1.892-4.54-4.605-4.54-2.712 0-4.63 2.08-4.63 4.565v.025c0 2.484 1.893 4.54 4.605 4.54 2.712 0 4.63-2.08 4.63-4.565zm-15.457 4.413V7.955h4.453V6.542h-4.453V4.134h5.02V2.72h-6.572v8.827zm-3.36 0v-1.387H36.27v-2.37h4.428V6.403H36.27V4.108h4.995V2.721h-6.547v8.827zm-11.743.063l3.663-8.89h-1.68l-2.652 6.785-2.665-6.785h-1.717l3.675 8.89zm-9.142-7.099l1.526 3.53h-3.04zm-2.99 7.036l.908-2.13h4.176l.895 2.13h1.64l-3.885-8.89h-1.438l-3.886 8.89zm-10.008.053l2.17-6.335 2.17 6.335h1.35l3.065-8.88h-1.627L12.466 9.26l-2.17-6.563H8.984L6.814 9.26 4.708 2.72H3.03l3.078 8.88z" filter="url(#76see)" mask="url(&quot;#76sef&quot;)"/></g></g></svg>